<svg width="781" height="823" viewBox="0 0 781 823" fill="none" xmlns="http://www.w3.org/2000/svg">
<g filter="url(#filter0_f_448_99)">
<circle cx="369.5" cy="411.5" r="217.5" fill="#8154DA"/>
</g>
<path d="M170.043 575.711C181.125 567.572 190.698 557.528 200.05 547.448C209.575 537.182 218.696 526.536 227.545 515.667C236.554 504.6 245.274 493.296 253.85 481.881C262.475 470.4 270.96 458.812 279.449 447.227C287.949 435.626 296.591 424.108 304.641 412.178C305.668 410.699 306.603 409.156 307.441 407.559C307.542 407.37 307.574 407.151 307.53 406.941C307.486 406.731 307.37 406.544 307.203 406.412C307.035 406.281 306.827 406.215 306.616 406.225C306.404 406.236 306.204 406.322 306.05 406.47C303.421 408.904 301.207 411.799 298.985 414.617C296.741 417.464 294.522 420.331 292.328 423.217C287.984 428.967 283.721 434.773 279.482 440.603C271.061 452.183 262.664 463.78 254.148 475.288C245.737 486.655 237.212 497.939 228.441 509.022C219.721 520.042 210.744 530.857 201.374 541.316C196.775 546.449 192.077 551.489 187.279 556.434C182.478 561.371 177.536 566.178 172.891 571.265C171.757 572.507 170.623 573.744 169.495 574.991C169.167 575.354 169.607 576.031 170.043 575.711Z" fill="#FEBF3F"/>
<path d="M365.778 406.59C364.571 409.121 363.849 411.808 363.019 414.475C362.166 417.216 361.508 420.022 360.788 422.798C359.315 428.473 357.889 434.16 356.51 439.858C353.662 451.72 351.127 463.645 349.206 475.683C347.196 487.888 345.925 500.197 345.402 512.546C344.895 524.803 345.526 537.08 347.287 549.227C348.162 555.165 349.388 561.048 350.956 566.85C352.549 572.703 354.377 578.648 357.191 584.073C357.86 585.408 358.65 586.684 359.551 587.885C359.682 588.087 359.883 588.237 360.118 588.309C360.352 588.38 360.606 588.369 360.832 588.276C361.059 588.184 361.244 588.016 361.355 587.803C361.466 587.59 361.496 587.346 361.438 587.114C360.824 584.201 359.719 581.435 358.755 578.615C357.791 575.797 356.802 572.986 355.933 570.138C354.189 564.389 352.798 558.545 351.767 552.637C349.685 540.808 349.019 528.779 349.207 516.792C349.448 504.67 350.466 492.575 352.256 480.576C353.997 468.574 356.306 456.641 358.888 444.783C361.345 433.492 364.359 422.314 366.669 410.998C366.948 409.668 367.13 408.321 367.213 406.966C367.254 406.251 366.1 405.916 365.778 406.59Z" fill="#FEBF3F"/>
<path d="M211.523 563.146C213.356 562.244 215.115 561.202 216.787 560.03C218.506 558.811 220.201 557.547 221.84 556.222C225.102 553.546 228.219 550.7 231.179 547.694C237.452 541.322 243.303 534.548 248.695 527.416C254.288 520.132 259.531 512.585 264.618 504.943C269.688 497.327 274.601 489.609 279.547 481.912C281.936 478.194 284.362 474.499 286.742 470.776C289 467.243 291.204 463.676 293.435 460.126C293.964 459.284 294.415 458.388 294.901 457.52C295.271 456.858 294.353 456.081 293.817 456.685C291.089 459.839 288.544 463.148 286.195 466.593C283.703 470.155 281.358 473.818 279.006 477.472C274.095 485.102 269.244 492.771 264.262 500.354C259.213 508.042 254.033 515.65 248.529 523.022C243.274 530.15 237.59 536.951 231.507 543.389C228.567 546.464 225.506 549.427 222.299 552.225C220.741 553.584 219.158 554.916 217.55 556.221C215.975 557.496 214.325 558.674 212.762 559.961C212.009 560.581 211.251 561.197 210.489 561.807C209.696 562.444 210.706 563.554 211.523 563.146Z" fill="#FEBF3F"/>
<path d="M328.641 428.509C327.044 432.438 325.641 436.439 324.171 440.416C322.696 444.407 321.073 448.342 319.422 452.265C316.128 460.095 312.412 467.747 308.645 475.363C304.79 483.161 300.786 490.886 296.865 498.651C292.946 506.414 289.126 514.218 285.667 522.194C283.911 526.243 282.229 530.324 280.663 534.448C279.133 538.515 277.82 542.658 276.729 546.86C276.448 547.895 276.254 548.95 276.148 550.016C276.152 550.161 276.203 550.301 276.294 550.415C276.385 550.529 276.51 550.611 276.652 550.649C276.794 550.687 276.944 550.679 277.08 550.626C277.217 550.572 277.332 550.477 277.41 550.354C278.45 548.418 279.116 546.31 279.926 544.271C280.725 542.26 281.516 540.247 282.315 538.236C283.902 534.243 285.518 530.266 287.257 526.336C290.784 518.366 294.626 510.526 298.53 502.731C302.429 494.947 306.433 487.215 310.314 479.422C314.182 471.655 317.86 463.802 321.18 455.788C322.808 451.86 324.302 447.884 325.664 443.862C327.069 439.873 328.197 435.794 329.04 431.653C329.23 430.646 329.393 429.643 329.527 428.627C329.598 428.087 328.812 428.086 328.641 428.509Z" fill="#FEBF3F"/>
<path d="M331.763 453.684C330.573 459.609 329.359 465.53 328.022 471.419C326.635 477.53 325.066 483.59 323.622 489.685C320.751 501.805 317.903 514.108 317.17 526.644C316.932 530.009 316.905 533.387 317.089 536.756C317.207 538.506 317.384 540.249 317.604 541.988C317.818 543.69 317.973 545.499 318.796 546.987C319.234 547.779 320.558 547.727 320.732 546.711C320.826 546.307 320.887 545.894 320.914 545.478C320.898 545.098 320.864 544.72 320.812 544.344C320.741 543.586 320.683 542.826 320.622 542.067C320.504 540.613 320.427 539.156 320.39 537.696C320.31 534.682 320.287 531.669 320.424 528.655C320.723 522.657 321.385 516.686 322.408 510.783C324.471 498.427 327.616 486.325 330.028 474.049C331.337 467.387 332.497 460.642 332.67 453.817C332.666 453.698 332.624 453.583 332.551 453.494C332.477 453.405 332.377 453.348 332.269 453.331C332.16 453.315 332.049 453.342 331.957 453.407C331.864 453.471 331.796 453.569 331.763 453.684Z" fill="#FEBF3F"/>
<path d="M172.336 559.061C171.895 558.705 171.45 558.361 171.029 557.983C170.578 557.586 170.07 557.255 169.521 557C168.464 556.454 167.367 555.985 166.239 555.597C160.202 553.648 153.742 553.288 147.515 554.554C143.61 555.386 139.861 556.8 136.401 558.745C132.919 560.7 129.72 563.095 126.886 565.868C124.033 568.649 121.542 571.76 119.467 575.13C117.414 578.454 115.791 582.012 114.637 585.722C113.509 589.325 112.911 593.064 112.861 596.829C112.809 600.497 113.401 604.147 114.612 607.622C115.907 611.248 117.909 614.597 120.508 617.487C121.901 619.031 123.453 620.433 125.139 621.671C126.919 622.943 128.842 624.013 130.872 624.861C131.978 625.329 133.119 625.715 134.286 626.016C134.459 626.057 134.643 626.037 134.803 625.959C134.962 625.881 135.088 625.75 135.158 625.589C135.227 625.429 135.236 625.25 135.182 625.084C135.128 624.918 135.015 624.777 134.863 624.684C132.928 623.541 130.971 622.378 129.151 621.066C129.047 620.99 128.943 620.915 128.84 620.838C128.819 620.823 128.482 620.568 128.718 620.748C128.454 620.547 128.195 620.342 127.929 620.145C127.729 619.996 127.526 619.85 127.325 619.701C127.593 619.9 127.265 619.653 127.231 619.627C127.101 619.528 126.973 619.427 126.845 619.326C126.063 618.707 125.299 618.066 124.572 617.388C123.87 616.733 123.201 616.048 122.565 615.33C122.267 614.994 121.98 614.649 121.697 614.301C121.94 614.599 121.519 614.072 121.455 613.987C121.299 613.783 121.146 613.576 120.997 613.367C119.949 611.907 119.048 610.353 118.307 608.725C118.266 608.636 118.044 608.113 118.205 608.498C118.123 608.304 118.041 608.11 117.963 607.914C117.793 607.492 117.635 607.065 117.486 606.635C117.202 605.81 116.957 604.974 116.75 604.126C116.543 603.28 116.374 602.425 116.244 601.564C116.228 601.46 116.214 601.356 116.198 601.253C116.261 601.682 116.208 601.319 116.197 601.235C116.172 601.027 116.147 600.819 116.124 600.611C116.076 600.159 116.038 599.706 116.009 599.252C115.902 597.49 115.933 595.722 116.103 593.965C116.144 593.539 116.197 593.114 116.248 592.689C116.292 592.317 116.194 593.035 116.251 592.665C116.267 592.558 116.282 592.452 116.298 592.346C116.335 592.097 116.376 591.849 116.419 591.602C116.572 590.713 116.757 589.829 116.974 588.952C117.404 587.21 117.947 585.497 118.599 583.823C118.76 583.408 118.929 582.998 119.1 582.588C119.129 582.519 119.282 582.167 119.118 582.543C119.163 582.441 119.208 582.339 119.253 582.237C119.359 581.999 119.467 581.762 119.577 581.526C119.971 580.679 120.391 579.845 120.838 579.023C121.737 577.368 122.736 575.767 123.831 574.228C124.094 573.857 124.363 573.49 124.637 573.127C124.775 572.945 124.913 572.765 125.053 572.585C125.123 572.495 125.193 572.406 125.264 572.316C125.311 572.256 125.358 572.197 125.405 572.137C125.275 572.302 125.263 572.317 125.37 572.183C125.973 571.449 126.583 570.721 127.223 570.017C128.476 568.638 129.813 567.335 131.228 566.114C131.948 565.493 132.689 564.899 133.446 564.321C133.114 564.575 133.678 564.151 133.769 564.085C133.953 563.951 134.138 563.818 134.325 563.687C134.729 563.403 135.137 563.126 135.551 562.855C137.137 561.817 138.795 560.89 140.515 560.08C140.927 559.886 141.343 559.7 141.761 559.521C141.866 559.476 141.971 559.433 142.076 559.388C142.435 559.233 141.759 559.511 142.123 559.369C142.371 559.272 142.617 559.172 142.866 559.078C143.754 558.741 144.654 558.438 145.568 558.17C147.367 557.644 149.206 557.256 151.068 557.007C150.623 557.067 151.346 556.976 151.462 556.963C151.693 556.938 151.925 556.915 152.157 556.894C152.661 556.849 153.166 556.815 153.672 556.792C154.656 556.748 155.64 556.745 156.625 556.785C157.628 556.825 158.628 556.912 159.623 557.035C159.241 556.988 159.959 557.084 160.072 557.101C160.316 557.138 160.559 557.178 160.801 557.22C161.332 557.312 161.861 557.415 162.387 557.531C164.489 558.008 166.564 558.594 168.602 559.286C168.856 559.37 169.106 559.469 169.362 559.547C169.672 559.618 169.988 559.663 170.305 559.682C170.799 559.761 171.287 559.871 171.767 560.012C172.298 560.151 172.804 559.438 172.336 559.061Z" fill="#FEBF3F"/>
<path d="M156.253 582.441C153.826 581.849 151.301 581.977 148.932 582.812C146.843 583.609 145.048 585.147 143.822 587.189C141.214 591.408 140.742 596.946 141.365 601.891C141.715 604.79 142.63 607.569 144.046 610.034C144.402 610.638 145.395 610.27 145.153 609.515C143.641 605.064 143.086 600.281 143.531 595.549C143.54 595.463 143.549 595.377 143.56 595.292C143.556 595.319 143.539 595.459 143.558 595.309C143.578 595.161 143.598 595.012 143.621 594.864C143.665 594.57 143.714 594.277 143.769 593.985C143.874 593.431 144 592.883 144.148 592.341C144.401 591.336 144.768 590.371 145.239 589.468C146.104 587.736 147.356 586.279 148.874 585.24C150.932 583.881 153.447 583.697 155.842 584.099C156.039 584.152 156.248 584.119 156.425 584.008C156.601 583.896 156.733 583.714 156.794 583.498C156.846 583.279 156.819 583.045 156.718 582.847C156.617 582.649 156.45 582.503 156.253 582.441Z" fill="#FEBF3F"/>
<path d="M359.805 573.643C360.673 572.622 361.619 571.657 362.636 570.755C363.085 570.358 363.551 569.977 364.036 569.615C364.152 569.529 364.269 569.445 364.386 569.36C364.533 569.253 364.309 569.412 364.299 569.419C364.364 569.375 364.429 569.329 364.495 569.286C364.652 569.182 364.809 569.079 364.964 568.973C365.345 568.714 365.06 568.909 364.981 568.961C365.061 568.908 365.14 568.854 365.22 568.801C365.666 568.507 366.129 568.235 366.608 567.987C367.021 567.73 367.472 567.526 367.949 567.382C367.66 567.437 367.693 567.473 367.937 567.392C368.047 567.355 368.157 567.317 368.269 567.282C368.503 567.209 368.739 567.142 368.979 567.083C369.197 567.029 369.418 566.981 369.64 566.939C369.749 566.919 369.859 566.9 369.97 566.883C370.196 566.847 370.476 566.917 369.926 566.881C370.342 566.908 370.8 566.808 371.224 566.81C371.439 566.811 371.653 566.818 371.868 566.832C371.975 566.838 372.082 566.848 372.189 566.856C372.234 566.86 372.28 566.866 372.326 566.87C372.686 566.895 371.894 566.804 372.107 566.842C372.969 566.989 373.816 567.2 374.639 567.474C374.94 567.576 374.139 567.267 374.523 567.432C374.623 567.475 374.724 567.514 374.823 567.557C375.038 567.65 375.25 567.749 375.459 567.853C375.873 568.058 376.278 568.28 376.672 568.513C376.867 568.629 377.059 568.748 377.248 568.871C377.33 568.925 377.41 568.981 377.493 569.034C377.718 569.178 377.065 568.722 377.45 569.005C377.841 569.292 378.223 569.586 378.59 569.897C379.345 570.54 380.05 571.229 380.699 571.96C380.752 572.019 381.057 572.374 380.802 572.074C380.546 571.772 380.844 572.125 380.901 572.193C381.073 572.401 381.242 572.611 381.407 572.823C381.732 573.242 382.044 573.669 382.342 574.105C382.947 574.991 383.5 575.906 383.999 576.845C384.125 577.082 384.248 577.319 384.367 577.558C384.427 577.679 384.486 577.799 384.545 577.92C384.778 578.394 384.411 577.628 384.552 577.933C384.64 578.121 384.728 578.308 384.816 578.495C384.932 578.74 384.616 578.053 384.725 578.3C384.779 578.424 384.838 578.547 384.893 578.671C385.004 578.92 385.112 579.169 385.216 579.421C386.093 581.528 386.743 583.706 387.157 585.925C387.208 586.198 387.253 586.472 387.299 586.746C387.378 587.215 387.244 586.332 387.295 586.707C387.316 586.865 387.338 587.022 387.358 587.179C387.43 587.749 387.485 588.32 387.524 588.893C387.601 590.014 387.611 591.14 387.581 592.263C387.565 592.83 387.531 593.396 387.479 593.962C387.456 594.214 387.428 594.466 387.397 594.717C387.38 594.852 387.36 594.987 387.343 595.122C387.31 595.387 387.418 594.663 387.373 594.926C387.36 595.003 387.348 595.081 387.335 595.158C387.151 596.267 386.885 597.365 386.539 598.443C386.204 599.488 385.783 600.51 385.347 601.524C385.22 601.819 385.512 601.198 385.323 601.57C385.261 601.693 385.2 601.816 385.139 601.939C384.959 602.298 384.79 602.662 384.631 603.031C384.558 603.2 384.69 602.905 384.691 602.903C384.655 602.973 384.622 603.045 384.587 603.116C384.535 603.221 384.481 603.327 384.427 603.432C384.282 603.711 384.13 603.988 383.97 604.261C383.658 604.784 383.377 605.321 383.129 605.871C382.737 606.759 384.038 607.505 384.857 607.067C385.973 606.402 386.949 605.566 387.742 604.596C388.617 603.622 389.343 602.545 389.898 601.396C391.024 599.005 391.763 596.482 392.095 593.903C392.77 589.117 391.963 584.103 390.283 579.541C388.688 575.208 386.167 571.008 382.554 567.762C379.521 565.038 375.412 562.937 370.993 563.268C368.725 563.439 366.545 564.137 364.666 565.293C362.402 566.746 360.509 568.618 359.112 570.782C358.696 571.395 358.308 572.024 357.94 572.661C357.281 573.802 358.978 574.614 359.805 573.643Z" fill="#FEBF3F"/>
<path d="M258.456 576.089C255.609 579.211 254.457 583.581 254.225 587.711C253.932 592.256 254.741 596.804 256.582 600.968C257.564 603.096 258.994 604.985 260.776 606.506C262.557 608.027 264.647 609.144 266.901 609.778C271.423 611.009 276.325 610.105 280.459 608.036C282.829 606.843 285.034 605.347 287.02 603.586C287.962 602.729 288.833 601.797 289.626 600.8C290.464 599.829 291.182 598.761 291.764 597.618C291.843 597.473 291.867 597.304 291.833 597.142C291.799 596.981 291.708 596.836 291.577 596.735C291.447 596.634 291.284 596.583 291.119 596.591C290.954 596.599 290.797 596.665 290.677 596.778C289.06 598.055 287.541 599.432 285.91 600.647C285.143 601.219 284.245 601.915 283.341 602.52C282.433 603.129 281.495 603.689 280.528 604.198C280.06 604.444 279.586 604.677 279.104 604.897C279.013 604.939 278.486 605.17 278.756 605.055C278.454 605.184 278.147 605.301 277.842 605.422C276.888 605.807 275.91 606.126 274.914 606.379C274.45 606.495 273.982 606.593 273.51 606.674C273.354 606.7 273.198 606.725 273.041 606.747C273.112 606.737 273.379 606.711 273.035 606.746C272.774 606.772 272.514 606.8 272.252 606.818C271.732 606.854 271.211 606.865 270.688 606.85C270.48 606.844 270.272 606.834 270.065 606.819C269.935 606.81 269.805 606.799 269.676 606.786C269.597 606.778 269.045 606.703 269.44 606.763C268.447 606.615 267.473 606.363 266.533 606.011C266.432 605.973 266.332 605.934 266.232 605.894C266.522 606.01 266.193 605.876 266.122 605.844C265.897 605.742 265.674 605.634 265.454 605.52C264.951 605.261 264.462 604.977 263.987 604.669C263.058 604.059 262.203 603.342 261.44 602.534C261.279 602.369 261.126 602.199 260.98 602.022C260.979 602.021 260.707 601.681 260.859 601.876C261.012 602.072 260.743 601.718 260.743 601.718C260.472 601.345 260.218 600.957 259.982 600.56C259.761 600.19 259.555 599.812 259.363 599.426C259.253 599.206 259.148 598.985 259.047 598.761C259.006 598.671 258.966 598.58 258.926 598.489C258.728 598.043 259.029 598.769 258.852 598.31C258.482 597.369 258.166 596.409 257.903 595.433C256.835 591.342 256.722 587.061 257.572 582.919C257.938 580.973 258.733 579.133 259.899 577.534C260.083 577.338 260.185 577.08 260.185 576.811C260.185 576.543 260.083 576.285 259.899 576.089C259.707 575.9 259.448 575.794 259.178 575.794C258.908 575.794 258.649 575.9 258.456 576.089Z" fill="#FEBF3F"/>
<path d="M287.069 560.091C288.1 558.487 288.838 556.706 289.847 555.073C290.045 554.753 290.257 554.444 290.475 554.138C290.253 554.45 290.609 553.97 290.671 553.894C290.791 553.747 290.916 553.603 291.043 553.461C291.264 553.217 291.495 552.983 291.736 552.76C291.866 552.641 292.002 552.531 292.133 552.414C292.338 552.232 292.084 552.454 292.053 552.476C292.135 552.417 292.215 552.354 292.297 552.295C292.55 552.112 292.813 551.943 293.085 551.789C293.21 551.718 293.337 551.651 293.466 551.586C293.537 551.551 293.612 551.522 293.68 551.484C293.825 551.403 293.294 551.634 293.635 551.504C294.193 551.291 294.768 551.127 295.353 551.013C295.797 550.926 295.022 551.034 295.406 551.005C295.542 550.995 295.677 550.98 295.814 550.972C296.118 550.955 296.423 550.954 296.727 550.971C296.88 550.979 297.033 550.993 297.186 551.007C297.626 551.046 296.876 550.946 297.249 551.014C297.559 551.07 297.867 551.129 298.173 551.209C298.468 551.287 298.761 551.377 299.049 551.48C299.173 551.523 299.296 551.569 299.418 551.617C299.494 551.647 299.57 551.683 299.648 551.71C299.731 551.74 299.291 551.541 299.658 551.716C300.249 551.995 300.823 552.311 301.377 552.662C301.647 552.836 301.913 553.018 302.173 553.208C302.32 553.316 302.464 553.428 302.609 553.538C302.261 553.275 302.649 553.571 302.782 553.683C303.349 554.162 303.888 554.673 304.398 555.214C304.93 555.776 305.425 556.371 305.9 556.984C305.956 557.056 306.087 557.252 305.851 556.918C305.898 556.985 305.948 557.049 305.995 557.115C306.115 557.281 306.233 557.449 306.348 557.618C306.582 557.96 306.807 558.307 307.023 558.661C307.442 559.346 307.827 560.052 308.179 560.777C308.357 561.145 308.523 561.519 308.688 561.893C308.731 561.991 308.847 562.283 308.687 561.886C308.72 561.966 308.752 562.047 308.784 562.128C308.872 562.351 308.957 562.575 309.038 562.801C309.597 564.417 310.02 566.08 310.303 567.77C310.343 567.992 310.38 568.214 310.414 568.437C310.437 568.59 310.49 569.04 310.446 568.647C310.509 569.206 310.576 569.76 310.677 570.312C310.717 570.532 310.754 570.753 310.788 570.974C310.801 571.063 310.814 571.151 310.826 571.24C310.771 570.858 310.872 571.512 310.91 571.63C311.005 571.969 311.22 572.259 311.512 572.444C311.803 572.628 312.152 572.695 312.488 572.63C313.716 572.273 313.715 570.679 313.814 569.604C313.857 568.743 313.812 567.879 313.679 567.028C313.449 565.188 312.996 563.386 312.331 561.663C310.105 555.784 305.733 549.978 299.664 548.055C298.367 547.617 296.997 547.452 295.636 547.57C294.275 547.688 292.951 548.087 291.743 548.743C290.498 549.47 289.406 550.442 288.528 551.606C287.98 552.312 287.491 553.064 287.066 553.855C286.943 554.089 286.832 554.33 286.733 554.576C286.868 554.246 286.53 555.073 286.48 555.204C286.307 555.652 286.151 556.105 286.012 556.565C285.69 557.567 285.541 558.619 285.573 559.674C285.578 559.853 285.639 560.025 285.746 560.165C285.854 560.306 286.002 560.407 286.17 560.454C286.338 560.501 286.516 560.491 286.678 560.425C286.839 560.36 286.976 560.243 287.069 560.091Z" fill="#FEBF3F"/>
<path d="M211.951 594.349C212.134 594.064 212.279 593.76 212.384 593.443C212.459 593.142 212.532 592.833 212.591 592.529C212.696 591.993 212.644 592.187 212.623 592.31C212.635 592.238 212.646 592.166 212.659 592.094C212.688 591.933 212.719 591.772 212.754 591.612C212.819 591.313 212.895 591.017 212.983 590.723C213.169 590.134 213.39 589.555 213.644 588.988C213.776 588.681 213.568 589.127 213.717 588.829C213.779 588.706 213.839 588.581 213.904 588.459C214.047 588.185 214.201 587.917 214.366 587.653C214.51 587.422 214.663 587.194 214.823 586.971C214.912 586.846 215.004 586.723 215.098 586.601C215.148 586.537 215.412 586.214 215.303 586.342C215.175 586.493 215.455 586.171 215.488 586.135C215.578 586.034 215.67 585.935 215.764 585.837C215.974 585.617 216.191 585.404 216.416 585.198C216.627 585.004 216.845 584.817 217.069 584.637C217.173 584.552 217.28 584.469 217.387 584.387C217.44 584.346 217.496 584.307 217.549 584.266C217.765 584.096 217.371 584.386 217.524 584.283C217.99 583.962 218.474 583.664 218.974 583.392C219.223 583.259 219.475 583.133 219.732 583.015C219.853 582.959 219.974 582.906 220.096 582.854C220.156 582.828 220.218 582.804 220.279 582.777C220.558 582.653 219.954 582.892 220.265 582.782C220.787 582.597 221.31 582.42 221.85 582.282C222.099 582.218 222.351 582.162 222.604 582.112C222.73 582.088 222.856 582.066 222.983 582.045C223.158 582.017 223.574 581.862 223.122 582.02C223.648 581.912 224.19 581.887 224.725 581.947C224.975 581.953 225.222 581.973 225.471 581.992C225.905 582.024 225.23 581.945 225.501 581.992C225.653 582.018 225.806 582.038 225.958 582.066C226.469 582.174 226.973 582.311 227.466 582.477C227.702 582.551 227.143 582.332 227.507 582.493C227.619 582.543 227.732 582.591 227.843 582.644C228.095 582.762 228.34 582.893 228.579 583.034C228.686 583.097 228.791 583.163 228.895 583.231C229.054 583.335 229.212 583.462 228.952 583.262C229.179 583.437 229.404 583.611 229.617 583.801C229.848 584.007 230.067 584.225 230.274 584.453C230.33 584.514 230.383 584.577 230.439 584.638C230.628 584.847 230.303 584.445 230.408 584.603C230.492 584.729 230.597 584.845 230.686 584.968C231.09 585.523 231.449 586.105 231.757 586.71C231.791 586.778 231.823 586.847 231.858 586.914C232.013 587.214 231.763 586.701 231.893 586.988C232.009 587.247 232.139 587.496 232.264 587.751C232.299 587.822 232.333 587.894 232.367 587.965C232.248 587.715 232.424 588.092 232.444 588.136C232.502 588.263 232.562 588.388 232.623 588.513C232.642 588.546 232.658 588.58 232.671 588.615C233.039 589.443 233.23 590.355 233.679 591.146C233.76 591.269 233.878 591.367 234.018 591.429C234.158 591.49 234.315 591.513 234.469 591.495C234.622 591.476 234.767 591.416 234.886 591.323C235.004 591.23 235.091 591.107 235.136 590.969C235.333 590.131 235.375 589.267 235.258 588.416C235.227 587.615 235.086 586.822 234.837 586.055C234.346 584.669 233.567 583.386 232.543 582.278C230.776 580.418 228.315 579.248 225.656 579.004C220.361 578.436 215.16 581.426 212.383 585.474C211.515 586.72 210.892 588.1 210.545 589.549C210.368 590.322 210.258 591.107 210.215 591.897C210.14 592.757 210.365 593.617 210.856 594.349C210.913 594.437 210.993 594.509 211.089 594.559C211.185 594.609 211.293 594.636 211.403 594.636C211.513 594.636 211.622 594.609 211.718 594.559C211.813 594.509 211.894 594.437 211.951 594.349Z" fill="#FEBF3F"/>
<path d="M230.319 596.575C230.871 595.866 231.486 595.201 232.157 594.585C232.452 594.304 232.723 594.006 233.028 593.733C233.19 593.588 233.357 593.446 233.528 593.309C233.596 593.255 233.664 593.202 233.732 593.15C233.751 593.135 234.091 592.89 233.848 593.06C234.463 592.622 235.123 592.242 235.819 591.924C235.889 591.893 235.962 591.865 236.031 591.833C236.373 591.677 235.797 591.914 236.022 591.838C236.181 591.784 236.339 591.729 236.501 591.681C236.852 591.585 237.209 591.506 237.57 591.445C237.828 591.396 237.235 591.462 237.663 591.438C237.839 591.429 238.015 591.418 238.192 591.414C238.333 591.411 238.473 591.41 238.613 591.414C238.701 591.417 238.788 591.422 238.876 591.428C238.937 591.432 239.32 591.47 239.016 591.435C238.722 591.401 239.216 591.47 239.306 591.489C239.477 591.523 239.646 591.563 239.814 591.61C239.948 591.647 240.079 591.699 240.213 591.735C240.557 591.827 239.946 591.606 240.151 591.707C240.245 591.754 240.346 591.79 240.441 591.834C240.731 591.975 241.013 592.13 241.284 592.298C241.613 592.493 241.071 592.109 241.429 592.398C241.574 592.515 241.72 592.63 241.858 592.754C242 592.881 242.137 593.013 242.269 593.15C242.323 593.206 242.375 593.263 242.428 593.319C242.443 593.335 242.693 593.628 242.525 593.425C242.386 593.258 242.709 593.668 242.76 593.738C242.882 593.906 242.997 594.077 243.107 594.252C243.232 594.452 243.35 594.656 243.46 594.864C243.512 594.961 243.559 595.06 243.61 595.158C243.772 595.466 243.516 594.911 243.661 595.266C243.842 595.708 244.002 596.151 244.147 596.604C244.509 597.733 244.896 598.861 245.176 600.011C245.264 600.3 245.464 600.55 245.737 600.714C246.011 600.878 246.34 600.946 246.664 600.903C246.986 600.861 247.281 600.715 247.496 600.49C247.712 600.266 247.833 599.979 247.839 599.68C248.046 597.396 247.535 595.105 246.368 593.08C245.495 591.505 244.152 590.191 242.496 589.292C239.223 587.609 235.275 588.296 232.524 590.532C231.714 591.217 231.007 591.999 230.42 592.855C229.787 593.861 229.329 594.952 229.062 596.088C229.024 596.234 229.043 596.388 229.117 596.523C229.191 596.657 229.314 596.764 229.465 596.822C229.616 596.881 229.785 596.888 229.942 596.842C230.098 596.797 230.232 596.702 230.319 596.575Z" fill="#FEBF3F"/>
<path d="M241.715 580.98C241.67 580.69 241.634 580.349 241.605 580.032C241.584 579.803 241.557 579.577 241.515 579.349C241.45 579.005 241.532 579.497 241.505 579.293C241.489 579.174 241.474 579.056 241.462 578.937C241.413 578.346 241.401 577.752 241.425 577.16C241.43 576.908 241.456 576.659 241.472 576.408C241.49 576.125 241.401 576.678 241.458 576.499C241.473 576.436 241.485 576.372 241.493 576.307C241.517 576.182 241.547 576.058 241.58 575.935C241.641 575.71 241.724 575.494 241.807 575.275C241.914 574.991 241.639 575.56 241.819 575.256C241.891 575.135 241.954 575.011 242.03 574.892C242.079 574.814 242.132 574.737 242.186 574.662C242.226 574.606 242.273 574.552 242.312 574.496C242.414 574.344 242.221 574.548 242.202 574.624C242.242 574.465 242.567 574.24 242.691 574.13C242.779 574.053 242.873 573.981 242.963 573.906C243.231 573.682 242.739 574.04 242.935 573.923C243.144 573.797 243.343 573.663 243.56 573.548C243.717 573.466 244.147 573.355 244.249 573.231C244.241 573.239 243.855 573.372 244.086 573.294C244.136 573.277 244.184 573.258 244.234 573.241C244.384 573.188 244.536 573.138 244.69 573.093C245.202 572.943 245.725 572.828 246.255 572.749C246.313 572.74 246.372 572.732 246.43 572.723C246.728 572.678 246.489 572.628 246.35 572.732C246.414 572.684 246.623 572.703 246.709 572.695C247.033 572.665 247.357 572.644 247.682 572.632C248.317 572.609 248.953 572.617 249.587 572.649C249.892 572.665 250.196 572.685 250.5 572.712C250.672 572.727 250.844 572.743 251.016 572.761C251.174 572.778 251.722 572.779 251.185 572.777C251.881 572.826 252.57 572.935 253.243 573.104C254.634 573.373 256.008 573.71 257.359 574.116C258.047 574.32 258.729 574.543 259.404 574.783C259.739 574.877 260.064 574.997 260.376 575.143C260.352 575.129 259.966 574.98 260.247 575.092C260.33 575.125 260.414 575.158 260.497 575.192C260.679 575.265 260.861 575.34 261.042 575.416C262.386 575.985 263.693 576.625 264.959 577.331C265.543 577.655 266.141 577.954 266.723 578.282C267.304 578.609 267.944 578.837 268.613 578.956C268.782 578.996 268.959 578.994 269.127 578.951C269.295 578.909 269.448 578.826 269.572 578.712C269.695 578.599 269.784 578.457 269.831 578.302C269.877 578.147 269.879 577.983 269.836 577.827C269.695 577.152 269.34 576.53 268.815 576.042C268.31 575.557 267.76 575.113 267.171 574.716C266.031 573.982 264.822 573.345 263.557 572.812C260.756 571.58 257.802 570.671 254.761 570.103C249.904 569.23 242.856 568.734 239.647 573.058C237.715 575.661 238.382 579.086 239.993 581.65C240.109 581.831 240.293 581.966 240.509 582.031C240.725 582.097 240.96 582.088 241.17 582.006C241.377 581.921 241.545 581.772 241.644 581.584C241.744 581.397 241.769 581.183 241.715 580.98Z" fill="#FEBF3F"/>
<path d="M239.952 553.493C239.961 553.25 239.987 553.009 240.029 552.77C240.046 552.688 240.069 552.608 240.098 552.531L240.117 552.5C240.028 552.629 240.058 552.591 240.207 552.387C240.257 552.267 240.299 552.144 240.331 552.018C240.364 551.915 240.399 551.814 240.434 551.712C240.451 551.661 240.472 551.611 240.491 551.56C240.376 551.863 240.525 551.494 240.563 551.372C240.64 551.13 240.702 550.883 240.784 550.642C240.894 550.313 240.709 550.767 240.831 550.526C240.884 550.42 240.931 550.312 240.986 550.207C241.11 549.971 241.247 549.742 241.398 549.523C241.456 549.438 241.679 549.165 241.426 549.474C241.503 549.38 241.576 549.285 241.654 549.193C241.823 548.996 241.998 548.802 242.173 548.61C242.345 548.423 242.525 548.243 242.712 548.072C242.807 547.984 242.906 547.899 243.003 547.814C243.058 547.766 243.116 547.722 243.172 547.675C243.079 547.755 242.93 547.856 243.115 547.721C243.564 547.387 244.032 547.081 244.518 546.805C244.766 546.666 245.017 546.536 245.273 546.413C245.389 546.357 245.507 546.306 245.623 546.25C245.927 546.106 245.35 546.358 245.558 546.277C245.649 546.242 245.738 546.202 245.828 546.166C246.402 545.935 246.987 545.727 247.578 545.546C248.194 545.358 248.818 545.201 249.451 545.076C249.747 545.016 250.045 544.963 250.344 544.917C250.433 544.903 250.522 544.892 250.61 544.877C250.852 544.838 250.176 544.924 250.545 544.888C250.724 544.87 250.903 544.845 251.083 544.827C252.436 544.692 253.799 544.682 255.155 544.799C255.489 544.813 255.821 544.849 256.151 544.908C255.781 544.824 256.036 544.893 256.245 544.927C256.428 544.956 256.611 544.988 256.793 545.022C257.483 545.152 258.166 545.319 258.838 545.523C259.47 545.715 260.093 545.943 260.708 546.185C260.811 546.226 261.4 546.486 260.902 546.259C261.035 546.32 261.169 546.379 261.301 546.441C261.631 546.597 261.955 546.764 262.273 546.943C262.59 547.121 262.9 547.31 263.203 547.511C263.354 547.612 263.504 547.715 263.651 547.821C263.724 547.874 263.797 547.928 263.87 547.982C263.912 548.014 264.215 548.253 264.005 548.085C263.788 547.91 264.07 548.14 264.094 548.16C264.163 548.22 264.233 548.278 264.302 548.339C264.454 548.471 264.603 548.606 264.749 548.745C265.014 548.999 265.267 549.267 265.529 549.525C265.805 549.798 266.071 550.08 266.322 550.377C266.455 550.533 266.583 550.693 266.709 550.855C266.513 550.602 266.851 551.057 266.897 551.124C267.118 551.446 267.3 551.793 267.516 552.116C267.779 552.509 268.127 552.849 268.414 553.225C268.881 553.836 269.88 553.31 269.866 552.609C269.871 552.16 269.838 551.711 269.768 551.268C269.654 550.817 269.495 550.378 269.292 549.96C268.37 547.714 266.802 545.809 264.798 544.497C262.234 542.649 259.237 541.754 256.151 541.402C250.827 540.796 244.287 541.962 240.482 546.154C239.548 547.166 238.898 548.417 238.599 549.776C238.434 550.473 238.421 551.199 238.561 551.903C238.644 552.222 238.779 552.525 238.962 552.798C239.092 553.087 239.21 553.378 239.358 553.658C239.394 553.718 239.449 553.764 239.513 553.79C239.577 553.816 239.648 553.82 239.715 553.802C239.781 553.783 239.841 553.743 239.883 553.688C239.926 553.632 239.95 553.564 239.952 553.493Z" fill="#FEBF3F"/>
<path d="M324.699 564.12C325.43 563.722 326.21 563.432 327.015 563.257C327.309 563.198 327.607 563.168 327.906 563.169C328.093 563.165 328.281 563.171 328.468 563.184C328.56 563.191 328.653 563.2 328.745 563.21C328.596 563.194 328.63 563.187 328.758 563.215C329.111 563.291 329.466 563.359 329.813 563.46C329.966 563.505 330.117 563.555 330.267 563.61C330.353 563.642 330.438 563.677 330.523 563.711C330.755 563.804 330.193 563.531 330.576 563.738C330.865 563.894 331.153 564.046 331.429 564.227C331.59 564.332 331.748 564.442 331.902 564.557C331.981 564.616 332.058 564.676 332.135 564.736C331.942 564.585 332.073 564.684 332.186 564.785C332.782 565.319 333.344 565.893 333.869 566.504C334.136 566.814 334.392 567.135 334.638 567.465C334.764 567.634 334.623 567.446 334.605 567.42C334.67 567.512 334.735 567.604 334.799 567.697C334.944 567.907 335.086 568.121 335.224 568.337C335.71 569.102 336.158 569.893 336.564 570.708C336.765 571.109 336.957 571.514 337.141 571.925C337.227 572.116 337.311 572.309 337.393 572.503C337.44 572.614 337.486 572.725 337.533 572.836C337.757 573.367 337.461 572.656 337.585 572.963C337.724 573.311 337.867 573.655 338.013 573.999C338.06 574.108 338.105 574.218 338.151 574.328C338.28 574.629 338.134 574.277 338.207 574.462C338.426 575.018 338.645 575.565 338.901 576.103C339.115 576.552 339.279 577.053 339.525 577.481C339.802 577.901 340.105 578.302 340.433 578.679C340.538 578.787 340.668 578.865 340.81 578.905C340.952 578.944 341.101 578.945 341.243 578.905C341.385 578.865 341.515 578.788 341.619 578.679C341.724 578.571 341.801 578.435 341.841 578.286C341.955 577.843 342.038 577.392 342.09 576.936C342.1 576.329 342.045 575.723 341.926 575.13C341.78 574.126 341.531 573.142 341.185 572.195C340.467 570.183 339.522 568.269 338.373 566.495C336.356 563.369 333.225 560.074 329.362 560.094C327.216 560.183 325.166 561.056 323.562 562.563C322.702 563.309 323.798 564.607 324.699 564.12Z" fill="#FEBF3F"/>
<path d="M341.274 622.643C341.212 623.473 341.034 624.285 340.745 625.057C340.635 625.336 340.498 625.602 340.336 625.854C340.237 626.013 340.132 626.167 340.019 626.317C339.963 626.391 339.906 626.464 339.847 626.536C339.942 626.42 339.928 626.452 339.836 626.544C339.581 626.799 339.331 627.062 339.058 627.298C338.938 627.403 338.813 627.503 338.686 627.598C338.613 627.653 338.538 627.706 338.463 627.759C338.259 627.903 338.793 627.579 338.411 627.789C338.124 627.948 337.84 628.107 337.539 628.242C337.363 628.32 337.185 628.393 337.004 628.46C336.912 628.494 336.82 628.527 336.727 628.559C336.96 628.478 336.805 628.535 336.659 628.575C335.887 628.787 335.1 628.948 334.302 629.058C333.897 629.115 333.489 629.157 333.078 629.184C332.868 629.199 333.102 629.182 333.134 629.181C333.021 629.186 332.909 629.19 332.796 629.194C332.54 629.202 332.284 629.205 332.027 629.204C331.121 629.199 330.214 629.146 329.309 629.047C328.863 628.998 328.418 628.94 327.974 628.872C327.766 628.841 327.558 628.807 327.351 628.771C327.232 628.751 327.114 628.729 326.995 628.708C326.428 628.609 327.186 628.746 326.86 628.683C326.492 628.612 326.126 628.545 325.758 628.482C325.64 628.462 325.523 628.44 325.406 628.42C325.083 628.365 325.458 628.433 325.264 628.394C324.678 628.277 324.099 628.164 323.508 628.088C323.015 628.025 322.505 627.892 322.011 627.866C321.508 627.871 321.008 627.91 320.513 627.981C320.365 628.01 320.229 628.077 320.119 628.175C320.009 628.273 319.928 628.398 319.884 628.539C319.84 628.68 319.836 628.831 319.87 628.978C319.904 629.125 319.977 629.262 320.08 629.377C320.391 629.713 320.726 630.027 321.081 630.318C321.585 630.655 322.124 630.937 322.688 631.158C323.61 631.579 324.571 631.903 325.555 632.125C327.636 632.611 329.756 632.854 331.871 632.849C335.591 632.847 340.057 632 342.133 628.743C343.219 626.891 343.596 624.695 343.198 622.53C343.037 621.403 341.353 621.621 341.274 622.643Z" fill="#FEBF3F"/>
<path d="M142.701 535.594C142.817 534.796 142.998 534.02 143.116 533.223C143.225 532.484 143.358 531.748 143.52 531.019C143.794 529.733 144.159 528.47 144.611 527.241C144.637 527.171 144.665 527.102 144.691 527.032C144.768 526.83 144.582 527.292 144.666 527.097C144.722 526.965 144.776 526.833 144.834 526.703C144.954 526.432 145.083 526.166 145.215 525.902C145.461 525.412 145.704 524.923 145.987 524.455C146.111 524.251 146.239 524.051 146.373 523.855C146.443 523.753 146.518 523.654 146.588 523.551C146.292 523.988 146.586 523.56 146.67 523.456C146.967 523.085 147.286 522.735 147.625 522.407C147.791 522.247 147.964 522.095 148.138 521.944C148.439 521.681 147.96 522.071 148.136 521.944C148.239 521.869 148.338 521.789 148.441 521.715C148.817 521.444 149.21 521.198 149.616 520.98C149.801 520.88 149.99 520.79 150.179 520.698C150.524 520.53 149.804 520.846 150.161 520.707C150.278 520.661 150.394 520.612 150.512 520.567C150.95 520.402 151.396 520.263 151.848 520.151C152.072 520.096 152.297 520.046 152.523 520.003C152.637 519.981 152.751 519.962 152.866 519.942C152.909 519.934 152.952 519.929 152.995 519.921C153.332 519.859 152.542 519.973 152.883 519.936C153.358 519.885 153.831 519.837 154.308 519.821C155.345 519.796 156.383 519.85 157.412 519.982C157.718 520.018 156.947 519.908 157.419 519.984C157.549 520.004 157.679 520.025 157.81 520.047C158.09 520.095 158.369 520.148 158.649 520.202C159.205 520.31 159.759 520.435 160.308 520.578C161.442 520.874 162.56 521.229 163.659 521.643C164.24 521.86 164.817 522.091 165.388 522.336C165.529 522.396 165.671 522.453 165.809 522.519C165.445 522.346 165.701 522.471 165.895 522.56C166.178 522.689 166.459 522.82 166.739 522.955C167.92 523.523 169.08 524.137 170.217 524.799C172.551 526.156 174.798 527.672 176.943 529.338C177.191 529.53 177.438 529.724 177.684 529.919C177.835 530.04 178.118 530.272 177.791 530.004C177.953 530.137 178.115 530.269 178.276 530.402C178.79 530.829 179.297 531.263 179.799 531.706C180.823 532.611 181.848 533.511 182.832 534.464C184.675 536.26 186.404 538.182 188.006 540.218C188.193 540.454 188.38 540.692 188.563 540.932C188.654 541.05 188.743 541.171 188.834 541.289C189.011 541.522 188.799 541.241 188.775 541.209C188.841 541.299 188.907 541.39 188.973 541.48C189.375 542.037 189.753 542.614 190.165 543.163C190.25 543.275 190.334 543.388 190.419 543.5C190.21 543.223 190.413 543.492 190.498 543.61C190.672 543.852 190.843 544.097 191.012 544.345C191.327 544.81 191.631 545.283 191.923 545.765C192.051 545.977 192.167 546.197 192.299 546.406C192.352 546.488 192.408 546.565 192.465 546.645C192.422 546.584 192.687 546.946 192.579 546.799C192.542 546.748 192.737 547.017 192.779 547.077C192.897 547.273 193.077 547.418 193.289 547.488C193.5 547.557 193.727 547.546 193.931 547.456C194.135 547.366 194.302 547.203 194.402 546.996C194.501 546.789 194.528 546.551 194.477 546.326C194.258 545.117 193.885 543.944 193.368 542.839C192.898 541.696 192.332 540.6 191.677 539.562C190.196 537.254 188.524 535.087 186.68 533.087C182.785 528.834 178.334 525.182 173.46 522.239C169.064 519.561 164.143 517.198 159.071 516.424C154.786 515.769 150.109 516.056 146.54 518.909C144.651 520.407 143.194 522.426 142.332 524.74C141.425 527.39 141.02 530.201 141.139 533.014C141.187 533.88 141.286 534.741 141.437 535.594C141.478 535.736 141.561 535.861 141.675 535.95C141.789 536.038 141.927 536.086 142.069 536.086C142.211 536.086 142.349 536.038 142.463 535.95C142.577 535.861 142.66 535.736 142.701 535.594Z" fill="#FEBF3F"/>
<path d="M377.929 548.824C378.765 547.494 379.429 546.063 380.283 544.736C380.672 544.132 381.054 543.522 381.464 542.93C381.864 542.352 382.188 541.92 382.565 541.464C383.365 540.491 384.251 539.591 385.213 538.775C385.413 538.606 385.617 538.441 385.824 538.281C385.543 538.499 385.937 538.201 385.994 538.16C386.12 538.069 386.247 537.979 386.374 537.89C386.825 537.573 387.29 537.276 387.769 537.004C388.235 536.74 388.715 536.504 389.203 536.285C389.253 536.262 389.304 536.243 389.353 536.22C389.551 536.128 389.067 536.324 389.273 536.255C389.391 536.214 389.507 536.162 389.624 536.118C389.875 536.024 390.128 535.937 390.384 535.857C390.873 535.703 391.37 535.574 391.873 535.471C392.114 535.421 392.357 535.38 392.6 535.339C392.652 535.33 392.704 535.326 392.756 535.316C392.977 535.273 392.401 535.354 392.625 535.332C392.764 535.319 392.903 535.299 393.042 535.286C394.056 535.188 395.078 535.186 396.093 535.278C396.217 535.289 396.34 535.302 396.464 535.315C396.547 535.325 396.952 535.381 396.655 535.337C396.34 535.29 396.773 535.356 396.844 535.368C396.985 535.39 397.126 535.414 397.266 535.44C397.78 535.535 398.289 535.65 398.794 535.787C399.307 535.925 399.815 536.083 400.316 536.261C400.561 536.348 400.805 536.439 401.047 536.534C401.103 536.557 401.533 536.732 401.242 536.611C400.958 536.494 401.462 536.708 401.538 536.742C402.553 537.197 403.536 537.719 404.481 538.303C404.968 538.604 405.445 538.919 405.912 539.249C406.141 539.41 406.366 539.576 406.591 539.742C406.951 540.008 406.36 539.557 406.623 539.766C406.75 539.866 406.877 539.965 407.002 540.065C407.93 540.81 408.826 541.599 409.676 542.43C410.551 543.286 411.38 544.188 412.158 545.132C412.235 545.224 412.618 545.823 412.722 545.832C412.704 545.83 412.419 545.435 412.641 545.729C412.68 545.781 412.719 545.832 412.758 545.883C412.863 546.02 412.966 546.158 413.068 546.297C413.441 546.803 413.8 547.319 414.146 547.843C414.847 548.906 415.492 550.004 416.078 551.133C416.384 551.724 416.674 552.322 416.948 552.928C417.003 553.05 417.057 553.172 417.111 553.294C417.154 553.372 417.189 553.454 417.217 553.539C417.214 553.545 417.054 553.145 417.139 553.357C417.263 553.668 417.393 553.976 417.513 554.288C418.483 556.747 419.188 559.301 419.617 561.906C419.657 562.061 419.681 562.219 419.688 562.379C419.687 562.381 419.636 561.972 419.663 562.198C419.674 562.289 419.687 562.38 419.698 562.471C419.739 562.813 419.776 563.155 419.807 563.498C419.867 564.164 419.91 564.832 419.971 565.499C420.094 566.845 420.129 568.198 420.076 569.549C420.072 570.232 420.129 570.915 420.246 571.588C420.348 572.534 421.704 573.149 422.236 572.122C422.624 571.466 422.919 570.761 423.113 570.026C423.273 569.241 423.394 568.451 423.501 567.657C423.708 566.258 423.777 564.842 423.707 563.429C423.531 560.557 423.009 557.716 422.151 554.967C420.435 549.688 417.555 544.854 413.72 540.814C410.287 537.164 405.968 534.205 401.127 532.728C396.674 531.291 391.835 531.59 387.597 533.564C387.082 533.813 386.582 534.089 386.097 534.393C385.873 534.533 385.652 534.679 385.435 534.83C385.325 534.906 385.215 534.984 385.107 535.063C385 535.141 384.404 535.596 384.58 535.461C384.817 535.28 384.311 535.668 384.333 535.65C384.273 535.698 384.215 535.75 384.155 535.8C384.049 535.888 383.945 535.977 383.842 536.068C383.601 536.279 383.366 536.496 383.137 536.719C382.689 537.154 382.263 537.611 381.859 538.088C379.906 540.404 378.381 543.043 377.355 545.884C377.047 546.663 376.812 547.468 376.65 548.29C376.611 548.451 376.631 548.62 376.706 548.767C376.782 548.915 376.907 549.031 377.061 549.095C377.215 549.159 377.386 549.167 377.545 549.117C377.705 549.068 377.841 548.964 377.929 548.824Z" fill="#FEBF3F"/>
<path d="M124.794 544.399C122.922 544.676 121.036 544.596 119.148 544.725C117.226 544.856 115.3 545.12 113.388 545.365C109.558 545.807 105.803 546.794 102.223 548.3C99.1978 549.599 96.4454 551.519 94.125 553.948C92.3176 555.882 90.754 558.054 89.4732 560.411C86.8057 565.327 85.1865 570.799 84.7288 576.446C84.2694 581.897 84.9755 587.528 87.2184 592.492C88.2995 594.894 89.7735 597.075 91.5726 598.935C93.5386 600.931 95.8641 602.489 98.4109 603.517C99.0838 603.763 99.7793 603.935 100.486 604.028C100.686 604.081 100.897 604.058 101.082 603.962C101.267 603.866 101.414 603.704 101.496 603.504C101.578 603.303 101.588 603.077 101.523 602.869C101.459 602.661 101.325 602.485 101.146 602.374C100.536 602.054 99.9555 601.67 99.3368 601.373C98.7345 601.083 98.1453 600.765 97.5693 600.419C97.012 600.083 96.4746 599.716 95.9464 599.332C95.6966 599.15 95.4462 598.969 95.2016 598.779C95.1321 598.725 94.904 598.544 94.9429 598.576C94.9433 598.576 94.6963 598.368 94.6011 598.285C93.6664 597.473 92.8055 596.57 92.0295 595.588C91.943 595.479 91.8577 595.369 91.7734 595.257C91.7253 595.194 91.6776 595.13 91.6301 595.066C91.5079 594.901 91.7337 595.211 91.6149 595.044C91.4309 594.784 91.251 594.522 91.0775 594.254C90.742 593.737 90.4282 593.205 90.136 592.658C89.8529 592.129 89.5902 591.588 89.3478 591.036C89.283 590.889 89.2197 590.741 89.1578 590.592C89.1268 590.518 89.0962 590.443 89.0659 590.368C89.0862 590.419 89.1528 590.592 89.0594 590.35C88.943 590.048 88.8316 589.744 88.7254 589.438C88.3202 588.257 87.9945 587.048 87.7509 585.819C87.6246 585.187 87.5204 584.55 87.4324 583.91C87.3953 583.641 87.4231 583.841 87.43 583.897C87.4197 583.814 87.4098 583.73 87.4003 583.647C87.3835 583.501 87.3677 583.355 87.3529 583.209C87.319 582.874 87.2901 582.538 87.2664 582.202C87.1746 580.885 87.1563 579.564 87.2115 578.246C87.2389 577.58 87.2839 576.916 87.3465 576.253C87.3768 575.93 87.4122 575.609 87.4496 575.288C87.4571 575.224 87.465 575.159 87.4731 575.095C87.4414 575.348 87.47 575.124 87.4765 575.076C87.503 574.884 87.5299 574.692 87.5586 574.499C87.9571 571.848 88.6196 569.248 89.535 566.743C89.6451 566.443 89.7588 566.143 89.8763 565.845C89.7862 566.074 89.9301 565.714 89.9572 565.648C90.0299 565.471 90.104 565.295 90.1794 565.12C90.4296 564.537 90.6943 563.962 90.9735 563.395C91.5422 562.237 92.1742 561.115 92.8661 560.035C93.0315 559.777 93.2005 559.522 93.373 559.27C93.4532 559.152 93.5342 559.036 93.6159 558.919C93.6625 558.853 93.7097 558.787 93.7565 558.721C93.9814 558.404 93.6614 558.848 93.7946 558.668C94.163 558.169 94.5462 557.682 94.9442 557.209C95.7248 556.28 96.5672 555.411 97.465 554.609C97.6792 554.418 97.8967 554.231 98.1174 554.049C98.2393 553.948 98.0745 554.085 98.0617 554.095C98.1551 554.02 98.248 553.944 98.342 553.87C98.5531 553.704 98.7674 553.542 98.9837 553.384C99.7244 552.839 100.494 552.339 101.289 551.887C104.481 550.077 108.037 549.097 111.576 548.381C113.419 548.008 115.265 547.654 117.115 547.319C118.917 547.057 120.698 546.655 122.443 546.115C123.303 545.834 124.176 545.599 125.058 545.411C125.697 545.261 125.408 544.308 124.794 544.399Z" fill="#FEBF3F"/>
<path d="M408.712 565.306C409.263 565.42 409.368 565.505 409.912 565.609C410.323 565.696 410.726 565.812 411.117 565.954C411.216 565.988 411.317 566.02 411.416 566.055C411.652 566.137 411.09 565.907 411.453 566.072C411.624 566.149 411.796 566.225 411.963 566.31C412.132 566.396 412.298 566.488 412.461 566.585C412.571 566.651 412.676 566.724 412.786 566.789C413.082 566.964 412.573 566.608 412.859 566.84C413.551 567.374 414.198 567.954 414.794 568.575C414.872 568.661 414.949 568.747 415.025 568.835C414.78 568.554 414.951 568.748 414.999 568.81C415.145 568.996 415.293 569.179 415.433 569.368C415.724 569.758 416.014 570.148 416.282 570.551C416.56 570.968 416.82 571.395 417.061 571.831C417.173 572.031 417.281 572.232 417.386 572.435C417.444 572.549 417.502 572.663 417.558 572.778C417.578 572.818 417.796 573.284 417.626 572.911C418.061 573.865 418.433 574.841 418.739 575.835C419.042 576.815 419.283 577.811 419.461 578.816C419.482 578.935 419.581 579.595 419.525 579.183C419.559 579.438 419.592 579.694 419.62 579.95C419.674 580.457 419.7 580.964 419.735 581.471C419.818 582.54 419.819 583.613 419.737 584.681C419.648 585.291 419.63 585.907 419.681 586.52C419.716 586.765 419.642 586.146 419.685 586.563C419.701 586.764 419.728 586.964 419.766 587.162C419.834 587.418 419.932 587.666 420.059 587.903C420.196 588.112 420.419 588.263 420.679 588.325C420.939 588.386 421.215 588.353 421.448 588.233C423.621 587.097 423.674 584.065 423.736 582.072C423.748 579.793 423.399 577.525 422.698 575.336C421.5 571.32 419.268 566.78 415.197 564.498C414.234 563.941 413.167 563.547 412.047 563.337C411.46 563.239 410.86 563.21 410.265 563.252C409.638 563.3 409.032 563.471 408.487 563.755C408.331 563.842 408.206 563.967 408.127 564.117C408.049 564.266 408.019 564.433 408.043 564.597C408.067 564.761 408.143 564.915 408.261 565.041C408.38 565.167 408.536 565.259 408.712 565.306Z" fill="#FEBF3F"/>
<path d="M421.059 574.862C422.258 575.078 423.489 574.952 424.706 575.046C424.983 575.067 425.26 575.097 425.537 575.127C425.599 575.129 425.66 575.137 425.721 575.149C425.869 575.171 426.018 575.194 426.166 575.219C426.672 575.304 427.179 575.386 427.681 575.494C428.647 575.699 429.598 575.968 430.528 576.299C430.638 576.338 430.747 576.379 430.855 576.421C430.91 576.442 431.271 576.586 431.042 576.493C430.815 576.4 431.177 576.552 431.221 576.572C431.339 576.626 431.457 576.681 431.574 576.737C431.977 576.932 432.369 577.146 432.752 577.378C433.129 577.607 433.484 577.862 433.844 578.116C434.057 578.266 433.599 577.915 433.867 578.134C433.951 578.202 434.036 578.27 434.119 578.339C434.297 578.488 434.471 578.641 434.641 578.798C434.968 579.101 435.281 579.419 435.579 579.752C435.712 579.901 435.842 580.053 435.969 580.208C436.038 580.291 436.104 580.376 436.172 580.459C435.965 580.205 436.105 580.373 436.21 580.515C436.733 581.228 437.195 581.984 437.592 582.774C437.69 582.97 437.785 583.169 437.876 583.369C437.922 583.469 437.963 583.572 438.01 583.671C437.865 583.366 437.964 583.561 438.035 583.737C438.2 584.151 438.351 584.571 438.485 584.996C438.765 585.881 438.982 586.783 439.136 587.698C439.155 587.812 439.174 587.926 439.191 588.04C439.201 588.104 439.255 588.503 439.219 588.224C439.183 587.948 439.234 588.357 439.24 588.41C439.254 588.527 439.266 588.643 439.278 588.759C439.326 589.245 439.357 589.733 439.375 590.221C439.411 591.199 439.387 592.179 439.306 593.155C439.287 593.381 439.265 593.606 439.24 593.832C439.227 593.953 439.212 594.075 439.197 594.196C439.15 594.589 439.242 593.912 439.183 594.295C439.106 594.802 439.02 595.307 438.916 595.809C438.708 596.81 438.443 597.799 438.122 598.769C437.962 599.252 437.788 599.73 437.601 600.204C437.554 600.322 437.504 600.44 437.458 600.559C437.354 600.826 437.577 600.292 437.428 600.631C437.316 600.883 437.205 601.134 437.088 601.383C436.188 603.309 435.1 605.141 433.839 606.854C433.687 607.059 433.977 606.684 433.751 606.966C433.68 607.055 433.609 607.145 433.536 607.233C433.355 607.456 433.17 607.675 432.982 607.891C432.615 608.312 432.234 608.72 431.84 609.115C431.456 609.5 431.06 609.872 430.652 610.232C430.446 610.412 430.237 610.59 430.026 610.764C429.919 610.851 429.812 610.937 429.705 611.023C429.659 611.06 429.612 611.096 429.566 611.133C429.394 611.267 429.792 610.963 429.487 611.193C427.609 612.598 425.582 613.793 423.442 614.757C422.895 615.004 422.341 615.231 421.798 615.486C421.686 615.555 421.599 615.659 421.55 615.781C421.502 615.904 421.494 616.038 421.528 616.166C421.563 616.293 421.638 616.405 421.742 616.487C421.846 616.568 421.973 616.613 422.106 616.617C427.008 616.108 431.601 613.264 435.005 609.826C438.242 606.547 440.549 602.471 441.69 598.013C442.815 593.865 442.871 589.501 441.852 585.326C440.9 581.401 438.616 577.924 435.387 575.485C433.754 574.285 431.891 573.43 429.914 572.975C427.556 572.518 425.128 572.549 422.783 573.068C422.127 573.171 421.493 573.38 420.905 573.688C420.798 573.753 420.713 573.848 420.659 573.961C420.605 574.074 420.585 574.2 420.601 574.324C420.617 574.448 420.669 574.565 420.751 574.661C420.832 574.756 420.939 574.826 421.059 574.862Z" fill="#FEBF3F"/>
<path d="M417.881 635.117C418.249 635.224 418.623 635.312 419.001 635.381C419.356 635.413 419.719 635.438 420.075 635.458C420.845 635.45 421.611 635.341 422.351 635.136C423.784 634.807 425.152 634.261 426.402 633.517C428.944 631.997 431.106 629.966 432.736 627.568C436.141 622.659 438.056 616.655 438.892 610.864C439.138 609.154 439.331 607.439 439.436 605.715C439.453 604.877 439.383 604.04 439.227 603.216C439.139 602.435 438.79 601.701 438.231 601.122C438.084 600.989 437.89 600.916 437.688 600.916C437.486 600.916 437.291 600.989 437.145 601.122C436.875 601.354 436.67 601.646 436.548 601.971C436.49 602.106 436.432 602.241 436.374 602.376C436.349 602.434 436.323 602.492 436.297 602.551C436.438 602.229 436.187 602.793 436.168 602.845C435.98 603.45 435.843 604.068 435.759 604.694C435.625 605.467 435.58 606.251 435.492 607.03C435.455 607.358 435.415 607.685 435.372 608.013C435.351 608.178 435.328 608.343 435.306 608.508C435.362 608.088 435.297 608.557 435.272 608.725C434.865 611.543 434.255 614.332 433.448 617.071C433.038 618.434 432.555 619.776 432.002 621.092C431.972 621.161 431.772 621.623 431.867 621.407C431.961 621.194 431.749 621.665 431.724 621.718C431.573 622.046 431.416 622.371 431.253 622.693C430.943 623.308 430.611 623.913 430.259 624.507C429.559 625.645 428.79 626.744 427.955 627.798C428.143 627.554 428.001 627.741 427.898 627.864C427.796 627.985 427.692 628.105 427.587 628.224C427.364 628.476 427.134 628.723 426.898 628.964C426.447 629.423 425.97 629.859 425.47 630.268C425.316 630.393 425.158 630.514 425.001 630.636C424.978 630.654 424.799 630.785 424.956 630.671C425.136 630.54 424.798 630.78 424.798 630.78C424.506 630.982 424.207 631.175 423.901 631.359C423.291 631.724 422.65 632.054 422.008 632.366C421.847 632.445 421.684 632.52 421.519 632.593C421.472 632.614 421.036 632.794 421.219 632.722C420.849 632.867 420.471 632.989 420.092 633.111C419.708 633.235 419.391 633.413 419.026 633.536C418.621 633.672 418.279 633.895 417.881 634.026C417.37 634.195 417.263 634.998 417.881 635.117Z" fill="#FEBF3F"/>
<path d="M103.923 591.65C101.823 593.947 101.008 597.198 100.577 600.158C100.125 603.596 100.22 607.08 100.859 610.49C102.004 617.218 104.774 623.913 109.182 629.283C110.263 630.652 111.508 631.894 112.89 632.983C113.654 633.578 114.464 634.117 115.311 634.596C115.685 634.801 116.063 635.007 116.452 635.182C116.969 635.367 117.516 635.46 118.067 635.458C118.255 635.456 118.44 635.407 118.603 635.315C118.766 635.224 118.901 635.093 118.994 634.936C119.088 634.779 119.138 634.6 119.138 634.419C119.138 634.238 119.089 634.06 118.996 633.902C118.796 633.621 118.621 633.315 118.399 633.05C118.13 632.774 117.836 632.52 117.521 632.292C116.958 631.818 116.417 631.315 115.879 630.815C114.766 629.789 113.712 628.705 112.722 627.57C112.489 627.301 112.261 627.028 112.037 626.751C112.274 627.044 111.997 626.696 111.914 626.589C111.773 626.406 111.633 626.221 111.496 626.036C111.031 625.408 110.572 624.776 110.138 624.128C109.237 622.78 108.422 621.379 107.698 619.935C107.53 619.599 107.366 619.262 107.206 618.922C107.126 618.751 107.048 618.581 106.97 618.409C106.926 618.311 106.882 618.213 106.838 618.115C106.942 618.35 106.85 618.141 106.798 618.02C106.481 617.272 106.182 616.518 105.906 615.755C105.346 614.203 104.876 612.623 104.501 611.02C104.318 610.238 104.159 609.452 104.022 608.661C103.863 607.732 103.833 607.519 103.734 606.575C103.569 605.001 103.515 603.413 103.499 601.831C103.486 600.204 103.608 598.578 103.862 596.969C104.115 595.394 104.49 593.743 104.742 592.108C104.806 591.694 104.283 591.255 103.923 591.65Z" fill="#FEBF3F"/>
<path d="M103.544 549.951C103.538 549.326 103.49 548.703 103.4 548.085C103.272 547.519 103.166 546.948 103.082 546.372C102.949 545.372 102.871 544.366 102.846 543.357C102.817 542.272 102.869 541.187 103.002 540.111C102.976 540.319 103.004 540.095 103.009 540.062C103.028 539.93 103.048 539.798 103.069 539.666C103.112 539.403 103.159 539.141 103.211 538.879C103.314 538.358 103.437 537.84 103.577 537.327C104.728 533.387 106.81 529.795 109.64 526.865C110.369 526.088 111.134 525.349 111.936 524.648C112.803 523.888 113.453 523.356 114.271 522.753C116.07 521.431 117.98 520.272 119.979 519.291C121.927 518.334 123.955 517.558 126.041 516.976C128.102 516.38 130.215 515.988 132.35 515.806C137.11 515.391 141.9 516.053 146.379 517.746C147.277 518.079 147.801 516.683 147.016 516.207C143.112 513.838 138.406 512.88 133.887 513.001C129.152 513.162 124.49 514.227 120.141 516.141C111.861 519.717 104.385 526.345 101.466 535.218C100.69 537.577 100.295 540.049 100.297 542.536C100.3 543.853 100.434 545.165 100.696 546.454C100.829 547.111 100.99 547.761 101.181 548.404C101.417 549.092 101.751 549.741 102.171 550.33C102.536 550.906 103.612 550.741 103.544 549.951Z" fill="#FEBF3F"/>
<path d="M321.735 359.948L309.855 377.308L379.875 411.332L386.196 391.266L321.735 359.948Z" fill="#A28FD8" stroke="#231F20" stroke-width="3.14" stroke-linecap="round" stroke-linejoin="round"/>
<path d="M318.708 381.612L370.932 406.986C361.513 496.637 288.265 518.397 288.265 518.397C252.408 437.885 318.708 381.612 318.708 381.612Z" fill="#FEBF3F" stroke="#231F20" stroke-width="3.14" stroke-linecap="round" stroke-linejoin="round"/>
<path d="M362.714 402.998L326.868 385.581C314.511 404.436 298.054 438.378 307.227 475.994C307.227 475.994 344.875 456.959 362.714 402.998Z" fill="#D8920B" stroke="#231F20" stroke-width="3.14" stroke-linecap="round" stroke-linejoin="round"/>
<path d="M326.162 435.214C326.162 435.214 342.692 424.925 355.724 399.599L334.01 389.048C328.224 401.881 323.629 418.252 326.162 435.214Z" fill="#F98600" stroke="#231F20" stroke-width="3.14" stroke-linecap="round" stroke-linejoin="round"/>
<path d="M312.168 339.924L306.119 352.362L401.806 398.854L407.855 386.416L312.168 339.924Z" fill="#A28FD8" stroke="#231F20" stroke-width="3.14" stroke-linecap="round" stroke-linejoin="round"/>
<path d="M552.155 79.9244C552.155 79.9244 546.637 39.3184 523.082 27.8712C499.526 16.4275 464.163 37.1677 464.163 37.1677C441.935 54.247 436.35 58.7534 418.838 94.7551C401.331 130.76 302.002 334.985 302.002 334.985L418.012 391.357C418.012 391.357 515.453 191.003 534.847 151.124C554.241 111.244 554.809 102.343 552.155 79.9244Z" fill="#D6C8FF" stroke="#231F20" stroke-width="3.14" stroke-linecap="round" stroke-linejoin="round"/>
<path d="M552.148 79.9237C550.351 62.8166 541.534 8.55476 534.762 5.26096C527.863 1.91041 472.038 31.8337 464.156 37.1669C496.548 43.9986 526.765 58.6813 552.148 79.9237Z" fill="#A28FD8" stroke="#231F20" stroke-width="3.14" stroke-linecap="round" stroke-linejoin="round"/>
<path d="M386.504 161.424L315.819 306.763L251.6 275.56C251.6 275.56 261.399 255.421 263.974 250.123C266.549 244.823 386.504 161.424 386.504 161.424Z" fill="#F3EEFF" stroke="#231F20" stroke-width="3.14" stroke-linecap="round" stroke-linejoin="round"/>
<path d="M252.354 288.124L305.935 327.073L315.813 306.763L251.594 275.56L250.081 278.679C247.499 283.978 252.354 288.124 252.354 288.124Z" fill="#A28FD8" stroke="#231F20" stroke-width="3.14" stroke-linecap="round" stroke-linejoin="round"/>
<path d="M502.383 217.734L431.693 363.074L495.913 394.273C495.913 394.273 505.706 374.134 508.287 368.836C510.862 363.534 502.383 217.734 502.383 217.734Z" fill="#F3EEFF" stroke="#231F20" stroke-width="3.14" stroke-linecap="round" stroke-linejoin="round"/>
<path d="M485.571 401.441L421.834 383.385L431.706 363.075L495.925 394.274L494.411 397.39C491.836 402.689 485.571 401.441 485.571 401.441Z" fill="#A28FD8" stroke="#231F20" stroke-width="3.14" stroke-linecap="round" stroke-linejoin="round"/>
<path d="M386.504 161.424C386.504 161.424 266.996 244.528 264.535 249.044C265.041 248.994 265.554 248.94 266.079 248.886C310.355 244.154 344.771 222.655 364.111 207.469L386.504 161.424Z" fill="#A28FD8" stroke="#231F20" stroke-width="3.14" stroke-linecap="round" stroke-linejoin="round"/>
<path d="M502.39 217.735L481.687 260.305C481.187 284.171 484.534 326.79 509.241 366.612C510.773 362.441 502.39 217.735 502.39 217.735Z" fill="#A28FD8" stroke="#231F20" stroke-width="3.14" stroke-linecap="round" stroke-linejoin="round"/>
<path d="M501.382 80.0403L486.836 109.948C489.349 111.648 491.501 113.827 493.168 116.361L524.665 104.932C519.674 94.4224 511.537 85.7239 501.382 80.0403Z" fill="white" stroke="#231F20" stroke-width="3.14" stroke-linecap="round" stroke-linejoin="round"/>
<path d="M471.932 106.036C474.955 105.782 477.998 106.127 480.887 107.052L495.432 77.1427C484.688 72.6732 472.819 71.6525 461.469 74.2219L471.932 106.036Z" fill="white" stroke="#231F20" stroke-width="3.14" stroke-linecap="round" stroke-linejoin="round"/>
<path d="M456.488 113.68C458.944 110.95 462.01 108.84 465.438 107.521L455.089 76.0544C443.159 80.231 432.983 88.3018 426.203 98.9657L456.488 113.68Z" fill="white" stroke="#231F20" stroke-width="3.14" stroke-linecap="round" stroke-linejoin="round"/>
<path d="M496.012 122.375C497.092 125.884 497.326 129.6 496.693 133.217L526.972 147.93C531.18 136.014 531.248 123.03 527.165 111.071L496.012 122.375Z" fill="white" stroke="#231F20" stroke-width="3.14" stroke-linecap="round" stroke-linejoin="round"/>
<path d="M328.051 353.333L358.463 290.795C359.83 287.986 360.629 284.934 360.816 281.816C361.002 278.698 360.573 275.573 359.551 272.62C358.53 269.668 356.937 266.945 354.863 264.608C352.789 262.271 350.274 260.366 347.463 259C344.652 257.634 341.6 256.835 338.48 256.648C335.36 256.462 332.234 256.891 329.28 257.912C326.326 258.933 323.602 260.526 321.264 262.599C318.926 264.672 317.02 267.185 315.653 269.995L285.242 332.531L328.051 353.333Z" fill="#D6C8FF" stroke="#231F20" stroke-width="3.14" stroke-linecap="round" stroke-linejoin="round"/>
<path d="M430.311 403.02L460.729 340.482C463.48 334.809 463.865 328.276 461.8 322.32C459.735 316.363 455.389 311.469 449.716 308.713C444.044 305.957 437.509 305.563 431.547 307.62C425.585 309.676 420.683 314.014 417.919 319.68L387.5 382.218L430.311 403.02Z" fill="#D6C8FF" stroke="#231F20" stroke-width="3.14" stroke-linecap="round" stroke-linejoin="round"/>
<path d="M286.452 359.004L306.431 368.712C299.821 409.188 269.971 421.274 269.971 421.274C258.271 386.337 286.452 359.004 286.452 359.004Z" fill="#FEBF3F" stroke="#231F20" stroke-width="3.14" stroke-linecap="round" stroke-linejoin="round"/>
<path d="M303.297 367.553L289.583 360.889C283.65 370.582 275.321 387.74 277.221 405.437C277.221 405.437 293.437 394.433 303.297 367.553Z" fill="#F98600" stroke="#231F20" stroke-width="3.14" stroke-linecap="round" stroke-linejoin="round"/>
<path d="M310.146 370.518L282.002 356.841L287.146 348.125L313.831 361.091L310.146 370.518Z" fill="#A28FD8" stroke="#231F20" stroke-width="3.14" stroke-linecap="round" stroke-linejoin="round"/>
<path d="M322.484 350.629L317.937 359.987C317.613 360.652 317.039 361.161 316.34 361.403C315.642 361.645 314.876 361.6 314.21 361.277L286.759 347.941C286.429 347.781 286.135 347.557 285.892 347.284C285.649 347.01 285.462 346.691 285.343 346.344C285.224 345.998 285.174 345.632 285.197 345.267C285.219 344.902 285.314 344.544 285.475 344.216L290.027 334.858L322.484 350.629Z" fill="#A28FD8" stroke="#231F20" stroke-width="3.14" stroke-linecap="round" stroke-linejoin="round"/>
<path d="M388.714 408.692L408.694 418.4C402.084 458.876 372.232 470.958 372.232 470.958C360.527 436.021 388.714 408.692 388.714 408.692Z" fill="#FEBF3F" stroke="#231F20" stroke-width="3.14" stroke-linecap="round" stroke-linejoin="round"/>
<path d="M405.55 417.241L391.836 410.578C385.902 420.27 377.58 437.429 379.473 455.123C379.473 455.123 395.69 444.122 405.55 417.241Z" fill="#F98600" stroke="#231F20" stroke-width="3.14" stroke-linecap="round" stroke-linejoin="round"/>
<path d="M412.407 420.202L384.262 406.528L389.406 397.812L416.085 410.777L412.407 420.202Z" fill="#A28FD8" stroke="#231F20" stroke-width="3.14" stroke-linecap="round" stroke-linejoin="round"/>
<path d="M424.746 400.316L420.193 409.674C419.87 410.338 419.297 410.846 418.6 411.088C417.902 411.33 417.137 411.286 416.472 410.964L389.021 397.628C388.356 397.304 387.847 396.729 387.605 396.03C387.363 395.331 387.408 394.565 387.731 393.899L392.284 384.542L424.746 400.316Z" fill="#A28FD8" stroke="#231F20" stroke-width="3.14" stroke-linecap="round" stroke-linejoin="round"/>
<path d="M454.385 149.036L437.801 140.978C436.848 140.515 435.751 140.45 434.75 140.796C433.749 141.142 432.927 141.871 432.464 142.823L413.154 182.527C412.924 182.998 412.789 183.51 412.757 184.033C412.725 184.556 412.797 185.08 412.968 185.575C413.139 186.071 413.405 186.527 413.753 186.92C414.101 187.312 414.522 187.632 414.994 187.861L431.583 195.92L454.385 149.036Z" fill="white" stroke="#231F20" stroke-width="3.14" stroke-linecap="round" stroke-linejoin="round"/>
<path d="M470.19 156.719L486.774 164.777C487.726 165.239 488.456 166.06 488.803 167.059C489.15 168.059 489.086 169.155 488.625 170.107L469.31 209.812C469.082 210.283 468.762 210.705 468.371 211.053C467.979 211.401 467.523 211.668 467.027 211.84C466.532 212.011 466.008 212.084 465.485 212.052C464.962 212.021 464.45 211.887 463.979 211.658L447.389 203.601L470.19 156.719Z" fill="white" stroke="#231F20" stroke-width="3.14" stroke-linecap="round" stroke-linejoin="round"/>
<defs>
<filter id="filter0_f_448_99" x="-42" y="0" width="823" height="823" filterUnits="userSpaceOnUse" color-interpolation-filters="sRGB">
<feFlood flood-opacity="0" result="BackgroundImageFix"/>
<feBlend mode="normal" in="SourceGraphic" in2="BackgroundImageFix" result="shape"/>
<feGaussianBlur stdDeviation="97" result="effect1_foregroundBlur_448_99"/>
</filter>
</defs>
</svg>
