<svg width="328" height="328" viewBox="0 0 328 328" fill="none" xmlns="http://www.w3.org/2000/svg">
<g filter="url(#filter0_f_481_23)">
<circle cx="164" cy="164" r="68" fill="#9064F1"/>
</g>
<path d="M104.211 232.973C107.74 230.381 110.788 227.183 113.767 223.973C116.8 220.704 119.704 217.314 122.522 213.852C125.392 210.328 128.168 206.728 130.899 203.093C133.646 199.437 136.348 195.747 139.051 192.057C141.758 188.363 144.51 184.695 147.074 180.896C147.401 180.425 147.699 179.934 147.966 179.425C147.998 179.365 148.008 179.295 147.994 179.228C147.98 179.161 147.943 179.102 147.89 179.06C147.836 179.018 147.77 178.997 147.703 179C147.635 179.004 147.572 179.031 147.522 179.078C146.685 179.853 145.98 180.775 145.273 181.673C144.558 182.579 143.851 183.492 143.153 184.411C141.77 186.242 140.412 188.092 139.062 189.948C136.38 193.635 133.706 197.329 130.994 200.994C128.316 204.613 125.601 208.207 122.808 211.736C120.031 215.245 117.172 218.69 114.188 222.02C112.724 223.655 111.228 225.26 109.7 226.835C108.171 228.407 106.597 229.938 105.118 231.558C104.757 231.953 104.396 232.347 104.036 232.744C103.932 232.86 104.072 233.075 104.211 232.973Z" fill="#FEBF3F"/>
<path d="M166.543 179.116C166.158 179.922 165.928 180.778 165.664 181.627C165.393 182.5 165.183 183.394 164.954 184.278C164.485 186.085 164.031 187.896 163.592 189.711C162.685 193.488 161.877 197.286 161.265 201.119C160.625 205.006 160.221 208.926 160.054 212.858C159.893 216.762 160.094 220.671 160.654 224.54C160.933 226.43 161.323 228.304 161.823 230.152C162.33 232.016 162.912 233.909 163.808 235.636C164.021 236.062 164.273 236.468 164.56 236.85C164.602 236.915 164.666 236.962 164.74 236.985C164.815 237.008 164.896 237.004 164.968 236.975C165.04 236.945 165.099 236.892 165.134 236.824C165.17 236.756 165.179 236.679 165.161 236.605C164.965 235.677 164.613 234.796 164.306 233.898C163.999 233.001 163.684 232.106 163.408 231.199C162.852 229.368 162.409 227.507 162.081 225.625C161.418 221.858 161.206 218.028 161.266 214.21C161.342 210.35 161.667 206.499 162.237 202.678C162.791 198.855 163.527 195.055 164.349 191.279C165.131 187.684 166.091 184.124 166.827 180.52C166.915 180.097 166.973 179.668 167 179.236C167.013 179.009 166.645 178.902 166.543 179.116Z" fill="#FEBF3F"/>
<path d="M117.421 228.972C118.005 228.685 118.565 228.353 119.097 227.98C119.645 227.592 120.185 227.189 120.706 226.767C121.745 225.915 122.738 225.009 123.68 224.051C125.678 222.022 127.541 219.865 129.259 217.594C131.04 215.274 132.709 212.871 134.329 210.437C135.944 208.012 137.508 205.554 139.083 203.103C139.844 201.919 140.617 200.742 141.375 199.557C142.094 198.431 142.796 197.296 143.506 196.165C143.674 195.897 143.818 195.612 143.973 195.335C144.091 195.125 143.798 194.877 143.628 195.069C142.759 196.074 141.948 197.127 141.2 198.225C140.407 199.359 139.66 200.525 138.911 201.689C137.347 204.119 135.802 206.561 134.216 208.976C132.608 211.424 130.958 213.847 129.206 216.194C127.532 218.464 125.722 220.63 123.785 222.68C122.848 223.66 121.874 224.603 120.853 225.494C120.356 225.927 119.852 226.351 119.34 226.767C118.839 227.173 118.313 227.548 117.815 227.958C117.576 228.155 117.334 228.351 117.092 228.546C116.839 228.749 117.161 229.102 117.421 228.972Z" fill="#FEBF3F"/>
<path d="M154.716 186.097C154.208 187.348 153.761 188.622 153.293 189.888C152.823 191.159 152.306 192.413 151.781 193.662C150.732 196.155 149.548 198.592 148.349 201.017C147.121 203.501 145.846 205.961 144.597 208.434C143.349 210.906 142.133 213.391 141.031 215.931C140.472 217.22 139.936 218.52 139.438 219.833C138.95 221.128 138.532 222.448 138.185 223.786C138.095 224.115 138.034 224.451 138 224.791C138.001 224.837 138.017 224.882 138.046 224.918C138.075 224.954 138.115 224.98 138.16 224.993C138.205 225.005 138.253 225.002 138.297 224.985C138.34 224.968 138.377 224.938 138.402 224.898C138.733 224.282 138.945 223.611 139.203 222.961C139.457 222.321 139.709 221.68 139.964 221.039C140.469 219.768 140.984 218.501 141.538 217.25C142.661 214.712 143.884 212.215 145.128 209.733C146.369 207.254 147.644 204.792 148.88 202.31C150.112 199.836 151.283 197.336 152.34 194.784C152.859 193.533 153.335 192.267 153.768 190.986C154.216 189.716 154.575 188.417 154.843 187.098C154.904 186.777 154.956 186.458 154.999 186.134C155.021 185.962 154.771 185.962 154.716 186.097Z" fill="#FEBF3F"/>
<path d="M155.711 194.114C155.332 196 154.946 197.886 154.52 199.762C154.078 201.708 153.579 203.637 153.119 205.578C152.205 209.438 151.298 213.356 151.064 217.348C150.988 218.419 150.98 219.495 151.038 220.568C151.076 221.126 151.132 221.681 151.202 222.234C151.271 222.776 151.32 223.352 151.582 223.826C151.721 224.079 152.143 224.062 152.198 223.738C152.228 223.61 152.248 223.478 152.256 223.346C152.251 223.225 152.241 223.104 152.224 222.984C152.201 222.743 152.183 222.501 152.163 222.26C152.126 221.797 152.101 221.333 152.089 220.868C152.064 219.908 152.057 218.948 152.1 217.989C152.195 216.078 152.406 214.177 152.732 212.297C153.389 208.362 154.391 204.508 155.159 200.599C155.575 198.477 155.945 196.33 156 194.156C155.999 194.118 155.986 194.082 155.962 194.053C155.939 194.025 155.907 194.007 155.872 194.001C155.838 193.996 155.802 194.005 155.773 194.025C155.743 194.046 155.722 194.077 155.711 194.114Z" fill="#FEBF3F"/>
<path d="M104.941 227.671C104.801 227.558 104.659 227.448 104.525 227.328C104.381 227.202 104.22 227.096 104.045 227.015C103.708 226.841 103.359 226.692 102.999 226.568C101.077 225.948 99.0196 225.833 97.0368 226.236C95.7933 226.501 94.5994 226.951 93.4975 227.571C92.3888 228.193 91.3698 228.956 90.4674 229.839C89.5589 230.725 88.7656 231.715 88.105 232.789C87.4511 233.847 86.9343 234.98 86.5666 236.162C86.2074 237.309 86.017 238.5 86.001 239.699C85.9846 240.867 86.1732 242.029 86.5589 243.136C86.9712 244.29 87.6086 245.357 88.4362 246.277C88.88 246.769 89.3742 247.215 89.9111 247.61C90.4779 248.015 91.0904 248.356 91.7369 248.625C92.0891 248.775 92.4525 248.898 92.8239 248.993C92.8792 249.006 92.9376 249 92.9885 248.975C93.0394 248.95 93.0795 248.908 93.1016 248.857C93.1238 248.806 93.1265 248.749 93.1093 248.697C93.0921 248.644 93.0561 248.599 93.0078 248.569C92.3915 248.205 91.7684 247.835 91.1888 247.417C91.1556 247.393 91.1225 247.369 91.0896 247.344C91.083 247.34 90.9755 247.258 91.0507 247.316C90.9669 247.252 90.8844 247.186 90.7997 247.124C90.7358 247.076 90.6711 247.03 90.6073 246.982C90.6925 247.046 90.588 246.967 90.5771 246.959C90.5359 246.927 90.495 246.895 90.4543 246.863C90.2055 246.666 89.9622 246.462 89.7304 246.246C89.5069 246.037 89.2938 245.819 89.0914 245.59C88.9966 245.483 88.9053 245.373 88.8149 245.263C88.8922 245.358 88.7584 245.19 88.7378 245.163C88.6883 245.098 88.6397 245.032 88.592 244.965C88.2583 244.5 87.9714 244.005 87.7354 243.487C87.7225 243.458 87.6515 243.292 87.7028 243.415C87.677 243.353 87.6508 243.291 87.6258 243.229C87.5719 243.094 87.5213 242.958 87.4741 242.821C87.3836 242.559 87.3054 242.292 87.2396 242.022C87.1737 241.753 87.12 241.481 87.0784 241.206C87.0734 241.173 87.0688 241.14 87.0639 241.107C87.084 241.244 87.0669 241.128 87.0636 241.102C87.0557 241.035 87.0475 240.969 87.0404 240.903C87.025 240.759 87.0128 240.615 87.0038 240.47C86.9694 239.909 86.9794 239.346 87.0335 238.787C87.0465 238.651 87.0636 238.516 87.0796 238.38C87.0936 238.262 87.0625 238.491 87.0806 238.372C87.0857 238.339 87.0904 238.305 87.0956 238.271C87.1076 238.192 87.1204 238.113 87.1341 238.034C87.183 237.751 87.242 237.47 87.3109 237.19C87.4478 236.636 87.6206 236.09 87.8284 235.557C87.8796 235.425 87.9335 235.294 87.9881 235.163C87.9973 235.141 88.0461 235.029 87.9937 235.149C88.0079 235.117 88.0222 235.084 88.0366 235.052C88.0703 234.976 88.1047 234.9 88.1397 234.825C88.2653 234.556 88.3992 234.29 88.5415 234.028C88.8277 233.501 89.146 232.991 89.4945 232.501C89.5784 232.383 89.664 232.266 89.7514 232.151C89.7951 232.093 89.8392 232.035 89.8837 231.978C89.906 231.949 89.9285 231.921 89.9508 231.892C89.9658 231.873 89.9809 231.854 89.9959 231.836C89.9543 231.888 89.9505 231.893 89.9846 231.85C90.1768 231.616 90.3709 231.385 90.5749 231.16C90.9737 230.721 91.3995 230.306 91.8501 229.917C92.0793 229.72 92.3155 229.53 92.5566 229.346C92.4507 229.427 92.6303 229.292 92.6592 229.271C92.7179 229.229 92.777 229.186 92.8364 229.144C92.9649 229.054 93.0951 228.966 93.2269 228.88C93.7317 228.549 94.26 228.254 94.8078 227.996C94.9389 227.934 95.0712 227.875 95.2045 227.818C95.2378 227.804 95.2714 227.79 95.3047 227.775C95.4192 227.726 95.2036 227.815 95.3198 227.769C95.3986 227.738 95.4771 227.707 95.5562 227.677C95.839 227.57 96.1258 227.473 96.4166 227.387C96.9898 227.22 97.5754 227.096 98.1683 227.017C98.0265 227.036 98.2567 227.007 98.2938 227.003C98.3674 226.995 98.4411 226.988 98.5149 226.981C98.6755 226.967 98.8364 226.956 98.9976 226.949C99.3108 226.935 99.6243 226.934 99.938 226.946C100.257 226.959 100.576 226.987 100.893 227.026C100.771 227.011 101 227.042 101.036 227.047C101.113 227.059 101.191 227.072 101.268 227.085C101.437 227.114 101.605 227.147 101.773 227.184C102.442 227.336 103.103 227.522 103.752 227.743C103.833 227.77 103.913 227.801 103.994 227.826C104.093 227.849 104.193 227.863 104.294 227.869C104.452 227.894 104.607 227.929 104.76 227.974C104.929 228.018 105.09 227.791 104.941 227.671Z" fill="#FEBF3F"/>
<path d="M99.8195 235.117C99.0464 234.928 98.2424 234.969 97.488 235.235C96.8228 235.489 96.2511 235.978 95.8609 236.629C95.0301 237.972 94.8798 239.736 95.0784 241.311C95.1898 242.234 95.4811 243.119 95.932 243.904C96.0454 244.096 96.3618 243.979 96.2845 243.739C95.803 242.321 95.6262 240.798 95.7681 239.291C95.771 239.264 95.7739 239.236 95.7772 239.209C95.7762 239.218 95.7705 239.262 95.7768 239.215C95.7831 239.167 95.7896 239.12 95.7966 239.073C95.8106 238.979 95.8264 238.886 95.8439 238.793C95.8773 238.616 95.9175 238.442 95.9645 238.269C96.0451 237.949 96.1619 237.642 96.3121 237.355C96.5875 236.803 96.9861 236.339 97.4696 236.008C98.1248 235.575 98.9259 235.516 99.6885 235.645C99.7514 235.662 99.8178 235.651 99.8741 235.616C99.9304 235.58 99.9724 235.522 99.9916 235.453C100.008 235.383 99.9998 235.309 99.9676 235.246C99.9354 235.183 99.8822 235.136 99.8195 235.117Z" fill="#FEBF3F"/>
<path d="M164.641 232.315C164.918 231.99 165.219 231.682 165.543 231.395C165.686 231.269 165.834 231.147 165.989 231.032C166.026 231.005 166.063 230.978 166.1 230.951C166.147 230.917 166.076 230.968 166.072 230.97C166.093 230.956 166.114 230.941 166.135 230.927C166.185 230.894 166.235 230.861 166.284 230.828C166.406 230.745 166.315 230.807 166.29 230.824C166.315 230.807 166.34 230.79 166.366 230.773C166.508 230.679 166.655 230.593 166.808 230.514C166.939 230.432 167.083 230.367 167.235 230.321C167.143 230.339 167.153 230.35 167.231 230.324C167.266 230.313 167.301 230.301 167.337 230.289C167.411 230.266 167.487 230.245 167.563 230.226C167.632 230.209 167.703 230.193 167.773 230.18C167.808 230.174 167.843 230.168 167.878 230.162C167.95 230.151 168.04 230.173 167.864 230.162C167.997 230.17 168.143 230.138 168.278 230.139C168.346 230.139 168.414 230.142 168.483 230.146C168.517 230.148 168.551 230.151 168.585 230.154C168.6 230.155 168.614 230.157 168.629 230.158C168.743 230.166 168.491 230.137 168.559 230.149C168.834 230.196 169.103 230.263 169.365 230.35C169.461 230.383 169.206 230.284 169.328 230.337C169.36 230.351 169.392 230.363 169.424 230.377C169.492 230.407 169.56 230.438 169.627 230.471C169.758 230.536 169.887 230.607 170.013 230.681C170.075 230.718 170.136 230.756 170.196 230.795C170.222 230.812 170.248 230.83 170.274 230.847C170.346 230.893 170.138 230.748 170.261 230.838C170.385 230.929 170.507 231.023 170.624 231.122C170.864 231.327 171.088 231.546 171.295 231.779C171.312 231.798 171.409 231.911 171.328 231.815C171.246 231.719 171.341 231.832 171.359 231.853C171.414 231.919 171.468 231.986 171.52 232.054C171.624 232.187 171.723 232.323 171.818 232.462C172.011 232.744 172.187 233.036 172.346 233.335C172.386 233.41 172.425 233.486 172.463 233.562C172.482 233.6 172.501 233.639 172.52 233.677C172.594 233.828 172.477 233.584 172.522 233.681C172.55 233.741 172.578 233.801 172.606 233.86C172.643 233.938 172.543 233.719 172.577 233.798C172.594 233.838 172.613 233.877 172.631 233.916C172.666 233.995 172.7 234.075 172.734 234.155C173.013 234.826 173.22 235.52 173.352 236.226C173.368 236.313 173.382 236.4 173.397 236.488C173.422 236.637 173.379 236.356 173.395 236.475C173.402 236.525 173.409 236.575 173.416 236.626C173.439 236.807 173.456 236.989 173.469 237.171C173.493 237.528 173.496 237.887 173.487 238.244C173.482 238.425 173.471 238.605 173.454 238.785C173.447 238.866 173.438 238.946 173.428 239.026C173.423 239.069 173.416 239.112 173.411 239.155C173.401 239.239 173.435 239.009 173.42 239.093C173.416 239.117 173.413 239.142 173.409 239.166C173.35 239.52 173.265 239.869 173.155 240.213C173.048 240.545 172.914 240.871 172.775 241.194C172.735 241.288 172.828 241.09 172.768 241.209C172.748 241.248 172.728 241.287 172.709 241.326C172.652 241.44 172.598 241.556 172.547 241.674C172.524 241.727 172.566 241.633 172.566 241.633C172.555 241.655 172.544 241.678 172.533 241.701C172.517 241.734 172.5 241.768 172.482 241.801C172.436 241.89 172.388 241.978 172.337 242.065C172.237 242.232 172.148 242.403 172.069 242.578C171.944 242.861 172.358 243.098 172.619 242.959C172.975 242.747 173.286 242.481 173.538 242.172C173.817 241.862 174.048 241.519 174.225 241.153C174.583 240.392 174.819 239.588 174.924 238.767C175.139 237.243 174.882 235.646 174.347 234.193C173.839 232.813 173.036 231.476 171.886 230.442C170.92 229.575 169.611 228.906 168.204 229.011C167.482 229.066 166.788 229.288 166.189 229.656C165.468 230.119 164.865 230.715 164.421 231.404C164.288 231.599 164.165 231.799 164.047 232.002C163.838 232.366 164.378 232.624 164.641 232.315Z" fill="#FEBF3F"/>
<path d="M180.694 251.575C180.922 251.939 181.124 252.318 181.299 252.711C181.376 252.884 181.446 253.06 181.508 253.239C181.523 253.282 181.537 253.325 181.551 253.367C181.569 253.421 181.543 253.34 181.542 253.336C181.549 253.36 181.556 253.383 181.563 253.407C181.578 253.463 181.594 253.519 181.611 253.576C181.652 253.713 181.621 253.61 181.613 253.582C181.621 253.611 181.63 253.639 181.638 253.668C181.683 253.828 181.719 253.99 181.746 254.154C181.783 254.301 181.799 254.452 181.794 254.603C181.807 254.515 181.792 254.52 181.792 254.599C181.792 254.634 181.792 254.669 181.791 254.705C181.79 254.779 181.785 254.854 181.779 254.928C181.773 254.996 181.764 255.064 181.754 255.131C181.749 255.165 181.743 255.198 181.737 255.231C181.724 255.299 181.673 255.37 181.742 255.219C181.69 255.333 181.673 255.474 181.627 255.593C181.604 255.653 181.579 255.713 181.553 255.772C181.539 255.801 181.525 255.83 181.511 255.859C181.505 255.872 181.498 255.884 181.492 255.896C181.446 255.995 181.558 255.782 181.524 255.838C181.387 256.064 181.232 256.278 181.059 256.477C180.995 256.55 181.177 256.361 181.084 256.45C181.061 256.473 181.038 256.496 181.014 256.519C180.962 256.569 180.909 256.617 180.854 256.664C180.746 256.756 180.634 256.844 180.519 256.928C180.463 256.97 180.405 257.01 180.346 257.049C180.321 257.065 180.295 257.081 180.27 257.098C180.201 257.145 180.413 257.014 180.283 257.09C180.152 257.166 180.02 257.239 179.884 257.306C179.603 257.444 179.313 257.562 179.016 257.659C178.992 257.667 178.848 257.711 178.969 257.674C179.091 257.638 178.949 257.68 178.921 257.688C178.838 257.713 178.755 257.735 178.671 257.757C178.506 257.8 178.339 257.837 178.171 257.87C177.83 257.937 177.485 257.985 177.139 258.016C177.051 258.024 176.964 258.03 176.877 258.036C176.833 258.039 176.789 258.041 176.745 258.044C176.572 258.054 176.85 258.04 176.74 258.044C176.672 258.047 176.604 258.05 176.536 258.053C176.447 258.057 176.696 258.048 176.607 258.05C176.562 258.051 176.518 258.053 176.473 258.054C176.384 258.056 176.294 258.057 176.204 258.057C175.452 258.057 174.702 257.985 173.964 257.841C173.873 257.824 173.783 257.804 173.692 257.785C173.537 257.753 173.828 257.818 173.705 257.788C173.653 257.776 173.602 257.764 173.551 257.751C173.365 257.704 173.18 257.653 172.996 257.597C172.638 257.487 172.284 257.358 171.936 257.218C171.76 257.147 171.587 257.071 171.415 256.99C171.339 256.954 171.263 256.917 171.187 256.878C171.147 256.858 171.107 256.836 171.066 256.816C170.987 256.776 171.202 256.891 171.125 256.847C171.102 256.834 171.079 256.822 171.056 256.809C170.728 256.627 170.413 256.424 170.112 256.2C169.82 255.983 169.545 255.745 169.274 255.503C169.195 255.433 169.358 255.588 169.262 255.491C169.23 255.459 169.198 255.427 169.166 255.396C169.072 255.303 168.976 255.213 168.878 255.125C168.832 255.084 168.911 255.156 168.911 255.156C168.893 255.138 168.874 255.12 168.856 255.102C168.828 255.075 168.801 255.048 168.774 255.02C168.702 254.947 168.631 254.871 168.562 254.794C168.432 254.645 168.293 254.503 168.147 254.369C167.911 254.154 167.54 254.433 167.591 254.715C167.681 255.108 167.84 255.481 168.059 255.818C168.272 256.179 168.533 256.509 168.834 256.8C169.463 257.398 170.174 257.902 170.946 258.297C172.373 259.049 174.027 259.409 175.632 259.47C177.156 259.529 178.737 259.311 180.134 258.673C181.306 258.138 182.397 257.227 182.76 255.943C182.946 255.284 182.958 254.588 182.794 253.923C182.578 253.115 182.192 252.362 181.662 251.715C181.515 251.526 181.359 251.343 181.198 251.164C180.911 250.845 180.478 251.228 180.694 251.575Z" fill="#FEBF3F"/>
<path d="M132.366 233.094C131.46 234.088 131.093 235.48 131.019 236.795C130.925 238.242 131.183 239.691 131.77 241.017C132.082 241.694 132.538 242.296 133.105 242.78C133.672 243.265 134.338 243.62 135.055 243.822C136.496 244.214 138.056 243.926 139.373 243.268C140.128 242.887 140.83 242.411 141.462 241.85C141.762 241.577 142.04 241.281 142.292 240.963C142.559 240.654 142.788 240.314 142.973 239.95C142.998 239.904 143.006 239.85 142.995 239.798C142.984 239.747 142.955 239.701 142.914 239.669C142.872 239.637 142.82 239.62 142.768 239.623C142.715 239.625 142.665 239.646 142.627 239.682C142.112 240.089 141.628 240.527 141.109 240.914C140.865 241.096 140.579 241.318 140.291 241.511C140.002 241.705 139.703 241.883 139.395 242.045C139.246 242.124 139.095 242.198 138.942 242.268C138.912 242.281 138.745 242.355 138.831 242.318C138.735 242.359 138.637 242.397 138.54 242.435C138.236 242.558 137.925 242.659 137.607 242.74C137.46 242.777 137.311 242.808 137.16 242.834C137.111 242.842 137.061 242.85 137.011 242.857C137.033 242.854 137.119 242.846 137.009 242.857C136.926 242.865 136.843 242.874 136.76 242.88C136.594 242.891 136.428 242.895 136.262 242.89C136.195 242.888 136.129 242.885 136.063 242.88C136.022 242.877 135.98 242.873 135.939 242.869C135.914 242.867 135.738 242.843 135.864 242.862C135.548 242.815 135.238 242.735 134.938 242.623C134.906 242.611 134.874 242.598 134.842 242.585C134.935 242.622 134.83 242.58 134.808 242.569C134.736 242.537 134.665 242.502 134.595 242.466C134.435 242.384 134.279 242.293 134.128 242.195C133.832 242.001 133.559 241.773 133.316 241.515C133.265 241.463 133.217 241.409 133.17 241.352C133.17 241.352 133.083 241.244 133.131 241.306C133.18 241.368 133.095 241.256 133.095 241.256C133.008 241.137 132.927 241.013 132.852 240.887C132.782 240.769 132.716 240.648 132.655 240.525C132.62 240.456 132.586 240.385 132.554 240.314C132.541 240.285 132.529 240.256 132.516 240.227C132.453 240.085 132.549 240.317 132.492 240.17C132.375 239.871 132.274 239.565 132.19 239.254C131.85 237.951 131.814 236.588 132.085 235.269C132.201 234.649 132.454 234.063 132.826 233.554C132.884 233.492 132.917 233.409 132.917 233.324C132.917 233.238 132.884 233.156 132.826 233.094C132.764 233.034 132.682 233 132.596 233C132.51 233 132.428 233.034 132.366 233.094Z" fill="#FEBF3F"/>
<path d="M96.3662 246.094C95.4596 247.088 95.0928 248.48 95.0186 249.795C94.9254 251.242 95.183 252.691 95.7695 254.017C96.082 254.694 96.5376 255.296 97.1049 255.78C97.6722 256.265 98.3377 256.62 99.0555 256.822C100.496 257.214 102.056 256.926 103.373 256.268C104.128 255.887 104.83 255.411 105.462 254.85C105.762 254.577 106.04 254.281 106.292 253.963C106.559 253.654 106.788 253.314 106.973 252.95C106.998 252.904 107.006 252.85 106.995 252.798C106.984 252.747 106.955 252.701 106.914 252.669C106.872 252.637 106.82 252.62 106.768 252.623C106.715 252.625 106.665 252.646 106.627 252.682C106.112 253.089 105.628 253.527 105.109 253.914C104.865 254.096 104.579 254.318 104.291 254.511C104.002 254.705 103.703 254.883 103.395 255.045C103.246 255.124 103.095 255.198 102.942 255.268C102.912 255.281 102.745 255.355 102.831 255.318C102.735 255.359 102.637 255.397 102.54 255.435C102.236 255.558 101.925 255.659 101.607 255.74C101.46 255.777 101.311 255.808 101.16 255.834C101.111 255.842 101.061 255.85 101.011 255.857C101.033 255.854 101.119 255.846 101.009 255.857C100.926 255.865 100.843 255.874 100.76 255.88C100.594 255.891 100.428 255.895 100.262 255.89C100.195 255.888 100.129 255.885 100.063 255.88C100.022 255.877 99.9804 255.873 99.9392 255.869C99.9141 255.867 99.7384 255.843 99.864 255.862C99.5479 255.815 99.2376 255.735 98.9383 255.623C98.9062 255.611 98.8743 255.598 98.8425 255.585C98.9348 255.622 98.8299 255.58 98.8075 255.569C98.7357 255.537 98.6648 255.502 98.5948 255.466C98.4346 255.384 98.2787 255.293 98.1276 255.195C97.8316 255.001 97.5594 254.773 97.3163 254.515C97.2652 254.463 97.2165 254.409 97.1698 254.352C97.1695 254.352 97.0831 254.244 97.1314 254.306C97.18 254.368 97.0945 254.256 97.0946 254.256C97.008 254.137 96.9274 254.013 96.8521 253.887C96.7819 253.769 96.7161 253.648 96.655 253.525C96.62 253.456 96.5865 253.385 96.5542 253.314C96.5412 253.285 96.5285 253.256 96.5157 253.227C96.4527 253.085 96.5488 253.317 96.4921 253.17C96.3745 252.871 96.2737 252.565 96.19 252.254C95.85 250.951 95.8139 249.588 96.0846 248.269C96.2013 247.649 96.4545 247.063 96.8258 246.554C96.8843 246.492 96.9169 246.409 96.9169 246.324C96.9169 246.238 96.8843 246.156 96.8258 246.094C96.7644 246.034 96.6819 246 96.596 246C96.5101 246 96.4276 246.034 96.3662 246.094Z" fill="#FEBF3F"/>
<path d="M141.478 227.999C141.806 227.488 142.041 226.921 142.363 226.401C142.426 226.299 142.493 226.201 142.562 226.104C142.492 226.203 142.605 226.05 142.625 226.026C142.663 225.979 142.703 225.933 142.743 225.888C142.814 225.81 142.887 225.736 142.964 225.665C143.005 225.627 143.049 225.592 143.091 225.554C143.156 225.496 143.075 225.567 143.065 225.574C143.091 225.555 143.117 225.535 143.143 225.516C143.223 225.458 143.307 225.405 143.394 225.356C143.434 225.333 143.474 225.311 143.515 225.291C143.538 225.28 143.561 225.27 143.583 225.258C143.629 225.233 143.46 225.306 143.569 225.265C143.747 225.197 143.93 225.145 144.116 225.108C144.257 225.081 144.011 225.115 144.133 225.106C144.176 225.103 144.219 225.098 144.263 225.095C144.359 225.09 144.457 225.09 144.553 225.095C144.602 225.097 144.651 225.102 144.7 225.106C144.84 225.119 144.601 225.087 144.72 225.108C144.819 225.126 144.917 225.145 145.014 225.171C145.108 225.196 145.201 225.224 145.293 225.257C145.332 225.271 145.372 225.285 145.41 225.301C145.435 225.31 145.459 225.322 145.484 225.33C145.51 225.34 145.37 225.276 145.487 225.332C145.675 225.421 145.858 225.522 146.034 225.633C146.12 225.689 146.205 225.747 146.288 225.807C146.335 225.842 146.38 225.877 146.427 225.912C146.316 225.829 146.439 225.923 146.482 225.959C146.662 226.111 146.834 226.274 146.996 226.446C147.166 226.625 147.323 226.814 147.475 227.01C147.493 227.033 147.534 227.095 147.459 226.989C147.474 227.01 147.49 227.031 147.505 227.052C147.543 227.104 147.581 227.158 147.617 227.212C147.692 227.32 147.764 227.431 147.832 227.544C147.966 227.762 148.088 227.987 148.2 228.218C148.257 228.335 148.31 228.454 148.362 228.573C148.376 228.604 148.413 228.697 148.362 228.571C148.373 228.596 148.383 228.622 148.393 228.648C148.421 228.719 148.448 228.79 148.474 228.862C148.652 229.377 148.787 229.906 148.877 230.445C148.889 230.515 148.901 230.586 148.912 230.657C148.92 230.706 148.936 230.849 148.922 230.724C148.942 230.902 148.964 231.078 148.996 231.254C149.009 231.324 149.021 231.395 149.031 231.465C149.035 231.493 149.039 231.521 149.043 231.55C149.026 231.428 149.058 231.636 149.07 231.674C149.1 231.782 149.169 231.874 149.262 231.933C149.355 231.992 149.465 232.013 149.573 231.992C149.964 231.879 149.963 231.371 149.995 231.029C150.009 230.754 149.994 230.479 149.952 230.208C149.879 229.622 149.735 229.048 149.522 228.5C148.814 226.628 147.421 224.779 145.489 224.166C145.076 224.027 144.639 223.974 144.206 224.012C143.773 224.049 143.351 224.177 142.966 224.386C142.57 224.617 142.222 224.927 141.942 225.297C141.768 225.522 141.612 225.761 141.477 226.013C141.438 226.088 141.402 226.165 141.371 226.243C141.414 226.138 141.306 226.401 141.29 226.443C141.235 226.586 141.186 226.73 141.141 226.876C141.039 227.195 140.991 227.53 141.001 227.866C141.003 227.923 141.022 227.978 141.057 228.023C141.091 228.068 141.138 228.1 141.192 228.115C141.245 228.13 141.302 228.126 141.353 228.106C141.405 228.085 141.448 228.047 141.478 227.999Z" fill="#FEBF3F"/>
<path d="M127.418 254.487C127.217 255.088 127.127 255.721 126.935 256.329C126.897 256.449 126.854 256.566 126.809 256.682C126.855 256.563 126.779 256.748 126.765 256.777C126.738 256.835 126.71 256.891 126.68 256.948C126.629 257.045 126.573 257.14 126.513 257.232C126.48 257.281 126.445 257.328 126.412 257.377C126.36 257.453 126.425 257.36 126.433 257.35C126.411 257.376 126.39 257.403 126.368 257.43C126.301 257.51 126.229 257.587 126.153 257.66C126.118 257.693 126.082 257.726 126.045 257.758C126.025 257.775 126.003 257.791 125.984 257.809C125.943 257.848 126.098 257.728 125.997 257.799C125.832 257.916 125.657 258.019 125.475 258.106C125.337 258.173 125.582 258.071 125.458 258.114C125.414 258.129 125.371 258.146 125.327 258.16C125.229 258.192 125.129 258.219 125.028 258.241C124.977 258.252 124.925 258.26 124.874 258.269C124.726 258.296 124.981 258.262 124.853 258.273C124.746 258.282 124.64 258.29 124.533 258.292C124.429 258.293 124.326 258.29 124.222 258.283C124.178 258.28 124.134 258.276 124.09 258.271C124.062 258.269 124.034 258.264 124.006 258.262C123.976 258.26 124.138 258.285 124.002 258.261C123.785 258.224 123.569 258.174 123.358 258.111C123.254 258.079 123.151 258.045 123.05 258.007C122.992 257.986 122.936 257.962 122.879 257.94C123.015 257.993 122.863 257.933 122.809 257.909C122.583 257.807 122.362 257.691 122.149 257.564C121.926 257.431 121.713 257.286 121.505 257.132C121.48 257.114 121.421 257.063 121.526 257.149C121.505 257.132 121.484 257.115 121.462 257.099C121.409 257.056 121.356 257.013 121.304 256.97C121.198 256.881 121.094 256.79 120.993 256.697C120.797 256.515 120.611 256.324 120.433 256.124C120.343 256.023 120.257 255.918 120.171 255.814C120.149 255.786 120.086 255.704 120.172 255.816C120.154 255.793 120.137 255.77 120.12 255.747C120.072 255.684 120.025 255.62 119.979 255.555C119.657 255.09 119.377 254.597 119.14 254.084C119.108 254.017 119.077 253.949 119.046 253.881C119.026 253.834 118.97 253.696 119.018 253.817C118.949 253.645 118.88 253.474 118.8 253.307C118.768 253.241 118.737 253.174 118.707 253.106C118.695 253.079 118.684 253.052 118.672 253.025C118.722 253.142 118.634 252.942 118.611 252.908C118.551 252.808 118.456 252.735 118.344 252.702C118.233 252.668 118.113 252.678 118.008 252.728C117.635 252.95 117.772 253.457 117.831 253.808C117.89 254.087 117.979 254.358 118.095 254.617C118.328 255.183 118.63 255.717 118.996 256.207C120.227 257.884 122.158 259.349 124.313 259.427C124.776 259.453 125.24 259.385 125.676 259.228C126.113 259.071 126.513 258.827 126.853 258.512C127.2 258.171 127.475 257.765 127.664 257.318C127.783 257.045 127.88 256.762 127.951 256.473C127.972 256.387 127.988 256.301 127.999 256.214C127.983 256.331 128.023 256.038 128.029 255.991C128.047 255.834 128.06 255.676 128.066 255.517C128.086 255.17 128.045 254.821 127.945 254.488C127.928 254.432 127.893 254.382 127.846 254.347C127.799 254.312 127.741 254.292 127.682 254.292C127.623 254.292 127.566 254.311 127.518 254.346C127.471 254.381 127.436 254.43 127.418 254.487Z" fill="#FEBF3F"/>
<path d="M117.557 238.909C117.615 238.818 117.662 238.721 117.695 238.62C117.719 238.524 117.742 238.426 117.761 238.329C117.794 238.158 117.778 238.22 117.771 238.26C117.775 238.237 117.779 238.214 117.783 238.191C117.792 238.139 117.802 238.088 117.813 238.037C117.834 237.942 117.858 237.848 117.886 237.754C117.945 237.567 118.016 237.382 118.096 237.202C118.138 237.104 118.072 237.246 118.12 237.151C118.139 237.112 118.159 237.072 118.179 237.033C118.225 236.946 118.274 236.86 118.326 236.777C118.372 236.703 118.421 236.63 118.472 236.559C118.5 236.519 118.53 236.48 118.559 236.441C118.575 236.421 118.66 236.318 118.625 236.359C118.584 236.407 118.673 236.304 118.684 236.293C118.712 236.261 118.742 236.229 118.771 236.198C118.838 236.128 118.907 236.06 118.979 235.995C119.046 235.933 119.116 235.873 119.187 235.816C119.22 235.789 119.254 235.762 119.288 235.736C119.305 235.723 119.323 235.711 119.34 235.698C119.409 235.644 119.283 235.736 119.332 235.703C119.48 235.601 119.634 235.506 119.794 235.419C119.873 235.377 119.953 235.337 120.035 235.299C120.074 235.282 120.112 235.265 120.151 235.248C120.17 235.24 120.19 235.232 120.209 235.224C120.298 235.184 120.106 235.26 120.205 235.225C120.371 235.166 120.538 235.11 120.709 235.066C120.789 235.046 120.869 235.028 120.95 235.012C120.99 235.004 121.03 234.997 121.07 234.991C121.126 234.982 121.259 234.932 121.115 234.983C121.282 234.948 121.455 234.94 121.625 234.959C121.705 234.961 121.783 234.968 121.863 234.974C122.001 234.984 121.786 234.959 121.872 234.974C121.921 234.982 121.969 234.988 122.018 234.997C122.181 235.032 122.341 235.075 122.498 235.128C122.573 235.152 122.395 235.082 122.511 235.133C122.547 235.149 122.583 235.164 122.618 235.181C122.698 235.219 122.776 235.26 122.852 235.305C122.886 235.326 122.92 235.347 122.953 235.368C123.004 235.401 123.054 235.442 122.971 235.378C123.043 235.434 123.115 235.489 123.183 235.55C123.257 235.615 123.326 235.685 123.392 235.757C123.41 235.777 123.427 235.797 123.445 235.816C123.505 235.883 123.401 235.755 123.435 235.805C123.462 235.845 123.495 235.882 123.523 235.921C123.652 236.098 123.766 236.283 123.865 236.476C123.875 236.498 123.885 236.52 123.897 236.541C123.946 236.636 123.867 236.473 123.908 236.565C123.945 236.647 123.986 236.726 124.026 236.807C124.037 236.83 124.048 236.853 124.059 236.876C124.021 236.796 124.077 236.916 124.083 236.93C124.102 236.971 124.121 237.01 124.14 237.05C124.146 237.061 124.152 237.072 124.156 237.083C124.273 237.347 124.333 237.637 124.476 237.889C124.502 237.928 124.54 237.959 124.585 237.979C124.629 237.998 124.679 238.006 124.728 238C124.777 237.994 124.823 237.975 124.861 237.945C124.898 237.916 124.926 237.876 124.94 237.833C125.003 237.565 125.017 237.29 124.979 237.019C124.97 236.764 124.925 236.512 124.845 236.268C124.689 235.826 124.441 235.418 124.115 235.065C123.552 234.472 122.768 234.1 121.922 234.022C120.235 233.841 118.579 234.793 117.695 236.082C117.418 236.479 117.22 236.919 117.109 237.38C117.053 237.626 117.018 237.876 117.004 238.128C116.981 238.402 117.052 238.676 117.208 238.909C117.227 238.937 117.252 238.96 117.283 238.976C117.313 238.992 117.348 239 117.383 239C117.418 239 117.452 238.992 117.483 238.976C117.513 238.96 117.539 238.937 117.557 238.909Z" fill="#FEBF3F"/>
<path d="M123.406 239.618C123.582 239.392 123.778 239.18 123.992 238.984C124.086 238.895 124.172 238.8 124.269 238.713C124.321 238.666 124.374 238.621 124.428 238.578C124.45 238.56 124.471 238.544 124.493 238.527C124.499 238.522 124.608 238.444 124.53 238.498C124.726 238.359 124.936 238.238 125.158 238.137C125.18 238.127 125.203 238.118 125.225 238.108C125.334 238.058 125.151 238.133 125.223 238.109C125.273 238.092 125.323 238.074 125.375 238.059C125.487 238.029 125.601 238.003 125.716 237.984C125.798 237.968 125.609 237.989 125.745 237.982C125.801 237.979 125.857 237.975 125.914 237.974C125.958 237.973 126.003 237.973 126.048 237.974C126.076 237.975 126.103 237.977 126.131 237.978C126.151 237.98 126.273 237.992 126.176 237.981C126.082 237.97 126.24 237.992 126.268 237.998C126.323 238.009 126.377 238.022 126.43 238.036C126.473 238.048 126.514 238.065 126.557 238.076C126.667 238.106 126.472 238.035 126.537 238.068C126.567 238.082 126.6 238.094 126.63 238.108C126.722 238.153 126.812 238.202 126.898 238.256C127.003 238.318 126.83 238.195 126.944 238.288C126.991 238.325 127.037 238.362 127.081 238.401C127.126 238.441 127.17 238.483 127.212 238.527C127.229 238.545 127.246 238.563 127.262 238.581C127.267 238.586 127.347 238.679 127.293 238.615C127.249 238.561 127.352 238.692 127.368 238.714C127.407 238.768 127.444 238.822 127.479 238.878C127.519 238.942 127.556 239.007 127.591 239.073C127.608 239.104 127.623 239.135 127.639 239.166C127.69 239.264 127.609 239.088 127.655 239.201C127.713 239.342 127.764 239.483 127.81 239.627C127.925 239.987 128.048 240.346 128.138 240.712C128.166 240.804 128.229 240.884 128.316 240.936C128.403 240.988 128.508 241.01 128.611 240.996C128.714 240.983 128.808 240.936 128.877 240.865C128.945 240.793 128.984 240.702 128.986 240.606C129.052 239.879 128.889 239.15 128.517 238.505C128.239 238.003 127.811 237.585 127.284 237.298C126.242 236.762 124.985 236.981 124.109 237.693C123.851 237.912 123.625 238.16 123.439 238.433C123.237 238.753 123.091 239.101 123.006 239.463C122.994 239.509 123 239.558 123.024 239.601C123.047 239.644 123.086 239.678 123.135 239.696C123.183 239.715 123.236 239.717 123.286 239.703C123.336 239.688 123.379 239.658 123.406 239.618Z" fill="#FEBF3F"/>
<path d="M127.035 234.651C127.021 234.559 127.009 234.45 127 234.35C126.993 234.277 126.985 234.205 126.971 234.132C126.951 234.022 126.977 234.179 126.968 234.114C126.963 234.076 126.958 234.039 126.954 234.001C126.939 233.812 126.935 233.624 126.943 233.435C126.944 233.355 126.952 233.275 126.958 233.195C126.963 233.105 126.935 233.281 126.953 233.225C126.958 233.204 126.962 233.184 126.964 233.163C126.972 233.124 126.981 233.084 126.992 233.045C127.011 232.973 127.038 232.904 127.064 232.835C127.099 232.744 127.011 232.925 127.068 232.829C127.091 232.79 127.111 232.751 127.135 232.713C127.151 232.688 127.168 232.663 127.185 232.639C127.198 232.622 127.213 232.605 127.225 232.586C127.258 232.538 127.196 232.603 127.19 232.627C127.203 232.577 127.306 232.505 127.346 232.47C127.374 232.445 127.404 232.423 127.432 232.399C127.518 232.327 127.361 232.441 127.423 232.404C127.49 232.364 127.553 232.321 127.623 232.285C127.673 232.259 127.809 232.223 127.842 232.184C127.84 232.186 127.716 232.229 127.79 232.204C127.806 232.198 127.821 232.192 127.837 232.187C127.885 232.17 127.933 232.154 127.982 232.14C128.145 232.092 128.312 232.055 128.481 232.03C128.499 232.027 128.518 232.025 128.536 232.022C128.631 232.008 128.555 231.992 128.511 232.025C128.532 232.009 128.598 232.015 128.625 232.013C128.728 232.003 128.832 231.997 128.935 231.993C129.137 231.986 129.34 231.988 129.542 231.998C129.639 232.003 129.736 232.01 129.833 232.018C129.887 232.023 129.942 232.028 129.997 232.034C130.047 232.039 130.222 232.04 130.051 232.039C130.272 232.055 130.492 232.09 130.706 232.143C131.149 232.229 131.587 232.336 132.017 232.465C132.236 232.531 132.453 232.601 132.668 232.678C132.775 232.708 132.878 232.746 132.978 232.792C132.97 232.788 132.847 232.741 132.937 232.776C132.963 232.787 132.99 232.797 133.016 232.808C133.074 232.831 133.132 232.855 133.19 232.879C133.618 233.061 134.034 233.264 134.437 233.489C134.623 233.592 134.814 233.688 134.999 233.792C135.184 233.896 135.388 233.969 135.601 234.007C135.654 234.02 135.711 234.019 135.764 234.005C135.818 233.992 135.867 233.966 135.906 233.929C135.945 233.893 135.974 233.848 135.988 233.799C136.003 233.749 136.004 233.697 135.99 233.647C135.945 233.432 135.832 233.234 135.665 233.079C135.504 232.924 135.329 232.783 135.142 232.657C134.779 232.423 134.393 232.22 133.991 232.05C133.099 231.658 132.158 231.368 131.19 231.188C129.643 230.91 127.398 230.752 126.376 232.129C125.761 232.957 125.974 234.048 126.487 234.865C126.524 234.922 126.582 234.965 126.651 234.986C126.72 235.007 126.795 235.004 126.861 234.978C126.927 234.951 126.981 234.904 127.013 234.844C127.044 234.784 127.052 234.716 127.035 234.651Z" fill="#FEBF3F"/>
<path d="M126.474 225.898C126.476 225.821 126.485 225.744 126.498 225.668C126.504 225.642 126.511 225.616 126.52 225.592L126.526 225.582C126.498 225.623 126.507 225.611 126.555 225.546C126.571 225.508 126.584 225.468 126.594 225.428C126.605 225.396 126.616 225.363 126.627 225.331C126.633 225.315 126.639 225.299 126.645 225.283C126.609 225.379 126.656 225.261 126.668 225.223C126.693 225.145 126.712 225.067 126.738 224.99C126.774 224.885 126.715 225.03 126.753 224.953C126.771 224.92 126.785 224.885 126.803 224.851C126.842 224.776 126.886 224.704 126.934 224.634C126.953 224.607 127.023 224.52 126.943 224.618C126.967 224.588 126.991 224.558 127.016 224.529C127.069 224.466 127.125 224.404 127.181 224.343C127.236 224.283 127.293 224.226 127.352 224.172C127.383 224.144 127.414 224.117 127.445 224.09C127.463 224.074 127.481 224.06 127.499 224.045C127.469 224.071 127.422 224.103 127.481 224.06C127.624 223.954 127.773 223.856 127.928 223.768C128.006 223.724 128.087 223.682 128.168 223.643C128.205 223.626 128.243 223.609 128.28 223.592C128.376 223.546 128.193 223.626 128.259 223.6C128.288 223.589 128.316 223.576 128.345 223.565C128.528 223.491 128.714 223.425 128.902 223.367C129.098 223.308 129.297 223.258 129.498 223.218C129.593 223.199 129.688 223.182 129.783 223.167C129.811 223.163 129.84 223.159 129.868 223.154C129.945 223.142 129.729 223.169 129.847 223.158C129.904 223.152 129.961 223.144 130.018 223.138C130.449 223.095 130.883 223.092 131.315 223.129C131.421 223.134 131.527 223.145 131.632 223.164C131.514 223.137 131.596 223.159 131.662 223.17C131.72 223.179 131.779 223.19 131.837 223.201C132.056 223.242 132.274 223.295 132.488 223.36C132.689 223.421 132.888 223.494 133.084 223.571C133.116 223.584 133.304 223.667 133.145 223.594C133.188 223.614 133.23 223.632 133.272 223.652C133.377 223.702 133.48 223.755 133.582 223.812C133.683 223.869 133.781 223.929 133.878 223.993C133.926 224.025 133.974 224.058 134.021 224.092C134.044 224.109 134.067 224.126 134.09 224.143C134.104 224.153 134.2 224.229 134.133 224.176C134.064 224.12 134.154 224.193 134.162 224.2C134.184 224.219 134.206 224.237 134.228 224.257C134.276 224.299 134.324 224.342 134.37 224.386C134.455 224.467 134.535 224.552 134.619 224.634C134.706 224.721 134.791 224.811 134.871 224.906C134.914 224.955 134.954 225.006 134.994 225.058C134.932 224.978 135.039 225.122 135.054 225.144C135.125 225.246 135.183 225.357 135.251 225.46C135.335 225.585 135.446 225.693 135.537 225.813C135.686 226.007 136.004 225.84 136 225.616C136.001 225.474 135.991 225.331 135.968 225.19C135.932 225.046 135.882 224.906 135.817 224.773C135.523 224.058 135.024 223.451 134.386 223.033C133.569 222.445 132.615 222.16 131.632 222.048C129.937 221.855 127.854 222.226 126.642 223.561C126.345 223.883 126.138 224.282 126.043 224.714C125.99 224.936 125.986 225.168 126.031 225.392C126.057 225.493 126.1 225.59 126.158 225.677C126.2 225.769 126.237 225.861 126.284 225.951C126.296 225.97 126.313 225.984 126.334 225.993C126.354 226.001 126.377 226.002 126.398 225.996C126.419 225.99 126.438 225.978 126.452 225.96C126.465 225.942 126.473 225.921 126.474 225.898Z" fill="#FEBF3F"/>
<path d="M140.174 253.858C140.191 253.933 140.203 254.01 140.21 254.088C140.211 254.114 140.21 254.141 140.208 254.167L140.204 254.178C140.222 254.131 140.215 254.145 140.185 254.22C140.179 254.262 140.176 254.303 140.176 254.345C140.174 254.379 140.172 254.414 140.169 254.448C140.168 254.465 140.165 254.482 140.164 254.5C140.175 254.396 140.158 254.523 140.156 254.564C140.152 254.645 140.153 254.726 140.147 254.808C140.139 254.919 140.16 254.763 140.142 254.848C140.133 254.885 140.128 254.922 140.119 254.959C140.099 255.042 140.075 255.125 140.045 255.205C140.034 255.236 139.986 255.339 140.04 255.223C140.024 255.258 140.009 255.293 139.991 255.328C139.954 255.404 139.915 255.478 139.875 255.552C139.837 255.625 139.795 255.695 139.75 255.764C139.727 255.799 139.703 255.834 139.679 255.868C139.665 255.888 139.651 255.906 139.637 255.925C139.66 255.893 139.699 255.849 139.651 255.906C139.537 256.047 139.414 256.181 139.283 256.308C139.217 256.371 139.148 256.433 139.077 256.493C139.045 256.52 139.012 256.546 138.98 256.572C138.896 256.643 139.057 256.516 138.998 256.559C138.972 256.577 138.947 256.597 138.922 256.616C138.759 256.736 138.592 256.85 138.42 256.955C138.24 257.065 138.056 257.167 137.867 257.259C137.778 257.303 137.688 257.344 137.597 257.384C137.57 257.396 137.543 257.407 137.516 257.419C137.443 257.451 137.65 257.367 137.536 257.41C137.481 257.431 137.426 257.453 137.371 257.474C136.954 257.63 136.524 257.749 136.086 257.828C135.979 257.852 135.871 257.869 135.762 257.878C135.886 257.873 135.799 257.873 135.73 257.881C135.67 257.887 135.61 257.893 135.55 257.898C135.321 257.916 135.091 257.922 134.861 257.916C134.646 257.911 134.43 257.893 134.215 257.871C134.179 257.867 133.972 257.836 134.148 257.864C134.101 257.857 134.054 257.85 134.007 257.842C133.89 257.822 133.773 257.798 133.658 257.77C133.543 257.742 133.429 257.709 133.317 257.673C133.261 257.655 133.205 257.636 133.15 257.615C133.122 257.605 133.094 257.595 133.067 257.584C133.051 257.578 132.935 257.53 133.016 257.564C133.099 257.6 132.991 257.552 132.981 257.548C132.955 257.536 132.928 257.524 132.901 257.511C132.842 257.483 132.784 257.454 132.726 257.423C132.621 257.367 132.519 257.306 132.415 257.249C132.305 257.188 132.198 257.123 132.094 257.053C132.039 257.016 131.985 256.978 131.932 256.939C132.015 257 131.87 256.888 131.85 256.871C131.754 256.791 131.668 256.699 131.572 256.618C131.457 256.519 131.319 256.443 131.197 256.352C130.999 256.203 130.726 256.45 130.789 256.665C130.824 256.804 130.872 256.94 130.931 257.07C131.004 257.2 131.091 257.322 131.189 257.434C131.666 258.048 132.32 258.503 133.062 258.738C134.025 259.091 135.047 259.113 136.052 258.96C137.785 258.696 139.757 257.782 140.613 256.167C140.825 255.775 140.927 255.334 140.909 254.89C140.904 254.661 140.848 254.436 140.746 254.231C140.693 254.139 140.625 254.057 140.545 253.988C140.48 253.91 140.419 253.83 140.349 253.757C140.332 253.741 140.311 253.731 140.288 253.729C140.266 253.726 140.243 253.731 140.224 253.743C140.204 253.754 140.189 253.771 140.18 253.792C140.171 253.813 140.169 253.836 140.174 253.858Z" fill="#FEBF3F"/>
<path d="M166.411 254.678C166.428 254.753 166.44 254.83 166.446 254.907C166.447 254.934 166.447 254.96 166.444 254.987L166.441 254.998C166.458 254.951 166.452 254.965 166.421 255.04C166.415 255.082 166.413 255.123 166.413 255.165C166.411 255.199 166.408 255.234 166.406 255.268C166.404 255.285 166.402 255.302 166.4 255.319C166.411 255.216 166.395 255.343 166.393 255.384C166.388 255.465 166.389 255.546 166.383 255.628C166.376 255.738 166.397 255.583 166.378 255.667C166.37 255.705 166.364 255.742 166.355 255.779C166.336 255.862 166.311 255.944 166.282 256.025C166.27 256.056 166.222 256.159 166.277 256.042C166.26 256.078 166.245 256.113 166.228 256.148C166.191 256.223 166.151 256.298 166.112 256.372C166.073 256.444 166.031 256.515 165.986 256.584C165.963 256.619 165.939 256.653 165.915 256.688C165.902 256.707 165.887 256.726 165.874 256.745C165.896 256.713 165.935 256.669 165.888 256.726C165.773 256.867 165.65 257.001 165.52 257.128C165.453 257.191 165.384 257.253 165.313 257.312C165.281 257.34 165.248 257.365 165.216 257.392C165.132 257.463 165.294 257.336 165.234 257.378C165.209 257.397 165.184 257.417 165.158 257.436C164.996 257.555 164.828 257.669 164.656 257.775C164.477 257.885 164.292 257.987 164.103 258.079C164.014 258.122 163.924 258.164 163.834 258.204C163.807 258.215 163.779 258.226 163.753 258.238C163.679 258.271 163.886 258.187 163.773 258.23C163.717 258.25 163.663 258.273 163.607 258.294C163.191 258.45 162.76 258.569 162.322 258.648C162.215 258.672 162.107 258.688 161.998 258.698C162.122 258.693 162.036 258.693 161.967 258.701C161.907 258.707 161.846 258.713 161.786 258.717C161.557 258.736 161.327 258.742 161.098 258.736C160.882 258.731 160.666 258.713 160.452 258.69C160.416 258.687 160.208 258.656 160.384 258.684C160.337 258.677 160.29 258.67 160.243 258.662C160.126 258.642 160.01 258.618 159.894 258.589C159.779 258.561 159.666 258.529 159.553 258.493C159.497 258.475 159.441 258.455 159.386 258.435C159.358 258.425 159.331 258.415 159.303 258.404C159.287 258.398 159.172 258.35 159.252 258.384C159.335 258.419 159.227 258.372 159.218 258.368C159.191 258.356 159.164 258.343 159.137 258.331C159.078 258.303 159.02 258.274 158.962 258.243C158.857 258.187 158.755 258.126 158.651 258.069C158.542 258.008 158.434 257.943 158.33 257.873C158.275 257.836 158.221 257.798 158.168 257.758C158.251 257.82 158.107 257.708 158.087 257.691C157.99 257.611 157.904 257.519 157.809 257.438C157.693 257.339 157.555 257.263 157.433 257.172C157.235 257.023 156.963 257.27 157.025 257.485C157.06 257.624 157.108 257.759 157.167 257.89C157.24 258.02 157.327 258.142 157.425 258.253C157.903 258.868 158.556 259.323 159.298 259.558C160.261 259.91 161.283 259.933 162.288 259.78C164.022 259.516 165.993 258.602 166.85 256.986C167.061 256.595 167.164 256.154 167.146 255.71C167.14 255.481 167.084 255.255 166.982 255.05C166.929 254.959 166.861 254.877 166.781 254.808C166.716 254.73 166.655 254.65 166.585 254.576C166.568 254.561 166.547 254.551 166.525 254.549C166.502 254.546 166.48 254.551 166.46 254.562C166.441 254.574 166.425 254.591 166.416 254.612C166.407 254.633 166.405 254.656 166.411 254.678Z" fill="#FEBF3F"/>
<path d="M153.461 229.282C153.694 229.156 153.943 229.063 154.199 229.007C154.293 228.989 154.388 228.979 154.483 228.979C154.542 228.978 154.602 228.98 154.662 228.984C154.691 228.986 154.72 228.989 154.75 228.992C154.702 228.987 154.713 228.985 154.754 228.994C154.866 229.018 154.98 229.04 155.09 229.072C155.139 229.086 155.187 229.102 155.235 229.12C155.262 229.13 155.289 229.141 155.316 229.152C155.39 229.182 155.211 229.095 155.333 229.161C155.425 229.21 155.517 229.259 155.605 229.316C155.656 229.35 155.706 229.385 155.755 229.422C155.78 229.44 155.805 229.459 155.829 229.479C155.768 229.43 155.81 229.462 155.846 229.494C156.035 229.664 156.214 229.847 156.382 230.041C156.467 230.14 156.548 230.242 156.626 230.347C156.667 230.401 156.622 230.342 156.616 230.333C156.637 230.362 156.657 230.392 156.678 230.421C156.724 230.488 156.769 230.556 156.813 230.625C156.968 230.869 157.11 231.121 157.24 231.38C157.304 231.508 157.365 231.637 157.424 231.768C157.451 231.829 157.478 231.89 157.504 231.952C157.519 231.987 157.533 232.023 157.548 232.058C157.62 232.227 157.526 232 157.565 232.098C157.609 232.209 157.655 232.319 157.701 232.428C157.716 232.463 157.731 232.498 157.745 232.533C157.786 232.629 157.74 232.517 157.763 232.576C157.833 232.753 157.903 232.927 157.984 233.098C158.052 233.241 158.105 233.401 158.183 233.537C158.271 233.671 158.368 233.798 158.472 233.919C158.505 233.953 158.547 233.978 158.592 233.991C158.637 234.003 158.685 234.003 158.73 233.991C158.775 233.978 158.816 233.953 158.85 233.919C158.883 233.884 158.908 233.841 158.92 233.794C158.957 233.652 158.983 233.509 159 233.363C159.003 233.17 158.985 232.977 158.947 232.788C158.901 232.469 158.822 232.155 158.712 231.854C158.483 231.213 158.182 230.604 157.816 230.038C157.173 229.043 156.176 227.994 154.946 228C154.263 228.029 153.61 228.307 153.099 228.786C152.825 229.024 153.174 229.437 153.461 229.282Z" fill="#FEBF3F"/>
<path d="M114.744 256.014C114.559 256.182 114.353 256.323 114.13 256.435C114.048 256.474 113.963 256.506 113.876 256.529C113.821 256.545 113.766 256.558 113.71 256.569C113.683 256.574 113.655 256.579 113.627 256.583C113.672 256.576 113.662 256.581 113.623 256.583C113.514 256.59 113.405 256.599 113.296 256.598C113.248 256.598 113.2 256.596 113.152 256.592C113.124 256.59 113.097 256.587 113.07 256.584C112.995 256.577 113.18 256.608 113.052 256.581C112.956 256.56 112.86 256.541 112.766 256.512C112.711 256.496 112.657 256.478 112.603 256.458C112.576 256.448 112.549 256.437 112.522 256.427C112.589 256.453 112.544 256.436 112.503 256.417C112.289 256.316 112.082 256.201 111.883 256.073C111.782 256.008 111.683 255.939 111.587 255.867C111.537 255.83 111.592 255.871 111.6 255.877C111.574 255.856 111.548 255.836 111.522 255.815C111.464 255.768 111.407 255.72 111.35 255.671C111.151 255.498 110.961 255.314 110.782 255.12C110.693 255.024 110.607 254.927 110.523 254.828C110.483 254.781 110.445 254.735 110.406 254.687C110.384 254.66 110.362 254.633 110.341 254.606C110.236 254.477 110.375 254.65 110.316 254.575C110.249 254.49 110.182 254.405 110.114 254.322C110.092 254.295 110.071 254.268 110.049 254.241C109.989 254.168 110.057 254.254 110.023 254.209C109.917 254.072 109.812 253.937 109.698 253.808C109.602 253.701 109.516 253.575 109.413 253.476C109.3 253.381 109.182 253.294 109.058 253.215C109.019 253.193 108.975 253.182 108.931 253.182C108.886 253.182 108.843 253.194 108.804 253.216C108.766 253.238 108.733 253.27 108.711 253.308C108.688 253.346 108.676 253.39 108.675 253.434C108.675 253.566 108.684 253.697 108.702 253.828C108.744 253.997 108.805 254.16 108.885 254.315C109.002 254.582 109.147 254.835 109.319 255.07C109.679 255.571 110.097 256.027 110.565 256.429C111.388 257.136 112.549 257.804 113.678 257.495C114.299 257.302 114.834 256.9 115.192 256.356C115.389 256.082 114.972 255.809 114.744 256.014Z" fill="#FEBF3F"/>
<path d="M95.5039 220.198C95.5407 219.944 95.5984 219.697 95.6358 219.443C95.6705 219.208 95.7129 218.973 95.7646 218.741C95.8518 218.332 95.9679 217.929 96.112 217.538C96.1204 217.516 96.1292 217.494 96.1376 217.472C96.162 217.407 96.1027 217.554 96.1294 217.492C96.1473 217.45 96.1647 217.408 96.1831 217.367C96.2213 217.28 96.2623 217.196 96.3045 217.112C96.3827 216.956 96.46 216.8 96.5503 216.651C96.5896 216.586 96.6305 216.522 96.6731 216.46C96.6954 216.427 96.7193 216.396 96.7415 216.363C96.6472 216.502 96.741 216.366 96.7677 216.333C96.8622 216.215 96.9638 216.103 97.0718 215.999C97.1247 215.948 97.1797 215.899 97.235 215.851C97.3309 215.768 97.1786 215.892 97.2346 215.851C97.2673 215.827 97.2989 215.802 97.3317 215.778C97.4515 215.692 97.5765 215.614 97.7059 215.544C97.7649 215.512 97.8251 215.484 97.8852 215.455C97.9951 215.401 97.7658 215.502 97.8793 215.457C97.9167 215.443 97.9536 215.427 97.9912 215.413C98.1305 215.36 98.2726 215.316 98.4168 215.28C98.4879 215.263 98.5595 215.247 98.6314 215.233C98.6678 215.226 98.7043 215.22 98.7407 215.214C98.7544 215.211 98.7683 215.209 98.782 215.207C98.8892 215.187 98.6378 215.223 98.7461 215.212C98.8974 215.196 99.048 215.18 99.2 215.175C99.5303 215.167 99.8607 215.184 100.189 215.226C100.286 215.238 100.04 215.203 100.191 215.227C100.232 215.234 100.274 215.24 100.315 215.247C100.404 215.262 100.493 215.279 100.582 215.296C100.76 215.331 100.936 215.371 101.111 215.416C101.472 215.51 101.828 215.624 102.178 215.755C102.363 215.825 102.547 215.898 102.729 215.976C102.773 215.995 102.819 216.013 102.863 216.034C102.747 215.979 102.828 216.019 102.89 216.047C102.98 216.088 103.069 216.13 103.159 216.173C103.535 216.354 103.904 216.55 104.266 216.76C105.01 217.193 105.725 217.675 106.408 218.206C106.487 218.267 106.566 218.329 106.644 218.391C106.692 218.43 106.782 218.503 106.678 218.418C106.73 218.46 106.781 218.502 106.833 218.545C106.996 218.681 107.158 218.819 107.318 218.96C107.644 219.248 107.97 219.535 108.284 219.838C108.871 220.41 109.421 221.022 109.931 221.67C109.991 221.746 110.05 221.821 110.109 221.898C110.138 221.936 110.166 221.974 110.195 222.012C110.251 222.086 110.184 221.996 110.176 221.986C110.197 222.015 110.218 222.044 110.239 222.072C110.367 222.25 110.487 222.433 110.619 222.608C110.646 222.644 110.673 222.68 110.7 222.716C110.633 222.627 110.698 222.713 110.725 222.751C110.78 222.828 110.835 222.906 110.888 222.985C110.989 223.133 111.086 223.284 111.179 223.437C111.219 223.504 111.256 223.575 111.298 223.641C111.315 223.667 111.333 223.692 111.351 223.717C111.337 223.698 111.422 223.813 111.388 223.766C111.376 223.75 111.438 223.836 111.451 223.855C111.489 223.917 111.546 223.964 111.613 223.986C111.681 224.008 111.753 224.004 111.818 223.976C111.883 223.947 111.936 223.895 111.968 223.829C112 223.763 112.008 223.688 111.992 223.616C111.922 223.231 111.803 222.857 111.639 222.505C111.489 222.141 111.309 221.792 111.1 221.462C110.629 220.727 110.096 220.037 109.509 219.4C108.269 218.045 106.851 216.882 105.299 215.945C103.899 215.092 102.332 214.34 100.717 214.093C99.3523 213.885 97.8629 213.976 96.7263 214.885C96.1246 215.362 95.6608 216.005 95.3863 216.742C95.0976 217.586 94.9685 218.481 95.0065 219.377C95.0216 219.652 95.0532 219.927 95.1011 220.198C95.1141 220.243 95.1408 220.283 95.1771 220.311C95.2133 220.34 95.2573 220.355 95.3025 220.355C95.3477 220.355 95.3916 220.34 95.4279 220.311C95.4642 220.283 95.4908 220.243 95.5039 220.198Z" fill="#FEBF3F"/>
<path d="M170.414 224.411C170.68 223.988 170.891 223.532 171.163 223.11C171.287 222.917 171.409 222.723 171.539 222.534C171.666 222.35 171.77 222.213 171.89 222.067C172.144 221.758 172.427 221.471 172.733 221.211C172.797 221.157 172.862 221.105 172.928 221.054C172.838 221.123 172.964 221.028 172.982 221.015C173.022 220.986 173.062 220.958 173.103 220.929C173.246 220.828 173.394 220.734 173.547 220.647C173.695 220.563 173.848 220.488 174.004 220.418C174.019 220.411 174.036 220.405 174.051 220.397C174.114 220.368 173.96 220.431 174.026 220.409C174.064 220.396 174.1 220.379 174.138 220.365C174.218 220.335 174.298 220.307 174.38 220.282C174.536 220.233 174.694 220.192 174.854 220.159C174.931 220.143 175.008 220.13 175.085 220.117C175.102 220.114 175.119 220.113 175.135 220.11C175.205 220.096 175.022 220.122 175.093 220.115C175.138 220.111 175.182 220.104 175.226 220.1C175.549 220.069 175.875 220.068 176.198 220.098C176.237 220.101 176.277 220.105 176.316 220.109C176.342 220.112 176.471 220.13 176.377 220.116C176.276 220.102 176.414 220.122 176.437 220.126C176.482 220.133 176.527 220.141 176.571 220.149C176.735 220.179 176.897 220.216 177.058 220.26C177.221 220.304 177.383 220.354 177.543 220.411C177.621 220.438 177.698 220.467 177.775 220.498C177.793 220.505 177.93 220.56 177.837 220.522C177.747 220.485 177.907 220.553 177.932 220.564C178.255 220.709 178.568 220.875 178.869 221.061C179.024 221.157 179.176 221.257 179.325 221.362C179.398 221.413 179.469 221.466 179.541 221.519C179.655 221.604 179.467 221.46 179.551 221.527C179.591 221.559 179.632 221.59 179.672 221.622C179.967 221.859 180.253 222.111 180.523 222.375C180.802 222.648 181.066 222.935 181.314 223.235C181.338 223.265 181.46 223.456 181.493 223.458C181.488 223.458 181.397 223.332 181.468 223.426C181.48 223.442 181.492 223.458 181.505 223.475C181.538 223.518 181.571 223.562 181.603 223.607C181.722 223.768 181.837 223.932 181.947 224.099C182.17 224.437 182.375 224.787 182.562 225.147C182.66 225.335 182.752 225.525 182.839 225.718C182.857 225.757 182.874 225.796 182.891 225.835C182.905 225.86 182.916 225.886 182.925 225.913C182.924 225.915 182.873 225.787 182.9 225.855C182.939 225.954 182.981 226.052 183.019 226.151C183.328 226.934 183.552 227.748 183.689 228.577C183.702 228.627 183.709 228.677 183.712 228.728C183.711 228.729 183.695 228.598 183.704 228.67C183.707 228.699 183.711 228.728 183.715 228.757C183.728 228.866 183.74 228.975 183.749 229.084C183.769 229.296 183.782 229.509 183.802 229.721C183.841 230.15 183.852 230.581 183.835 231.011C183.834 231.229 183.852 231.446 183.889 231.661C183.922 231.962 184.354 232.158 184.523 231.831C184.647 231.622 184.74 231.397 184.802 231.163C184.853 230.913 184.892 230.661 184.926 230.409C184.992 229.963 185.014 229.512 184.992 229.062C184.935 228.148 184.769 227.243 184.496 226.367C183.95 224.687 183.032 223.147 181.811 221.861C180.718 220.698 179.342 219.756 177.801 219.286C176.383 218.828 174.842 218.923 173.492 219.552C173.328 219.631 173.169 219.719 173.015 219.816C172.943 219.86 172.873 219.907 172.804 219.955C172.769 219.979 172.734 220.004 172.699 220.029C172.665 220.054 172.475 220.199 172.532 220.156C172.607 220.098 172.446 220.222 172.453 220.216C172.434 220.231 172.415 220.248 172.396 220.264C172.362 220.292 172.329 220.32 172.296 220.349C172.22 220.416 172.145 220.485 172.072 220.556C171.929 220.695 171.794 220.84 171.665 220.992C171.043 221.73 170.557 222.57 170.231 223.475C170.133 223.723 170.058 223.98 170.006 224.241C169.994 224.292 170 224.346 170.024 224.393C170.048 224.44 170.088 224.477 170.137 224.498C170.186 224.518 170.241 224.521 170.291 224.505C170.342 224.489 170.385 224.456 170.414 224.411Z" fill="#FEBF3F"/>
<path d="M89.8012 223.002C89.2051 223.09 88.6044 223.065 88.0033 223.106C87.3912 223.148 86.7779 223.232 86.169 223.31C84.9494 223.45 83.7534 223.765 82.6136 224.244C81.6501 224.658 80.7736 225.269 80.0346 226.043C79.4591 226.659 78.9611 227.35 78.5533 228.101C77.7038 229.667 77.1881 231.409 77.0424 233.207C76.8961 234.943 77.121 236.736 77.8352 238.318C78.1795 239.082 78.6489 239.777 79.2218 240.369C79.8479 241.005 80.5884 241.501 81.3995 241.828C81.6138 241.907 81.8353 241.961 82.0603 241.991C82.1239 242.008 82.1912 242.001 82.2501 241.97C82.309 241.939 82.3558 241.888 82.382 241.824C82.4081 241.76 82.4112 241.688 82.3906 241.622C82.3701 241.556 82.3273 241.5 82.2704 241.464C82.0764 241.362 81.8914 241.24 81.6944 241.145C81.5025 241.053 81.3149 240.952 81.1315 240.842C80.954 240.735 80.7829 240.618 80.6147 240.496C80.5351 240.438 80.4554 240.38 80.3775 240.32C80.3553 240.302 80.2827 240.245 80.2951 240.255C80.2952 240.255 80.2166 240.189 80.1862 240.162C79.8886 239.903 79.6144 239.616 79.3673 239.303C79.3398 239.269 79.3126 239.233 79.2858 239.198C79.2704 239.178 79.2552 239.157 79.2401 239.137C79.2012 239.084 79.2731 239.183 79.2353 239.13C79.1767 239.047 79.1194 238.964 79.0642 238.879C78.9573 238.714 78.8574 238.544 78.7643 238.37C78.6742 238.202 78.5905 238.03 78.5133 237.854C78.4927 237.807 78.4725 237.76 78.4528 237.712C78.4429 237.689 78.4332 237.665 78.4235 237.641C78.43 237.657 78.4512 237.712 78.4215 237.635C78.3844 237.539 78.3489 237.442 78.3151 237.345C78.1861 236.969 78.0824 236.584 78.0048 236.192C77.9646 235.991 77.9314 235.788 77.9033 235.585C77.8915 235.499 77.9004 235.562 77.9026 235.58C77.8993 235.554 77.8962 235.527 77.8931 235.501C77.8878 235.454 77.8827 235.408 77.878 235.361C77.8672 235.254 77.8581 235.147 77.8505 235.04C77.8213 234.621 77.8154 234.201 77.833 233.781C77.8417 233.569 77.856 233.357 77.876 233.146C77.8857 233.043 77.8969 232.941 77.9088 232.839C77.9112 232.818 77.9137 232.798 77.9163 232.777C77.9062 232.858 77.9153 232.786 77.9174 232.771C77.9258 232.71 77.9344 232.649 77.9436 232.588C78.0705 231.743 78.2814 230.915 78.5729 230.118C78.608 230.022 78.6442 229.927 78.6816 229.832C78.6529 229.905 78.6987 229.79 78.7074 229.769C78.7305 229.713 78.7541 229.656 78.7781 229.601C78.8578 229.415 78.9421 229.232 79.031 229.051C79.2121 228.683 79.4134 228.325 79.6337 227.981C79.6864 227.899 79.7402 227.818 79.7952 227.738C79.8207 227.7 79.8465 227.663 79.8725 227.626C79.8874 227.605 79.9024 227.584 79.9173 227.563C79.9889 227.462 79.887 227.603 79.9294 227.546C80.0467 227.387 80.1688 227.232 80.2955 227.081C80.5441 226.786 80.8124 226.509 81.0983 226.253C81.1665 226.193 81.2357 226.133 81.306 226.075C81.3448 226.043 81.2923 226.087 81.2883 226.09C81.318 226.066 81.3476 226.042 81.3776 226.018C81.4448 225.965 81.513 225.914 81.5819 225.863C81.8178 225.69 82.0628 225.531 82.3159 225.387C83.3326 224.81 84.4649 224.498 85.5919 224.27C86.1787 224.151 86.7667 224.039 87.3559 223.932C87.9296 223.849 88.4967 223.72 89.0525 223.548C89.3264 223.459 89.6043 223.384 89.8853 223.324C90.0889 223.277 89.9968 222.973 89.8012 223.002Z" fill="#FEBF3F"/>
<path d="M180.215 229.66C180.391 229.696 180.424 229.723 180.598 229.757C180.728 229.784 180.857 229.821 180.981 229.867C181.013 229.877 181.045 229.887 181.077 229.898C181.152 229.925 180.973 229.852 181.088 229.904C181.143 229.929 181.198 229.953 181.251 229.98C181.305 230.007 181.358 230.036 181.409 230.067C181.444 230.088 181.478 230.111 181.513 230.132C181.607 230.188 181.445 230.075 181.536 230.149C181.757 230.318 181.963 230.503 182.152 230.701C182.177 230.728 182.202 230.756 182.226 230.784C182.148 230.694 182.202 230.756 182.218 230.776C182.264 230.835 182.311 230.893 182.356 230.954C182.448 231.078 182.541 231.202 182.626 231.33C182.715 231.463 182.797 231.599 182.874 231.738C182.91 231.801 182.944 231.866 182.978 231.93C182.996 231.967 183.015 232.003 183.033 232.039C183.039 232.052 183.108 232.201 183.054 232.082C183.193 232.386 183.311 232.696 183.409 233.013C183.505 233.325 183.582 233.642 183.639 233.962C183.645 234 183.677 234.21 183.659 234.079C183.67 234.161 183.68 234.242 183.689 234.324C183.706 234.485 183.715 234.646 183.726 234.808C183.752 235.148 183.753 235.49 183.726 235.83C183.698 236.024 183.692 236.221 183.709 236.416C183.72 236.494 183.696 236.296 183.71 236.43C183.715 236.493 183.724 236.557 183.736 236.62C183.757 236.702 183.789 236.781 183.829 236.856C183.873 236.923 183.944 236.971 184.026 236.99C184.109 237.01 184.197 236.999 184.271 236.961C184.963 236.599 184.98 235.634 185 234.999C185.004 234.273 184.893 233.551 184.669 232.854C184.288 231.575 183.577 230.129 182.281 229.403C181.974 229.225 181.634 229.1 181.278 229.033C181.091 229.002 180.9 228.993 180.71 229.006C180.511 229.021 180.317 229.076 180.144 229.166C180.094 229.194 180.054 229.234 180.029 229.281C180.004 229.329 179.995 229.382 180.003 229.434C180.01 229.486 180.034 229.535 180.072 229.576C180.11 229.616 180.16 229.645 180.215 229.66Z" fill="#FEBF3F"/>
<path d="M184.148 232.703C184.529 232.772 184.921 232.732 185.309 232.762C185.397 232.769 185.485 232.778 185.573 232.787C185.593 232.788 185.613 232.791 185.632 232.795C185.679 232.802 185.727 232.809 185.774 232.817C185.935 232.844 186.096 232.87 186.256 232.904C186.564 232.97 186.867 233.055 187.163 233.161C187.198 233.173 187.233 233.186 187.267 233.199C187.285 233.206 187.4 233.252 187.327 233.222C187.254 233.193 187.37 233.241 187.384 233.248C187.421 233.265 187.459 233.282 187.496 233.3C187.624 233.362 187.749 233.43 187.871 233.504C187.991 233.577 188.104 233.659 188.219 233.739C188.287 233.787 188.141 233.675 188.226 233.745C188.253 233.767 188.28 233.788 188.306 233.81C188.363 233.858 188.418 233.906 188.473 233.957C188.577 234.053 188.677 234.154 188.771 234.26C188.814 234.308 188.855 234.356 188.896 234.405C188.918 234.432 188.939 234.459 188.96 234.486C188.894 234.405 188.939 234.458 188.972 234.503C189.139 234.73 189.286 234.971 189.412 235.223C189.444 235.285 189.474 235.348 189.503 235.412C189.517 235.444 189.531 235.477 189.546 235.508C189.499 235.411 189.531 235.473 189.553 235.529C189.606 235.661 189.654 235.795 189.697 235.93C189.786 236.212 189.855 236.499 189.904 236.791C189.91 236.827 189.916 236.863 189.922 236.9C189.925 236.92 189.942 237.047 189.931 236.958C189.919 236.87 189.935 237.001 189.937 237.018C189.942 237.055 189.946 237.092 189.949 237.129C189.965 237.283 189.975 237.439 189.98 237.594C189.992 237.906 189.984 238.218 189.958 238.529C189.952 238.6 189.945 238.672 189.937 238.744C189.933 238.783 189.928 238.822 189.924 238.86C189.909 238.985 189.938 238.77 189.919 238.891C189.895 239.053 189.867 239.214 189.834 239.374C189.768 239.693 189.684 240.007 189.581 240.316C189.53 240.47 189.475 240.622 189.415 240.773C189.401 240.811 189.385 240.849 189.37 240.886C189.337 240.972 189.408 240.801 189.36 240.909C189.325 240.99 189.289 241.07 189.252 241.149C188.965 241.762 188.619 242.346 188.217 242.891C188.169 242.956 188.261 242.837 188.189 242.927C188.167 242.955 188.144 242.984 188.121 243.012C188.063 243.083 188.004 243.153 187.944 243.221C187.827 243.355 187.706 243.485 187.581 243.611C187.459 243.734 187.332 243.852 187.202 243.967C187.137 244.024 187.07 244.081 187.003 244.136C186.969 244.164 186.935 244.191 186.901 244.219C186.886 244.23 186.871 244.242 186.856 244.254C186.802 244.296 186.928 244.2 186.831 244.273C186.233 244.72 185.588 245.101 184.906 245.408C184.732 245.486 184.556 245.559 184.383 245.64C184.347 245.662 184.319 245.695 184.304 245.734C184.288 245.773 184.286 245.816 184.297 245.856C184.308 245.897 184.332 245.933 184.365 245.959C184.398 245.984 184.439 245.999 184.481 246C186.042 245.838 187.505 244.932 188.589 243.838C189.62 242.793 190.354 241.495 190.718 240.076C191.076 238.755 191.094 237.365 190.769 236.035C190.466 234.785 189.739 233.678 188.71 232.901C188.19 232.519 187.597 232.247 186.968 232.102C186.216 231.957 185.443 231.967 184.696 232.132C184.488 232.165 184.286 232.231 184.099 232.329C184.065 232.35 184.037 232.38 184.02 232.416C184.003 232.452 183.997 232.492 184.002 232.532C184.007 232.571 184.023 232.609 184.049 232.639C184.075 232.669 184.109 232.692 184.148 232.703Z" fill="#FEBF3F"/>
<path d="M183.135 251.892C183.252 251.926 183.371 251.954 183.492 251.976C183.605 251.986 183.72 251.994 183.834 252C184.079 251.997 184.323 251.963 184.558 251.897C185.015 251.793 185.451 251.619 185.849 251.382C186.658 250.898 187.347 250.251 187.866 249.487C188.95 247.924 189.56 246.012 189.826 244.168C189.905 243.623 189.966 243.077 189.999 242.528C190.005 242.262 189.982 241.995 189.933 241.733C189.905 241.484 189.793 241.25 189.615 241.066C189.569 241.023 189.507 241 189.443 241C189.378 241 189.316 241.023 189.27 241.066C189.184 241.139 189.119 241.232 189.08 241.336C189.061 241.379 189.043 241.422 189.024 241.465C189.016 241.484 189.008 241.502 189 241.521C189.045 241.418 188.965 241.598 188.959 241.614C188.899 241.807 188.855 242.004 188.828 242.203C188.786 242.449 188.771 242.699 188.743 242.947C188.731 243.051 188.719 243.156 188.705 243.26C188.698 243.313 188.691 243.365 188.684 243.418C188.702 243.284 188.681 243.433 188.673 243.487C188.544 244.384 188.349 245.272 188.092 246.145C187.962 246.579 187.808 247.006 187.632 247.425C187.622 247.447 187.558 247.594 187.589 247.526C187.619 247.458 187.551 247.608 187.543 247.625C187.495 247.729 187.445 247.832 187.393 247.935C187.295 248.131 187.189 248.323 187.077 248.513C186.854 248.875 186.609 249.225 186.343 249.561C186.403 249.483 186.358 249.543 186.325 249.582C186.292 249.62 186.259 249.659 186.226 249.696C186.155 249.777 186.082 249.855 186.006 249.932C185.863 250.078 185.711 250.217 185.552 250.347C185.503 250.387 185.452 250.426 185.402 250.465C185.395 250.47 185.338 250.512 185.388 250.475C185.445 250.434 185.338 250.51 185.338 250.51C185.245 250.575 185.15 250.636 185.052 250.695C184.858 250.811 184.654 250.916 184.449 251.016C184.398 251.041 184.346 251.065 184.294 251.088C184.279 251.094 184.14 251.152 184.198 251.129C184.08 251.175 183.96 251.214 183.839 251.253C183.717 251.292 183.616 251.349 183.5 251.388C183.371 251.431 183.262 251.502 183.135 251.544C182.972 251.598 182.938 251.854 183.135 251.892Z" fill="#FEBF3F"/>
<path d="M83.1546 238.049C82.4861 238.781 82.2265 239.816 82.0893 240.759C81.9454 241.853 81.9756 242.963 82.1789 244.049C82.5438 246.191 83.4257 248.323 84.8296 250.034C85.1739 250.469 85.5701 250.865 86.0102 251.212C86.2536 251.401 86.5114 251.573 86.7814 251.726C86.9002 251.791 87.0207 251.856 87.1447 251.912C87.3092 251.971 87.4834 252.001 87.6589 252C87.719 251.999 87.7778 251.984 87.8296 251.955C87.8814 251.925 87.9244 251.884 87.9543 251.834C87.9842 251.784 87.9999 251.727 88 251.669C88.0001 251.611 87.9844 251.555 87.9546 251.505C87.8911 251.415 87.8354 251.318 87.7648 251.233C87.6789 251.145 87.5854 251.064 87.4851 250.992C87.3057 250.841 87.1335 250.681 86.962 250.521C86.6078 250.195 86.2722 249.85 85.9567 249.488C85.8825 249.402 85.8099 249.315 85.7387 249.227C85.814 249.321 85.7261 249.21 85.6996 249.176C85.6545 249.117 85.6101 249.059 85.5663 248.999C85.4182 248.8 85.2721 248.598 85.1339 248.392C84.8469 247.963 84.5875 247.517 84.357 247.057C84.3033 246.95 84.251 246.842 84.2003 246.734C84.1749 246.68 84.1498 246.625 84.1251 246.571C84.1109 246.54 84.0969 246.508 84.0831 246.477C84.1163 246.552 84.0868 246.485 84.0704 246.447C83.9695 246.209 83.8741 245.968 83.7864 245.725C83.6078 245.231 83.4584 244.728 83.3389 244.218C83.2806 243.969 83.2298 243.718 83.1863 243.466C83.1355 243.171 83.126 243.103 83.0946 242.802C83.0421 242.301 83.0249 241.795 83.0198 241.292C83.0156 240.773 83.0543 240.255 83.1354 239.743C83.2158 239.242 83.3354 238.716 83.4157 238.195C83.4361 238.063 83.2695 237.923 83.1546 238.049Z" fill="#FEBF3F"/>
<path d="M143.742 253.154C143.891 254.121 144.527 254.98 145.168 255.689C145.922 256.502 146.795 257.194 147.758 257.744C149.634 258.854 151.822 259.575 154.01 259.637C154.559 259.663 155.109 259.624 155.649 259.522C155.946 259.464 156.238 259.384 156.522 259.282C156.646 259.236 156.771 259.189 156.891 259.133C157.038 259.049 157.169 258.939 157.277 258.809C157.314 258.764 157.339 258.71 157.348 258.653C157.358 258.596 157.352 258.537 157.332 258.483C157.312 258.428 157.279 258.38 157.234 258.343C157.19 258.306 157.136 258.281 157.079 258.271C156.971 258.26 156.861 258.238 156.753 258.236C156.632 258.243 156.511 258.26 156.393 258.288C156.166 258.323 155.936 258.348 155.707 258.372C155.236 258.424 154.762 258.45 154.288 258.451C154.176 258.45 154.064 258.448 153.952 258.444C154.071 258.449 153.931 258.442 153.888 258.44C153.815 258.436 153.742 258.431 153.67 258.425C153.424 258.406 153.178 258.384 152.934 258.354C152.425 258.29 151.921 258.194 151.424 258.069C151.308 258.04 151.193 258.009 151.078 257.977C151.021 257.961 150.963 257.944 150.906 257.927C150.873 257.918 150.84 257.908 150.808 257.898C150.886 257.922 150.817 257.901 150.777 257.888C150.531 257.809 150.287 257.725 150.045 257.633C149.554 257.447 149.074 257.234 148.607 256.993C148.379 256.876 148.154 256.752 147.933 256.622C147.674 256.469 147.616 256.432 147.365 256.262C146.946 255.978 146.546 255.665 146.155 255.344C145.754 255.013 145.379 254.65 145.034 254.26C144.698 253.877 144.367 253.45 144.016 253.055C143.927 252.955 143.716 252.988 143.742 253.154Z" fill="#FEBF3F"/>
<path d="M83.0339 224.77C83.0321 224.571 83.0168 224.373 82.9881 224.176C82.9474 223.996 82.9136 223.814 82.8868 223.63C82.8446 223.312 82.8196 222.991 82.8118 222.67C82.8024 222.325 82.819 221.979 82.8615 221.637C82.8532 221.703 82.8622 221.631 82.8637 221.621C82.8697 221.579 82.8761 221.537 82.8828 221.495C82.8963 221.411 82.9114 221.327 82.9279 221.244C82.9609 221.078 82.9999 220.913 83.0447 220.75C83.4112 219.495 84.074 218.351 84.9752 217.418C85.2075 217.171 85.4512 216.936 85.7065 216.712C85.9826 216.47 86.1896 216.301 86.4501 216.109C87.023 215.688 87.6314 215.319 88.2679 215.006C88.888 214.701 89.5341 214.455 90.1981 214.269C90.8545 214.079 91.5274 213.954 92.2074 213.897C93.7231 213.764 95.2487 213.975 96.6751 214.514C96.961 214.62 97.1279 214.176 96.8779 214.024C95.6347 213.27 94.136 212.965 92.6968 213.003C91.1891 213.055 89.7043 213.394 88.3194 214.003C85.6825 215.142 83.3019 217.253 82.3724 220.078C82.1253 220.83 81.9995 221.617 82 222.409C82.0011 222.828 82.0437 223.246 82.127 223.656C82.1693 223.866 82.2208 224.073 82.2815 224.277C82.3567 224.496 82.463 224.703 82.5968 224.891C82.7131 225.074 83.0557 225.022 83.0339 224.77Z" fill="#FEBF3F"/>
<path d="M152.518 162.034L148.734 167.562L171.032 178.397L173.045 172.007L152.518 162.034Z" fill="#A28FD8" stroke="#231F20" stroke-width="1.14" stroke-linecap="round" stroke-linejoin="round"/>
<path d="M151.554 168.933L168.185 177.014C165.186 205.563 141.86 212.493 141.86 212.493C130.441 186.853 151.554 168.933 151.554 168.933Z" fill="#FEBF3F" stroke="#231F20" stroke-width="1.14" stroke-linecap="round" stroke-linejoin="round"/>
<path d="M165.568 175.744L154.153 170.197C150.218 176.201 144.977 187.01 147.898 198.989C147.898 198.989 159.887 192.928 165.568 175.744Z" fill="#D8920B" stroke="#231F20" stroke-width="1.14" stroke-linecap="round" stroke-linejoin="round"/>
<path d="M153.928 186.003C153.928 186.003 159.192 182.726 163.342 174.661L156.427 171.301C154.585 175.388 153.122 180.601 153.928 186.003Z" fill="#F98600" stroke="#231F20" stroke-width="1.14" stroke-linecap="round" stroke-linejoin="round"/>
<path d="M149.471 155.657L147.545 159.618L178.017 174.424L179.943 170.463L149.471 155.657Z" fill="#A28FD8" stroke="#231F20" stroke-width="1.14" stroke-linecap="round" stroke-linejoin="round"/>
<path d="M225.896 72.8597C225.896 72.8597 224.139 59.9286 216.638 56.2832C209.136 52.6389 197.875 59.2437 197.875 59.2437C190.796 64.6827 189.018 66.1177 183.441 77.5826C177.866 89.0486 146.234 154.084 146.234 154.084L183.178 172.036C183.178 172.036 214.208 108.233 220.385 95.5333C226.561 82.8336 226.741 79.9989 225.896 72.8597Z" fill="#D6C8FF" stroke="#231F20" stroke-width="1.14" stroke-linecap="round" stroke-linejoin="round"/>
<path d="M225.894 72.8596C225.322 67.4118 222.514 50.132 220.358 49.0831C218.161 48.0161 200.383 57.5452 197.873 59.2436C208.188 61.4192 217.811 66.0949 225.894 72.8596Z" fill="#A28FD8" stroke="#231F20" stroke-width="1.14" stroke-linecap="round" stroke-linejoin="round"/>
<path d="M173.144 98.8136L150.634 145.097L130.184 135.16C130.184 135.16 133.304 128.747 134.124 127.06C134.944 125.372 173.144 98.8136 173.144 98.8136Z" fill="#F3EEFF" stroke="#231F20" stroke-width="1.14" stroke-linecap="round" stroke-linejoin="round"/>
<path d="M130.424 139.162L147.487 151.565L150.633 145.097L130.182 135.16L129.7 136.154C128.878 137.841 130.424 139.162 130.424 139.162Z" fill="#A28FD8" stroke="#231F20" stroke-width="1.14" stroke-linecap="round" stroke-linejoin="round"/>
<path d="M210.047 116.746L187.535 163.029L207.986 172.965C207.986 172.965 211.105 166.552 211.927 164.864C212.747 163.176 210.047 116.746 210.047 116.746Z" fill="#F3EEFF" stroke="#231F20" stroke-width="1.14" stroke-linecap="round" stroke-linejoin="round"/>
<path d="M204.692 175.247L184.395 169.497L187.538 163.03L207.989 172.965L207.507 173.957C206.687 175.645 204.692 175.247 204.692 175.247Z" fill="#A28FD8" stroke="#231F20" stroke-width="1.14" stroke-linecap="round" stroke-linejoin="round"/>
<path d="M173.144 98.8136C173.144 98.8136 135.086 125.278 134.303 126.716C134.464 126.7 134.627 126.683 134.794 126.666C148.894 125.159 159.854 118.313 166.013 113.477L173.144 98.8136Z" fill="#A28FD8" stroke="#231F20" stroke-width="1.14" stroke-linecap="round" stroke-linejoin="round"/>
<path d="M210.049 116.746L203.456 130.302C203.296 137.902 204.362 151.475 212.23 164.156C212.718 162.828 210.049 116.746 210.049 116.746Z" fill="#A28FD8" stroke="#231F20" stroke-width="1.14" stroke-linecap="round" stroke-linejoin="round"/>
<path d="M209.728 72.8969L205.096 82.4212C205.896 82.9622 206.581 83.6562 207.112 84.4631L217.143 80.8236C215.553 77.4769 212.962 74.7068 209.728 72.8969Z" fill="white" stroke="#231F20" stroke-width="1.14" stroke-linecap="round" stroke-linejoin="round"/>
<path d="M200.35 81.1753C201.312 81.0943 202.281 81.2042 203.201 81.4988L207.833 71.9741C204.412 70.5508 200.632 70.2257 197.018 71.0439L200.35 81.1753Z" fill="white" stroke="#231F20" stroke-width="1.14" stroke-linecap="round" stroke-linejoin="round"/>
<path d="M195.432 83.6095C196.213 82.7403 197.19 82.0682 198.281 81.6481L194.986 71.6276C191.187 72.9576 187.946 75.5278 185.787 78.9237L195.432 83.6095Z" fill="white" stroke="#231F20" stroke-width="1.14" stroke-linecap="round" stroke-linejoin="round"/>
<path d="M208.018 86.3783C208.362 87.496 208.436 88.6791 208.235 89.831L217.877 94.5163C219.217 90.7219 219.239 86.5869 217.939 82.7787L208.018 86.3783Z" fill="white" stroke="#231F20" stroke-width="1.14" stroke-linecap="round" stroke-linejoin="round"/>
<path d="M154.531 159.927L164.216 140.012C164.651 139.117 164.906 138.146 164.965 137.153C165.024 136.16 164.888 135.165 164.562 134.224C164.237 133.284 163.73 132.417 163.069 131.673C162.409 130.929 161.608 130.322 160.713 129.887C159.818 129.452 158.846 129.197 157.852 129.138C156.859 129.079 155.863 129.215 154.922 129.541C153.982 129.866 153.114 130.373 152.37 131.033C151.625 131.693 151.018 132.493 150.583 133.388L140.898 153.303L154.531 159.927Z" fill="#D6C8FF" stroke="#231F20" stroke-width="1.14" stroke-linecap="round" stroke-linejoin="round"/>
<path d="M187.096 175.75L196.783 155.835C197.659 154.028 197.781 151.948 197.124 150.051C196.466 148.154 195.082 146.596 193.276 145.718C191.469 144.84 189.388 144.715 187.49 145.37C185.591 146.025 184.03 147.406 183.15 149.211L173.463 169.126L187.096 175.75Z" fill="#D6C8FF" stroke="#231F20" stroke-width="1.14" stroke-linecap="round" stroke-linejoin="round"/>
<path d="M141.285 161.734L147.647 164.825C145.543 177.715 136.036 181.564 136.036 181.564C132.311 170.438 141.285 161.734 141.285 161.734Z" fill="#FEBF3F" stroke="#231F20" stroke-width="1.14" stroke-linecap="round" stroke-linejoin="round"/>
<path d="M146.65 164.456L142.282 162.334C140.393 165.42 137.741 170.885 138.346 176.52C138.346 176.52 143.51 173.016 146.65 164.456Z" fill="#F98600" stroke="#231F20" stroke-width="1.14" stroke-linecap="round" stroke-linejoin="round"/>
<path d="M148.83 165.4L139.867 161.045L141.505 158.269L150.003 162.398L148.83 165.4Z" fill="#A28FD8" stroke="#231F20" stroke-width="1.14" stroke-linecap="round" stroke-linejoin="round"/>
<path d="M152.759 159.067L151.311 162.047C151.208 162.258 151.025 162.42 150.802 162.497C150.58 162.574 150.336 162.56 150.124 162.457L141.382 158.21C141.277 158.159 141.183 158.088 141.106 158.001C141.028 157.914 140.969 157.812 140.931 157.702C140.893 157.592 140.877 157.475 140.884 157.359C140.892 157.242 140.922 157.129 140.973 157.024L142.423 154.044L152.759 159.067Z" fill="#A28FD8" stroke="#231F20" stroke-width="1.14" stroke-linecap="round" stroke-linejoin="round"/>
<path d="M173.85 177.557L180.213 180.648C178.108 193.538 168.602 197.385 168.602 197.385C164.874 186.26 173.85 177.557 173.85 177.557Z" fill="#FEBF3F" stroke="#231F20" stroke-width="1.14" stroke-linecap="round" stroke-linejoin="round"/>
<path d="M179.212 180.279L174.845 178.157C172.955 181.244 170.305 186.708 170.908 192.342C170.908 192.342 176.072 188.839 179.212 180.279Z" fill="#F98600" stroke="#231F20" stroke-width="1.14" stroke-linecap="round" stroke-linejoin="round"/>
<path d="M181.394 181.222L172.432 176.867L174.07 174.092L182.566 178.221L181.394 181.222Z" fill="#A28FD8" stroke="#231F20" stroke-width="1.14" stroke-linecap="round" stroke-linejoin="round"/>
<path d="M185.324 174.889L183.874 177.869C183.771 178.081 183.589 178.243 183.367 178.32C183.144 178.397 182.901 178.383 182.689 178.28L173.947 174.033C173.735 173.93 173.573 173.747 173.496 173.525C173.419 173.302 173.434 173.058 173.536 172.846L174.986 169.866L185.324 174.889Z" fill="#A28FD8" stroke="#231F20" stroke-width="1.14" stroke-linecap="round" stroke-linejoin="round"/>
<path d="M194.763 94.8685L189.481 92.3025C189.178 92.1552 188.829 92.1343 188.51 92.2445C188.191 92.3547 187.929 92.5869 187.782 92.89L181.633 105.534C181.559 105.684 181.516 105.847 181.506 106.013C181.496 106.18 181.519 106.347 181.573 106.505C181.628 106.662 181.713 106.808 181.823 106.933C181.934 107.058 182.068 107.159 182.218 107.232L187.501 109.799L194.763 94.8685Z" fill="white" stroke="#231F20" stroke-width="1.14" stroke-linecap="round" stroke-linejoin="round"/>
<path d="M199.796 97.3149L205.078 99.8812C205.381 100.028 205.613 100.29 205.724 100.608C205.834 100.926 205.814 101.275 205.667 101.579L199.516 114.223C199.443 114.373 199.342 114.507 199.217 114.618C199.092 114.729 198.947 114.814 198.789 114.869C198.631 114.923 198.465 114.946 198.298 114.936C198.131 114.926 197.968 114.884 197.818 114.811L192.535 112.245L199.796 97.3149Z" fill="white" stroke="#231F20" stroke-width="1.14" stroke-linecap="round" stroke-linejoin="round"/>
<defs>
<filter id="filter0_f_481_23" x="0" y="0" width="328" height="328" filterUnits="userSpaceOnUse" color-interpolation-filters="sRGB">
<feFlood flood-opacity="0" result="BackgroundImageFix"/>
<feBlend mode="normal" in="SourceGraphic" in2="BackgroundImageFix" result="shape"/>
<feGaussianBlur stdDeviation="48" result="effect1_foregroundBlur_481_23"/>
</filter>
</defs>
</svg>
