<svg width="1455" height="663" viewBox="0 0 1455 663" fill="none" xmlns="http://www.w3.org/2000/svg">
<path d="M338.027 403.824C337.754 403.803 337.483 403.776 337.212 403.739L338.01 403.847C337.809 403.818 337.61 403.785 337.411 403.743L339.542 405.873L339.501 405.622C339.335 405.023 339.016 404.476 338.576 404.036C338.136 403.596 337.589 403.278 336.989 403.112C336.821 403.076 336.655 403.026 336.495 402.964L337.35 403.324C337.223 403.273 337.102 403.206 336.991 403.126L337.713 403.683C337.64 403.627 337.574 403.562 337.517 403.491L338.073 404.21C338.03 404.151 337.993 404.086 337.964 404.019L338.322 404.866C338.296 404.798 338.278 404.727 338.267 404.655L338.394 405.596C338.383 405.496 338.384 405.396 338.397 405.297L338.271 406.235C338.3 406.056 338.351 405.881 338.424 405.715L338.07 406.554C338.168 406.339 338.281 406.131 338.407 405.932C338.651 405.447 338.861 404.946 339.032 404.431L338.701 405.217C338.983 404.549 339.371 403.905 339.585 403.212C339.729 402.744 339.874 402.278 340.023 401.812C340.116 401.46 340.114 401.089 340.019 400.738C339.924 400.386 339.738 400.066 339.481 399.808C339.223 399.551 338.903 399.365 338.551 399.27C338.199 399.175 337.829 399.173 337.476 399.266C336.128 399.572 334.863 400.171 333.771 401.019C333.482 401.211 333.21 401.426 332.955 401.662C332.73 401.918 332.522 402.188 332.334 402.472C332.263 402.571 332.195 402.672 332.132 402.775C331.88 403.21 331.674 403.669 331.518 404.146C331.329 404.737 331.265 405.36 331.329 405.977C331.393 406.594 331.584 407.19 331.891 407.729C331.912 407.767 331.936 407.802 331.96 407.838C332.144 408.122 332.352 408.388 332.581 408.637C332.864 408.915 333.177 409.163 333.514 409.374C333.612 409.438 333.715 409.494 333.822 409.542C334.227 409.741 334.647 409.908 335.077 410.044L336.033 410.173C336.514 410.194 336.992 410.088 337.419 409.863C337.719 409.78 337.992 409.621 338.212 409.401C338.602 409.149 338.921 408.802 339.138 408.392L339.234 408.223L336.6 409.733C337.076 409.754 337.552 409.745 338.027 409.707C338.803 409.687 339.545 409.38 340.107 408.845C340.381 408.572 340.597 408.248 340.745 407.891C340.893 407.534 340.969 407.152 340.969 406.765C340.969 406.379 340.893 405.997 340.745 405.64C340.597 405.283 340.381 404.959 340.107 404.686L339.512 404.226C339.061 403.962 338.549 403.824 338.027 403.824Z" fill="white" fill-opacity="0.2"/>
<path d="M371.071 339.166C373.142 339.166 375.126 337.346 375.03 335.209C375.013 334.165 374.59 333.168 373.851 332.43C373.112 331.691 372.115 331.269 371.071 331.251C369 331.251 367.015 333.071 367.111 335.209C367.129 336.253 367.552 337.249 368.291 337.988C369.029 338.726 370.026 339.149 371.071 339.166Z" fill="white" fill-opacity="0.2"/>
<path d="M203.108 404.115L201.403 404.265C201.283 404.275 201.163 404.285 201.043 404.297C200.572 404.302 200.111 404.44 199.714 404.694L199.594 404.783C199.248 404.985 198.96 405.275 198.761 405.623C198.561 405.971 198.456 406.365 198.456 406.766C198.456 407.167 198.561 407.561 198.761 407.908C198.96 408.256 199.248 408.546 199.594 408.748L199.714 408.837C200.111 409.092 200.572 409.229 201.043 409.235C201.163 409.246 201.283 409.256 201.403 409.266L203.108 409.416C203.806 409.398 204.469 409.112 204.963 408.619C205.456 408.126 205.741 407.463 205.76 406.766L205.665 406.061C205.543 405.619 205.308 405.216 204.983 404.891L204.447 404.477C204.041 404.239 203.579 404.114 203.108 404.115Z" fill="white" fill-opacity="0.2"/>
<path d="M97.5034 381.996L97.4308 379.302C97.4232 378.85 97.2444 378.419 96.9307 378.095C96.6105 377.775 96.1762 377.595 95.7234 377.595C95.2705 377.595 94.8362 377.775 94.516 378.095C94.2051 378.421 94.0268 378.851 94.0159 379.302L93.9434 381.996C93.9434 382.23 93.9894 382.461 94.0789 382.677C94.1683 382.893 94.2994 383.089 94.4647 383.255C94.63 383.42 94.8262 383.551 95.0422 383.64C95.2581 383.73 95.4896 383.776 95.7234 383.776C95.9571 383.776 96.1886 383.73 96.4045 383.64C96.6205 383.551 96.8167 383.42 96.982 383.255C97.1473 383.089 97.2784 382.893 97.3679 382.677C97.4573 382.461 97.5034 382.23 97.5034 381.996Z" fill="white" fill-opacity="0.2"/>
<path d="M38.9323 287.428C38.5185 287.343 38.1022 287.263 37.6942 287.153L40.1748 293.247C40.7407 292.379 41.03 291.359 41.0044 290.323C41.0103 290.225 41.0216 290.127 41.0345 290.029L40.8666 291.278C40.9551 290.624 41.0983 289.981 41.1917 289.328C41.3522 288.746 41.3555 288.133 41.2013 287.549C41.0472 286.966 40.7411 286.434 40.3142 286.007C39.8873 285.58 39.3549 285.274 38.7711 285.12C38.1874 284.966 37.5733 284.969 36.9913 285.13C36.4657 285.205 35.9454 285.304 35.427 285.419C35.2613 285.456 35.0957 285.494 34.9323 285.54C34.8682 285.559 34.8043 285.578 34.7414 285.6C34.7164 285.609 34.6917 285.618 34.667 285.627C34.2597 285.783 33.7967 285.974 33.403 286.161C32.5335 286.651 31.8359 287.396 31.4046 288.296C30.9734 289.195 30.8294 290.206 30.9923 291.19C31.0215 291.857 31.2283 292.505 31.5915 293.066L32.381 294.088C32.9987 294.706 33.7665 295.153 34.6092 295.386L35.9515 295.566C36.8472 295.567 37.7271 295.329 38.5 294.877L38.6857 294.735L37.6942 295.154C38.11 295.095 38.5213 295.005 38.9323 294.921L39.8608 294.529C40.3038 294.294 40.6793 293.949 40.9514 293.528C41.1895 293.291 41.3617 292.995 41.4512 292.671C41.6939 292.211 41.8095 291.694 41.7859 291.174L41.6471 290.141L41.2553 289.213C40.7109 288.367 39.89 287.736 38.9323 287.428Z" fill="white" fill-opacity="0.2"/>
<path d="M524.337 103.013L523.919 105.031L524.347 104.016L524.339 104.035L525.005 103.174L524.781 103.456L524.065 104.382C523.736 104.89 523.549 105.477 523.523 106.082C523.414 106.48 523.414 106.899 523.523 107.297C523.549 107.902 523.736 108.489 524.065 108.997L524.069 109.005C524.472 109.694 525.048 110.265 525.74 110.662C526.433 111.059 527.217 111.268 528.015 111.268C528.813 111.268 529.598 111.059 530.29 110.662C530.982 110.265 531.558 109.694 531.961 109.005L531.965 108.997L532.426 107.905C532.616 107.315 532.644 106.686 532.508 106.082C532.508 105.676 532.4 105.278 532.195 104.928C532.013 104.364 531.687 103.857 531.25 103.456L531.025 103.174L531.691 104.035L531.683 104.016L532.111 105.031L531.693 103.013L531.309 102.102C531.078 101.667 530.74 101.299 530.326 101.032C530.093 100.799 529.803 100.63 529.485 100.542C529.033 100.304 528.525 100.191 528.015 100.214L527.001 100.35L526.09 100.734C525.26 101.268 524.64 102.073 524.337 103.013Z" fill="white" fill-opacity="0.2"/>
<path d="M671.194 177.006C673.379 177.006 675.473 175.085 675.371 172.83C675.353 171.728 674.907 170.677 674.127 169.898C673.348 169.119 672.296 168.673 671.194 168.654C669.009 168.654 666.915 170.575 667.016 172.83C667.035 173.932 667.481 174.983 668.261 175.762C669.04 176.541 670.092 176.987 671.194 177.006Z" fill="white" fill-opacity="0.2"/>
<path d="M607.866 148.175C608.433 148.175 608.988 148.007 609.46 147.692C609.932 147.377 610.3 146.929 610.517 146.405C610.734 145.88 610.791 145.304 610.68 144.747C610.57 144.191 610.296 143.68 609.895 143.279C609.494 142.877 608.982 142.604 608.426 142.494C607.869 142.383 607.292 142.44 606.768 142.657C606.243 142.874 605.795 143.242 605.48 143.713C605.164 144.185 604.996 144.74 604.996 145.307C605.004 146.065 605.31 146.79 605.846 147.326C606.382 147.862 607.107 148.167 607.866 148.175Z" fill="white" fill-opacity="0.2"/>
<path d="M500.537 486.635C500.201 486.921 499.861 487.203 499.535 487.5C499.467 487.562 499.4 487.625 499.338 487.693C499.088 487.946 498.87 488.229 498.69 488.536C498.646 488.618 498.311 489.405 498.288 489.49C498.286 489.497 498.147 490.538 498.147 490.543C498.132 490.9 498.18 491.256 498.289 491.597C498.291 491.603 498.686 492.537 498.689 492.542C498.691 492.546 499.305 493.34 499.308 493.342C499.312 493.346 500.106 493.959 500.109 493.961C500.114 493.964 501.052 494.359 501.056 494.36C501.398 494.469 501.758 494.517 502.118 494.502C502.262 494.496 503.05 494.394 503.191 494.359C503.253 494.343 503.314 494.323 503.374 494.299C503.612 494.208 503.848 494.107 504.087 494.017C504.59 493.826 505.096 493.651 505.582 493.412C505.684 493.361 505.787 493.313 505.891 493.266C506.256 493.114 506.58 492.879 506.836 492.578C507.124 492.363 507.349 492.074 507.488 491.743L507.893 490.783C507.957 490.417 508.006 490.049 508.04 489.679L507.505 491.657C507.609 491.477 507.725 491.305 507.85 491.14L507.325 491.819C507.378 491.752 507.431 491.685 507.486 491.621C507.507 491.597 507.527 491.574 507.548 491.551C507.934 491.167 508.216 490.692 508.368 490.169C508.513 489.642 508.513 489.086 508.368 488.559L508.062 487.836C507.799 487.387 507.425 487.013 506.976 486.75C506.913 486.708 506.849 486.668 506.784 486.629C506.264 486.344 505.721 486.101 505.162 485.901L506.892 486.909C506.765 486.77 506.617 486.653 506.453 486.561C506.067 486.207 505.596 485.959 505.086 485.841L504.018 485.698C503.825 485.68 503.631 485.704 503.448 485.767C503.209 485.786 502.973 485.828 502.742 485.89C502.623 485.928 502.505 485.967 502.387 486.009C501.861 486.198 501.354 486.436 500.873 486.72C500.645 486.87 500.41 487.007 500.167 487.131L501.112 486.733C501.098 486.739 501.083 486.744 501.068 486.748L502.118 486.607C502.114 486.607 502.109 486.607 502.105 486.607L503.155 486.748L503.149 486.746L504.092 487.144L504.09 487.143L504.889 487.76L504.888 487.758L505.505 488.556L505.504 488.554L505.902 489.496L505.901 489.494L506.042 490.543C506.041 490.54 506.041 490.538 506.042 490.536L505.901 491.584C505.902 491.578 505.904 491.571 505.906 491.565L505.508 492.507C505.542 492.44 505.584 492.378 505.633 492.321L505.019 493.116C505.309 492.742 505.624 492.387 505.931 492.027C506.621 491.299 507.005 490.334 507.005 489.331C507.005 488.328 506.621 487.363 505.931 486.635L505.159 486.039C504.575 485.697 503.911 485.517 503.234 485.518L502.22 485.655C501.583 485.83 501.003 486.168 500.537 486.635Z" fill="white" fill-opacity="0.2"/>
<path d="M439.905 435.363L437.44 435.433C436.635 435.43 435.844 435.638 435.146 436.036C434.49 436.42 433.946 436.968 433.567 437.627C433.189 438.286 432.99 439.033 432.99 439.793C432.99 440.552 433.189 441.299 433.567 441.958C433.946 442.617 434.49 443.165 435.146 443.549C435.844 443.947 436.635 444.155 437.44 444.152L439.905 444.222C441.071 444.191 442.18 443.715 443.005 442.89C443.829 442.066 444.306 440.958 444.337 439.793L444.179 438.615C443.975 437.876 443.582 437.202 443.039 436.66L442.142 435.968C441.464 435.57 440.692 435.361 439.905 435.363Z" fill="white" fill-opacity="0.2"/>
<path d="M172.818 353.146C175.003 353.146 177.096 351.225 176.995 348.97C176.977 347.868 176.53 346.817 175.751 346.038C174.972 345.259 173.92 344.813 172.818 344.794C170.633 344.794 168.539 346.715 168.64 348.97C168.659 350.072 169.105 351.123 169.885 351.902C170.664 352.681 171.716 353.127 172.818 353.146Z" fill="white" fill-opacity="0.2"/>
<path d="M137.03 56.0978L138.292 54.1225C138.607 53.7118 138.839 53.2433 138.974 52.7435C139.061 52.4139 139.114 52.076 139.131 51.7354L138.514 53.2245L138.514 53.2238C138.904 52.8249 139.124 52.2918 139.132 51.7346C139.108 51.1809 138.89 50.6533 138.514 50.2455C138.118 49.8518 137.583 49.6301 137.025 49.6287C136.468 49.6381 135.935 49.8586 135.535 50.2455L135.534 50.2462L137.024 49.6294C136.713 49.6444 136.404 49.6914 136.103 49.7699L135.937 49.8001C135.805 49.8324 135.677 49.8808 135.557 49.9442C135.421 49.9934 135.29 50.0551 135.166 50.1285L132.657 51.7261C132.174 52.0076 131.775 52.4105 131.497 52.8945C131.219 53.3786 131.073 53.927 131.073 54.4851L131.187 55.3345C131.335 55.8677 131.618 56.3536 132.01 56.7444C132.629 57.3138 133.429 57.6453 134.27 57.6803C134.828 57.6805 135.377 57.5345 135.861 57.2569C136.346 56.9792 136.749 56.5796 137.03 56.0978Z" fill="white" fill-opacity="0.2"/>
<path d="M863.939 98.6733C864.514 98.6733 865.076 98.5029 865.554 98.1837C866.032 97.8645 866.404 97.4109 866.624 96.8801C866.844 96.3493 866.902 95.7653 866.789 95.2018C866.677 94.6384 866.401 94.1208 865.994 93.7145C865.588 93.3083 865.07 93.0316 864.506 92.9195C863.942 92.8075 863.358 92.865 862.827 93.0849C862.296 93.3047 861.842 93.677 861.523 94.1547C861.204 94.6324 861.033 95.194 861.033 95.7685C861.042 96.5363 861.35 97.2702 861.894 97.8131C862.437 98.356 863.171 98.6648 863.939 98.6733Z" fill="white" fill-opacity="0.2"/>
<path d="M485.048 548.21C484.531 548.751 484.001 549.284 483.518 549.855C483.252 550.152 483.01 550.469 482.794 550.804C482.665 551.031 482.558 551.27 482.477 551.519C482.402 551.764 482.363 552.018 482.361 552.274C482.36 552.68 482.468 553.078 482.673 553.428C482.994 553.926 483.477 554.298 484.041 554.479C484.439 554.588 484.86 554.588 485.258 554.479L485.269 554.477L483.634 554.263C483.81 554.359 483.995 554.436 484.187 554.494C484.389 554.54 484.595 554.568 484.802 554.579C484.951 554.579 485.1 554.565 485.246 554.537C485.503 554.506 485.756 554.454 486.003 554.379C486.116 554.343 486.229 554.304 486.341 554.265C486.403 554.243 486.465 554.221 486.526 554.199C486.683 554.15 486.836 554.087 486.982 554.011C487.226 553.862 487.428 553.655 487.573 553.409C487.638 553.299 487.696 553.184 487.746 553.066C487.815 552.896 487.844 552.713 487.829 552.53C487.814 552.347 487.757 552.17 487.661 552.014C487.64 551.976 487.619 551.939 487.598 551.901C487.587 551.881 487.576 551.86 487.564 551.84C487.385 551.54 487.114 551.306 486.792 551.172C486.66 551.116 486.529 551.065 486.397 551.014C486.261 550.962 486.126 550.908 485.992 550.852L486.429 551.036C486.251 550.968 486.081 550.878 485.925 550.768L486.339 551.088C486.303 551.061 486.27 551.029 486.242 550.993L486.57 551.417C486.557 551.4 486.546 551.381 486.537 551.361L485.776 554.263C485.963 554.174 486.131 554.047 486.268 553.891C486.676 553.448 486.913 552.875 486.938 552.274L486.94 552.253L486.859 552.862C486.865 552.823 486.877 552.785 486.892 552.749L486.661 553.297C486.712 553.188 486.776 553.087 486.852 552.994L486.492 553.459C486.712 553.19 486.947 552.935 487.198 552.695C487.589 552.307 487.989 551.928 488.387 551.548C488.814 551.097 489.052 550.5 489.052 549.879C489.052 549.258 488.814 548.661 488.387 548.211C487.943 547.769 487.343 547.521 486.717 547.519C486.092 547.525 485.494 547.773 485.048 548.21Z" fill="white" fill-opacity="0.2"/>
<path d="M561.056 547.281C561.097 547.28 561.135 547.263 561.163 547.234C561.191 547.205 561.206 547.166 561.206 547.126C561.206 547.086 561.191 547.047 561.163 547.018C561.135 546.99 561.097 546.973 561.056 546.971C561.016 546.973 560.978 546.99 560.95 547.018C560.922 547.047 560.907 547.086 560.907 547.126C560.907 547.166 560.922 547.205 560.95 547.234C560.978 547.263 561.016 547.28 561.056 547.281Z" fill="white" fill-opacity="0.2"/>
<path d="M775.826 525.218C775.854 525.217 775.881 525.206 775.9 525.185C775.92 525.165 775.931 525.138 775.931 525.11C775.931 525.082 775.92 525.055 775.9 525.034C775.881 525.014 775.854 525.002 775.826 525.001C775.798 525.002 775.771 525.014 775.751 525.034C775.732 525.055 775.721 525.082 775.721 525.11C775.721 525.138 775.732 525.165 775.751 525.185C775.771 525.206 775.798 525.217 775.826 525.218Z" fill="white" fill-opacity="0.2"/>
<path d="M577.579 610.584C577.619 610.582 577.657 610.565 577.685 610.537C577.713 610.508 577.729 610.469 577.729 610.429C577.729 610.389 577.713 610.35 577.685 610.321C577.657 610.292 577.619 610.275 577.579 610.274C577.539 610.275 577.501 610.292 577.473 610.321C577.445 610.35 577.429 610.389 577.429 610.429C577.429 610.469 577.445 610.508 577.473 610.537C577.501 610.565 577.539 610.582 577.579 610.584Z" fill="white" fill-opacity="0.2"/>
<path d="M808.867 497.064C808.051 496.997 807.239 496.922 806.42 496.903C803.18 496.828 800.082 499.803 800.229 503.092C800.26 504.723 800.922 506.28 802.076 507.433C803.231 508.587 804.788 509.249 806.42 509.28L808.867 509.337C812.137 509.413 815.264 506.41 815.115 503.092C814.966 499.773 812.368 496.765 808.867 496.846L806.42 496.903C804.784 496.93 803.218 497.578 802.042 498.716C800.89 499.882 800.24 501.453 800.229 503.092C800.376 506.38 802.951 509.361 806.42 509.28C807.239 509.261 808.051 509.186 808.867 509.119C810.457 509.076 811.976 508.448 813.131 507.354C814.262 506.223 814.897 504.69 814.897 503.092C814.897 501.493 814.262 499.96 813.131 498.83C811.962 497.758 810.452 497.133 808.867 497.064Z" fill="white" fill-opacity="0.2"/>
<path d="M575.274 575.495L575.593 575.033C575.769 574.786 575.956 574.552 576.151 574.334C576.203 574.28 576.252 574.222 576.3 574.16L574.721 575.064C575.308 575.043 575.867 574.71 576.282 574.136C576.698 573.562 576.938 572.79 576.954 571.978L576.874 571.157C576.771 570.642 576.573 570.173 576.3 569.795L575.848 569.313C575.507 569.036 575.118 568.891 574.722 568.891L576.3 569.795C576.181 569.64 576.055 569.495 575.924 569.359C575.738 569.131 575.561 568.89 575.395 568.635L575.274 568.46L574.546 567.683L573.687 567.181C573.223 566.975 572.728 566.944 572.253 567.092C571.638 567.206 571.055 567.539 570.562 568.06C570.069 568.581 569.684 569.271 569.443 570.061C569.219 570.651 569.112 571.312 569.133 571.978L569.262 573.3L569.625 574.488L570.187 575.495L570.915 576.273L571.774 576.775C572.238 576.981 572.733 577.012 573.209 576.863C573.528 576.864 573.841 576.747 574.117 576.524C574.56 576.325 574.959 575.971 575.274 575.495Z" fill="white" fill-opacity="0.2"/>
<path d="M187.926 499.149C187.741 499.072 187.555 498.995 187.369 498.918C187.272 498.878 186.712 498.591 187.146 498.804L186.634 498.588C186.895 498.697 186.92 498.695 186.707 498.582C186.576 498.485 186.414 498.413 186.275 498.327C185.358 497.867 184.369 497.569 183.351 497.445C182.2 497.151 181.032 496.93 179.854 496.782C178.897 496.7 177.937 496.604 176.979 496.536C172.722 496.235 168.482 496.004 164.247 495.435L165.364 495.585C162.083 495.154 158.832 494.524 155.628 493.699C153.425 493.12 150.792 494.43 150.265 496.743C149.985 497.856 150.146 499.034 150.713 500.033C151.28 501.031 152.21 501.773 153.31 502.103C155.83 502.972 158.302 503.974 160.757 505.01L159.699 504.563C166.704 507.526 173.579 510.882 180.777 513.362C184.053 514.491 187.523 510.92 186.459 507.682C184.913 503.136 182.587 498.893 179.585 495.145C177.085 492.05 174.393 489.115 171.525 486.358C170.941 485.78 170.217 485.365 169.423 485.155C168.629 484.946 167.793 484.948 167.001 485.163C166.23 485.387 165.528 485.802 164.96 486.369C164.393 486.937 163.977 487.638 163.753 488.409C161.093 496.638 159.318 505.127 158.457 513.732C158.224 515.787 158.099 517.852 158.081 519.92C158.091 520.935 158.429 521.919 159.044 522.726C159.659 523.534 160.518 524.121 161.494 524.402C163.419 524.84 165.801 524.146 166.745 522.266C168.045 519.849 169.485 517.511 171.058 515.262C173.196 512.023 175.398 508.826 177.663 505.672C178.773 504.125 179.899 502.589 181.062 501.081L180.335 502.022C181.14 500.83 182.083 499.736 183.143 498.764L182.202 499.49C182.561 499.214 182.923 498.942 183.282 498.662L182.342 499.388C182.369 499.368 182.398 499.35 182.429 499.334L181.323 499.801C181.337 499.795 181.351 499.791 181.366 499.787L180.136 499.953C180.145 499.951 180.153 499.951 180.162 499.951L178.932 499.786C178.94 499.787 178.948 499.788 178.955 499.791L177.851 499.326C177.858 499.328 177.864 499.332 177.87 499.337L176.935 498.615C176.942 498.62 176.947 498.627 176.952 498.633L176.23 497.699C176.235 497.707 176.239 497.715 176.243 497.724L175.778 496.623C175.786 496.645 175.791 496.668 175.794 496.692L175.63 495.469C175.636 495.555 175.632 495.641 175.619 495.726L175.782 494.511C175.627 495.132 175.526 495.765 175.481 496.403L175.641 495.215L175.615 495.277L176.066 494.21L176.039 494.274C175.589 495.152 175.405 496.141 175.508 497.122C175.627 498.088 176.058 498.989 176.737 499.686C177.58 500.517 178.713 500.986 179.897 500.994C181.312 501.005 183.165 500.17 183.755 498.782C183.924 498.385 184.091 497.988 184.258 497.59L183.109 499.561C183.796 498.858 184.297 497.996 184.569 497.052C184.842 496.108 184.876 495.111 184.669 494.15C184.329 492.952 183.531 491.935 182.447 491.32C181.362 490.706 180.079 490.543 178.876 490.867C177.991 491.131 177.182 491.6 176.513 492.235C174.986 493.556 173.77 495.415 172.564 497C168.98 501.711 165.614 506.603 162.379 511.559C161.046 513.494 159.823 515.502 158.715 517.574L167.38 519.92C167.419 517.005 167.646 514.096 168.061 511.21L167.895 512.446C168.831 505.123 170.447 497.903 172.72 490.88L164.949 492.93C167.819 495.686 170.511 498.621 173.009 501.718L172.282 500.777C174.257 503.332 175.905 506.123 177.19 509.086L176.722 507.978C177.021 508.689 177.297 509.409 177.55 510.137L183.233 504.457C173.831 501.401 165.028 496.757 155.628 493.699L153.31 502.103C158.153 503.175 163.074 503.862 168.026 504.159C170.332 504.322 172.643 504.424 174.954 504.483C177.355 504.602 179.761 504.462 182.131 504.065C183.195 503.915 184.25 503.71 185.293 503.452C185.69 503.31 186.068 503.123 186.42 502.892C186.505 502.842 186.965 502.544 186.741 502.681C186.324 502.936 187.463 502.342 187.053 502.532C186.824 502.638 187.165 502.476 187.207 502.458C187.444 502.354 187.687 502.259 187.926 502.16C188.247 502.059 188.527 501.859 188.725 501.588C188.924 501.317 189.031 500.99 189.031 500.655C189.031 500.319 188.924 499.992 188.725 499.721C188.527 499.45 188.247 499.25 187.926 499.149Z" fill="white" fill-opacity="0.2"/>
<path d="M751.903 16.7759C750.849 16.331 749.742 16.0238 748.61 15.8617C747.932 15.7599 747.253 15.669 746.574 15.5815C746.307 15.547 746.038 15.5205 745.771 15.4821C745.235 15.4048 745.642 15.4354 745.706 15.4538C745.524 15.4015 745.336 15.362 745.151 15.3171C742.475 14.769 739.745 14.5214 737.013 14.5789C731.502 14.5062 725.983 14.5127 720.484 14.084C719.691 14.0222 718.899 13.9509 718.108 13.8702C717.714 13.8296 717.32 13.7862 716.927 13.74C716.752 13.7196 715.523 13.5687 716.349 13.6737C715.615 13.5804 714.883 13.4624 714.153 13.3388C713.768 13.2801 713.387 13.1992 713.011 13.0964C712.793 13.0329 711.509 12.5781 712.383 12.9534C711.551 12.5076 710.585 12.3813 709.667 12.5984C708.784 12.8493 708.031 13.4284 707.562 14.217C706.762 15.7304 707.016 18.2614 708.826 19.0358C713.758 21.1628 718.513 23.6774 723.047 26.5558C725.335 27.9998 727.566 29.5279 729.742 31.14C730.251 31.517 730.802 31.8761 731.276 32.2961C730.533 31.6376 731.326 32.3358 731.532 32.4979C731.836 32.7362 732.138 32.976 732.439 33.2175C733.517 34.0814 734.579 34.9644 735.626 35.8665C736.817 36.8931 737.988 37.9428 739.138 39.0156C740.342 40.1374 741.417 41.3673 742.584 42.5236C743.274 43.2002 744.185 43.6045 745.15 43.6619C746.114 43.7193 747.067 43.4258 747.832 42.8358C748.597 42.2457 749.123 41.3989 749.312 40.4516C749.501 39.5044 749.341 38.5207 748.862 37.6823C743.495 28.4336 738.127 19.1852 732.76 9.93703C731.219 7.28223 729.68 4.62615 728.143 1.96878C727.735 1.28724 727.135 0.740818 726.418 0.397546C725.702 0.0542739 724.9 -0.0706749 724.112 0.0382431C723.328 0.134837 722.59 0.461523 721.991 0.977042C721.393 1.49256 720.96 2.17379 720.749 2.93474C719.571 8.61279 718.818 14.3709 718.142 20.1272C717.814 22.9248 717.51 25.7251 717.189 28.5236C717.034 29.8744 716.875 31.2245 716.71 32.5741C716.624 33.2703 716.535 33.9663 716.445 34.6619C716.426 34.8009 716.408 34.9398 716.39 35.0788C716.292 35.8228 716.432 34.9009 716.425 34.8149C716.411 35.1883 716.36 35.5594 716.272 35.9226C715.832 39.0354 715.314 42.1356 714.667 45.2126C714.417 46.1841 714.523 47.213 714.965 48.1136C715.407 49.0142 716.157 49.7271 717.079 50.1237C717.931 50.5083 718.89 50.5825 719.791 50.3336C720.808 49.9854 721.682 49.3133 722.28 48.4204C722.669 47.9106 722.026 48.7606 721.938 48.8617C722.023 48.7634 722.099 48.6553 722.18 48.5532C722.378 48.3036 722.578 48.0557 722.78 47.8095C723.183 47.3169 723.592 46.8296 724.008 46.3475C724.914 45.2936 725.842 44.259 726.782 43.2353C728.902 40.9269 731.081 38.6733 733.285 36.4454C737.223 32.4647 741.376 28.6874 745.248 24.6463C746.298 23.5505 747.611 22.4576 747.884 20.8961C748.044 19.9792 748.347 18.9011 748.078 18.0137L747.331 20.8399L747.381 20.7932C747.92 20.2453 748.222 19.5077 748.222 18.7392C748.222 17.9708 747.92 17.2332 747.381 16.6853C746.828 16.155 746.092 15.8589 745.326 15.8589C744.56 15.8589 743.824 16.155 743.271 16.6853L743.221 16.7319L746.049 15.9849C745.467 15.8322 744.857 15.8231 744.27 15.9584C744.157 15.972 744.043 15.9853 743.929 15.9995C743.34 16.0438 742.761 16.1752 742.211 16.3896C741.737 16.6261 741.29 16.913 740.878 17.2455L741.584 16.7114L740.744 17.3601C740.412 17.635 740.092 17.9265 739.767 18.2099C737.959 19.7873 736.244 21.4428 734.536 23.1277C730.066 27.5359 725.645 32.0024 721.421 36.6477C719.206 39.0843 717.061 41.5805 715.087 44.2181L722.7 47.426C723.838 41.7345 724.572 35.9664 725.219 30.2014C725.534 27.4037 725.824 24.6035 726.13 21.8049C726.278 20.4542 726.431 19.1041 726.589 17.7546C726.671 17.0583 726.756 16.3624 726.843 15.6667C726.883 15.3426 726.925 15.0186 726.967 14.6946C726.991 14.5097 727.015 14.3247 727.039 14.1399C727.111 13.5919 727.04 14.1665 727.005 14.3901C727.491 11.28 727.927 8.17227 728.551 5.08469L721.157 6.05065C726.558 15.2793 731.947 24.5157 737.322 33.7598C738.868 36.4115 740.413 39.0633 741.959 41.715L748.237 36.8738C747.193 35.8433 746.04 34.9356 744.954 33.9488C743.917 33.0055 742.863 32.0802 741.793 31.1728C739.478 29.2096 737.094 27.3303 734.64 25.5351C730.232 22.2938 725.584 19.3922 720.736 16.8553C719.409 16.1627 718.068 15.4987 716.712 14.8634C715.998 14.5288 715.279 14.2024 714.557 13.8842C714.216 13.7335 713.873 13.5847 713.53 13.4377C713.377 13.3724 713.224 13.3074 713.071 13.2428C712.89 13.166 711.389 12.5343 712.383 12.9534L710.604 19.5167C710.944 19.5147 711.281 19.5463 711.62 19.5672C711.684 19.5711 712.13 19.5899 712.131 19.5962C712.127 19.5669 711.314 19.4676 712.032 19.5654C712.925 19.6868 713.815 19.8217 714.709 19.9339C716.101 20.1087 717.499 20.2414 718.899 20.3428C721.677 20.5441 724.463 20.6202 727.248 20.6404C729.993 20.6603 732.737 20.6239 735.482 20.595C738.124 20.5672 740.79 20.595 743.425 20.3966C743.933 20.3584 744.426 20.2232 744.928 20.1457C745.077 20.1228 745.225 20.1003 745.374 20.0781C745.489 20.0609 745.922 20.0843 745.54 20.076C746.223 20.0909 746.907 20.0736 747.59 20.0867C748.214 20.0986 748.838 20.148 749.461 20.1551C749.661 20.1455 749.86 20.1247 750.058 20.0928C749.856 20.117 750.376 20.062 750.423 20.0582C750.771 20.03 751.119 20.0058 751.468 19.9854C751.856 19.9726 752.227 19.8229 752.515 19.5627C752.804 19.3026 752.99 18.9488 753.042 18.5642C753.094 18.1796 753.009 17.789 752.8 17.4616C752.591 17.1343 752.273 16.8913 751.903 16.7759Z" fill="white" fill-opacity="0.2"/>
<path d="M33.6867 196.178C32.5773 195.978 31.4482 195.91 30.3227 195.973C29.2396 196.033 28.1377 195.936 27.0635 196.047C24.5637 196.306 22.111 196.756 19.6402 197.205C18.3815 197.434 17.122 197.659 15.8596 197.867C14.7145 198.055 13.4486 198.249 12.4894 198.369C11.2583 198.524 10.0235 198.651 8.78561 198.736C8.17169 198.779 7.55714 198.81 6.94196 198.831C6.59473 198.842 6.24072 198.866 5.89347 198.849C5.71918 198.831 5.54501 198.812 5.37096 198.792C5.06189 198.761 5.02304 198.753 5.25441 198.769C3.97358 198.525 2.49491 199.125 2.17844 200.514C2.01194 201.153 2.10124 201.832 2.42737 202.406C2.75349 202.98 3.29073 203.404 3.92492 203.589C6.294 204.109 8.63532 204.748 10.94 205.503C12.1 205.883 13.2503 206.29 14.3909 206.725C14.9641 206.944 15.5345 207.17 16.1023 207.403C16.2649 207.469 16.4273 207.536 16.5895 207.604C16.4109 207.528 16.4052 207.526 16.5725 207.598C16.8556 207.719 17.1381 207.842 17.4198 207.966C19.7021 208.975 21.9334 210.089 24.1138 211.31C25.225 211.931 26.3219 212.576 27.4045 213.247C27.9121 213.561 28.4278 213.869 28.9156 214.213C28.9953 214.269 29.7127 214.807 29.3437 214.528C29.7644 214.847 30.1775 215.141 30.6148 215.433C31.2093 215.776 31.9086 215.892 32.582 215.757C33.2553 215.623 33.8567 215.248 34.2738 214.703C34.6872 214.158 34.8921 213.483 34.8514 212.801C34.8107 212.118 34.5272 211.472 34.052 210.98C27.6293 203.622 21.2076 196.262 14.7871 188.901C14.3828 188.507 13.8718 188.24 13.3173 188.133C12.7628 188.027 12.1891 188.085 11.6674 188.301C11.1457 188.517 10.6988 188.881 10.3822 189.349C10.0655 189.816 9.89305 190.366 9.88606 190.93C9.76159 201.05 11.518 211.089 11.3695 221.209C11.3752 221.854 11.5897 222.48 11.9808 222.994C12.3719 223.507 12.9186 223.881 13.5394 224.058C14.7584 224.335 16.2829 223.897 16.8772 222.7C20.4819 215.439 25.6537 209.1 30.026 202.316C30.6496 201.348 31.2231 200.528 31.2296 199.299C31.3026 198.648 31.1876 197.989 30.8981 197.401V199.482L30.93 199.438C31.5839 198.536 31.0848 197.141 30.1901 196.618C29.7151 196.354 29.1564 196.283 28.6307 196.421C28.105 196.559 27.6528 196.894 27.3685 197.357L27.3366 197.401L29.6656 196.454C29.0678 196.324 28.4442 196.387 27.8846 196.634C26.9831 196.909 26.197 197.473 25.6473 198.238C24.4723 199.747 23.3556 201.28 22.2744 202.856C19.7478 206.54 17.2629 210.258 14.9365 214.072C13.8139 215.912 12.7133 217.776 11.773 219.718L17.2807 221.209C17.33 211.086 15.5545 201.053 15.6279 190.93L10.7269 192.959C17.1743 200.295 23.6123 207.638 30.0407 214.99L33.478 210.537C32.3686 209.8 31.1776 209.165 30.0307 208.484C28.8979 207.811 27.75 207.165 26.587 206.545C24.2596 205.305 21.8727 204.193 19.4418 203.172C14.8646 201.254 10.1136 199.779 5.25441 198.769V203.589C5.02309 203.612 5.06194 203.605 5.37096 203.568C5.66688 203.529 5.96279 203.489 6.2587 203.449C6.44241 203.463 6.62679 203.464 6.8107 203.454C7.46988 203.42 8.12818 203.373 8.78561 203.312C10.1359 203.19 11.4815 203.016 12.8232 202.823C15.3226 202.462 17.8028 201.983 20.2768 201.48C22.6423 201 25 200.508 27.3503 199.961C28.4241 199.71 29.4286 199.295 30.517 199.094C31.5929 198.895 32.6273 198.688 33.6867 198.414C34.738 198.143 34.8457 196.38 33.6867 196.178Z" fill="white" fill-opacity="0.2"/>
<path d="M44.2968 442.405C42.447 442.089 40.5031 442.46 38.6796 442.792C37.6626 442.978 36.6442 443.164 35.6192 443.299C34.5884 443.503 33.5345 443.564 32.487 443.481C32.2217 443.416 31.9416 443.456 31.7041 443.59C31.4666 443.725 31.2896 443.946 31.2092 444.206C31.1389 444.472 31.1755 444.754 31.3112 444.993C31.4468 445.232 31.6707 445.408 31.9347 445.484C35.9044 446.418 39.6641 448.087 43.0197 450.404C44.1889 451.182 45.2854 449.514 44.4476 448.555C41.7795 445.498 39.1118 442.44 36.4446 439.382C35.7433 438.577 34.419 439.245 34.4086 440.225C34.364 444.429 35.0788 448.599 35.0242 452.803C35.009 453.978 36.7575 454.532 37.3122 453.423C38.3962 451.392 39.6191 449.438 40.9723 447.575C41.5591 446.721 42.1763 445.887 42.7368 445.016C43.0859 444.474 43.5831 443.561 43.1384 442.913V443.777L43.1519 443.759C43.7996 442.865 42.3138 442.009 41.6724 442.894L41.6589 442.913L42.6264 442.52C41.8741 442.296 41.1755 442.979 40.7713 443.5C40.0851 444.385 39.4609 445.311 38.8354 446.239C37.485 448.135 36.2676 450.121 35.1919 452.184L37.4799 452.804C37.4933 448.598 36.7705 444.43 36.7939 440.225L34.7579 441.068C37.4388 444.113 40.1133 447.164 42.7812 450.22L44.2091 448.37C40.6434 446.02 36.6668 444.361 32.487 443.481V445.484C33.4983 445.335 34.5322 445.322 35.5481 445.177C36.6141 445.026 37.6716 444.822 38.7265 444.608C39.7007 444.41 40.6717 444.209 41.6395 443.983C42.0899 443.877 42.5113 443.703 42.9676 443.619C43.4177 443.536 43.8539 443.45 44.2968 443.334C44.7315 443.22 44.7802 442.488 44.2968 442.405Z" fill="white" fill-opacity="0.2"/>
<path d="M359.195 175.677C361.485 175.677 361.489 172.119 359.195 172.119C356.904 172.119 356.9 175.677 359.195 175.677Z" fill="white" fill-opacity="0.2"/>
<path d="M180.691 184.475C180.34 184.405 179.996 184.308 179.66 184.184L180.304 184.456C180.251 184.434 180.2 184.406 180.153 184.372L180.707 184.8C180.691 184.786 180.675 184.771 180.662 184.755L181.093 185.312C181.086 185.302 181.079 185.291 181.074 185.28L181.353 185.94C181.348 185.93 181.345 185.919 181.343 185.907L181.442 186.644C181.441 186.633 181.441 186.621 181.442 186.609L181.343 187.348C181.345 187.331 181.35 187.314 181.357 187.298L181.075 187.966L181.078 187.959L178.664 189.343L178.687 189.346C179.192 189.346 179.688 189.213 180.126 188.96C180.563 188.707 180.925 188.343 181.177 187.905C181.428 187.467 181.559 186.971 181.557 186.466C181.555 185.961 181.42 185.466 181.165 185.03C181.101 184.923 181.025 184.825 180.938 184.736C180.738 184.425 180.462 184.172 180.135 183.999L180.133 183.998L180.707 184.44L180.692 184.426L181.5 186.375C181.494 186.17 181.508 185.965 181.543 185.763L181.461 186.369C181.514 186.054 181.548 185.735 181.562 185.415C181.564 185.268 181.567 185.12 181.57 184.972C181.553 184.572 181.395 184.189 181.123 183.894C180.834 183.611 180.448 183.451 180.044 183.447C179.886 183.451 179.728 183.454 179.571 183.458C179.239 183.473 178.91 183.513 178.585 183.579C178.389 183.607 178.197 183.654 178.01 183.718H179.476C179.468 183.716 179.462 183.714 179.455 183.712L179.452 183.71C179.083 183.592 178.689 183.574 178.31 183.659C178.181 183.669 178.052 183.686 177.924 183.712L177.239 184.001L176.658 184.449L176.209 185.03C176.003 185.349 175.885 185.717 175.869 186.096C175.8 186.346 175.8 186.609 175.869 186.859C175.934 187.353 176.129 187.821 176.433 188.216C176.634 188.526 176.912 188.781 177.239 188.954L177.253 188.962L175.868 186.549C175.87 186.815 175.906 187.079 175.974 187.337C176.012 187.454 176.094 187.622 176.121 187.686C176.155 187.768 176.21 187.924 176.269 188.033C176.522 188.466 176.884 188.825 177.317 189.077C177.808 189.363 178.37 189.502 178.937 189.479C179.53 189.426 180.116 189.321 180.691 189.167L181.272 188.922C181.55 188.775 181.785 188.559 181.955 188.295C182.104 188.146 182.212 187.961 182.268 187.758C182.42 187.47 182.493 187.147 182.478 186.821L182.391 186.174L182.145 185.593C181.805 185.064 181.291 184.669 180.691 184.475Z" fill="white" fill-opacity="0.2"/>
<path d="M337.032 68.5763C337.744 68.5763 338.439 68.3655 339.03 67.9705C339.622 67.5756 340.083 67.0142 340.355 66.3573C340.627 65.7005 340.698 64.9777 340.56 64.2804C340.421 63.5831 340.078 62.9426 339.575 62.4399C339.072 61.9372 338.432 61.5948 337.734 61.4561C337.036 61.3174 336.313 61.3886 335.656 61.6607C334.999 61.9328 334.437 62.3935 334.042 62.9846C333.647 63.5758 333.436 64.2707 333.436 64.9817C333.447 65.9318 333.829 66.84 334.501 67.5119C335.173 68.1837 336.082 68.5658 337.032 68.5763Z" fill="white" fill-opacity="0.2"/>
<path d="M312.676 187.463C312.579 187.742 312.484 188.023 312.37 188.295L312.763 187.365C312.752 187.391 312.74 187.418 312.728 187.445L316.121 185.499C316.067 185.494 316.011 185.488 315.956 185.485L314.759 185.646C314.187 185.777 313.659 186.055 313.227 186.452C313.053 186.586 312.903 186.701 312.742 186.827L313.655 186.122C313.621 186.148 313.584 186.169 313.544 186.186L314.628 185.729C314.572 185.751 314.513 185.766 314.452 185.774L315.667 185.611C315.492 185.626 315.315 185.618 315.141 185.588L316.382 185.755C316.272 185.74 316.162 185.722 316.052 185.702L319.359 189.008C319.302 188.508 319.114 188.032 318.814 187.629L317.996 186.57C317.357 185.93 316.561 185.467 315.688 185.226L314.298 185.039C313.37 185.038 312.458 185.284 311.657 185.753L310.599 186.57C309.958 187.21 309.494 188.005 309.253 188.878C309.036 189.552 309.004 190.272 309.16 190.963C309.19 191.654 309.404 192.325 309.781 192.907C310.288 193.807 311.061 194.529 311.993 194.976C312.926 195.422 313.973 195.571 314.993 195.403C315.685 195.373 316.356 195.158 316.938 194.782C318.077 194.05 318.926 192.946 319.342 191.658C319.579 189.849 319.59 189.804 319.377 191.523L316.072 194.825C316.716 194.68 317.339 194.452 317.925 194.149C317.965 194.13 318.004 194.107 318.042 194.082C318.052 194.076 318.061 194.068 318.071 194.061L318.991 193.35L319.006 193.339C319.021 193.326 319.035 193.314 319.048 193.301C319.343 192.997 319.603 192.661 319.824 192.3C320.023 191.982 320.441 190.673 320.3 191.185C320.515 190.399 320.515 189.57 320.298 188.785C320.14 188.201 319.864 187.656 319.487 187.183C319.109 186.71 318.639 186.32 318.105 186.035L319.911 188.383C319.832 188.071 319.718 187.767 319.612 187.463L319.25 186.605C319.032 186.195 318.713 185.848 318.323 185.596C318.103 185.376 317.83 185.217 317.53 185.134C317.104 184.909 316.625 184.802 316.144 184.824L315.188 184.953L314.329 185.315C313.546 185.818 312.962 186.578 312.676 187.463Z" fill="white" fill-opacity="0.2"/>
<path d="M47.0708 151.138C47.6739 151.077 48.2779 151.022 48.8805 150.956L49.653 150.852C50.0218 150.767 50.3623 150.588 50.6411 150.332C50.8566 150.206 51.036 150.027 51.1623 149.811C51.4182 149.533 51.5974 149.192 51.6824 148.824L51.697 148.787L49.7627 150.721L50.6009 150.377C50.6666 150.35 50.7324 150.323 50.7981 150.296C51 150.213 51.2011 150.129 51.4014 150.042C51.5701 149.916 51.7368 149.787 51.9015 149.655C52.3057 149.216 52.5412 148.648 52.566 148.052C52.5699 147.753 52.513 147.457 52.3988 147.182C52.2846 146.906 52.1154 146.656 51.9015 146.448C51.7368 146.317 51.5701 146.188 51.4014 146.061C51.2011 145.975 51 145.89 50.7981 145.807C50.7324 145.78 50.6667 145.753 50.6009 145.726L49.7627 145.382L51.697 147.316L51.6825 147.28L51.3895 146.586C51.2138 146.255 50.9561 145.974 50.6411 145.771C50.4634 145.593 50.2425 145.464 50 145.397C49.6558 145.216 49.2693 145.13 48.8805 145.147C48.2779 145.081 47.6739 145.026 47.0708 144.965C46.2587 144.987 45.4858 145.319 44.9114 145.893C44.337 146.467 44.0047 147.24 43.983 148.052C43.9866 148.869 44.3114 149.653 44.8874 150.234L45.5124 150.717C45.985 150.993 46.523 151.139 47.0708 151.138Z" fill="white" fill-opacity="0.2"/>
<path d="M270.101 452.144C270.434 453.013 270.916 453.817 271.526 454.519L270.548 452.159C270.548 452.165 270.548 452.18 270.548 452.188C270.549 452.195 270.67 453.105 270.672 453.112C270.718 453.28 269.66 450.717 270.849 453.534C270.982 453.974 271.236 454.368 271.582 454.672C272.021 455.113 272.569 455.432 273.169 455.597L274.125 455.725C274.606 455.747 275.085 455.64 275.511 455.416C275.811 455.333 276.084 455.174 276.304 454.954C276.694 454.702 277.013 454.355 277.23 453.945L277.239 453.926C277.27 453.868 277.588 453.116 277.605 453.058C277.609 453.044 277.614 453.031 277.617 453.017C277.655 452.854 277.68 452.568 277.689 452.497C277.709 452.352 277.746 452.147 277.758 451.973C277.762 451.88 277.759 451.786 277.748 451.694C277.691 451.096 277.595 450.501 277.498 449.909L277.157 449.102C276.953 448.717 276.653 448.391 276.287 448.155C276.081 447.948 275.824 447.798 275.542 447.72C275.142 447.51 274.692 447.409 274.24 447.43L273.342 447.55L272.535 447.891C271.8 448.364 271.251 449.077 270.982 449.909C270.945 450.138 270.909 450.368 270.863 450.596C270.838 450.746 270.798 450.893 270.744 451.035L271.104 450.182C271.089 450.22 271.068 450.256 271.044 450.289L271.606 449.563C271.598 449.572 271.59 449.581 271.582 449.589L271.02 450.316C270.761 450.716 270.614 451.177 270.593 451.653C270.507 451.966 270.507 452.296 270.593 452.609C270.614 453.084 270.761 453.545 271.02 453.945C271.021 453.947 271.58 454.671 271.583 454.674L271.023 453.949L271.027 453.955L270.671 453.11L270.673 453.115L270.547 452.183L270.548 452.19L270.672 451.269L270.671 451.277L271.015 450.461L271.009 450.476L273.896 448.82C273.884 448.821 273.873 448.82 273.861 448.818L274.746 448.937C274.556 448.901 274.371 448.841 274.197 448.758L274.941 449.072C274.532 448.899 274.131 448.706 273.729 448.518L273.095 448.25C272.754 448.14 272.388 448.124 272.038 448.203C271.803 448.203 271.572 448.265 271.369 448.384C271.042 448.49 270.748 448.679 270.515 448.932L270.101 449.469L269.833 450.102C269.723 450.443 269.707 450.809 269.786 451.159C269.801 451.509 269.91 451.85 270.101 452.144Z" fill="white" fill-opacity="0.2"/>
<path d="M259.487 539.417L259.346 540.491L262.143 536.818L262.065 536.841C261.342 537.056 260.692 537.464 260.185 538.022C259.678 538.581 259.334 539.267 259.19 540.007C259.046 540.747 259.108 541.512 259.369 542.22C259.629 542.927 260.079 543.55 260.669 544.019C261.238 544.463 261.916 544.746 262.631 544.839C263.347 544.932 264.075 544.831 264.738 544.547C266.117 543.965 267.419 542.399 267.261 540.797L267.152 539.693C267.12 538.64 266.704 537.636 265.982 536.869C265.229 536.126 264.215 535.706 263.156 535.699C260.816 535.804 259.381 537.459 259.16 539.693L259.051 540.797C258.917 542.162 259.955 543.679 261.085 544.34C261.588 544.629 262.148 544.807 262.725 544.864C263.303 544.92 263.887 544.854 264.437 544.668C264.987 544.482 265.491 544.182 265.917 543.787C266.342 543.392 266.679 542.911 266.904 542.376C267.13 541.842 267.239 541.265 267.225 540.685C267.211 540.105 267.074 539.534 266.823 539.011C266.572 538.488 266.212 538.024 265.768 537.649C265.324 537.275 264.806 537 264.248 536.841L264.169 536.818L266.967 540.491L266.825 539.417C266.789 538.452 266.408 537.532 265.751 536.824C265.41 536.483 265.006 536.213 264.56 536.029C264.115 535.844 263.638 535.75 263.156 535.75C262.675 535.75 262.197 535.844 261.752 536.029C261.307 536.213 260.903 536.483 260.562 536.824C259.925 537.545 259.547 538.457 259.487 539.417Z" fill="white" fill-opacity="0.2"/>
<path d="M4.58836 577.777L3.17195 577.67L5.44707 579.402C5.39229 579.131 5.28991 578.871 5.14467 578.636L4.71298 578.077C4.33014 577.684 3.83506 577.417 3.29532 577.315C2.75557 577.213 2.19745 577.28 1.69712 577.507C1.204 577.723 0.782572 578.075 0.482058 578.521C0.181544 578.968 0.0143494 579.491 0 580.029L0.0986191 580.762C0.225737 581.223 0.470402 581.642 0.808624 581.98L1.36737 582.411C1.78996 582.659 2.27103 582.789 2.7608 582.788L3.49473 582.69C4.17493 582.47 4.75803 582.022 5.14467 581.421C5.28991 581.186 5.39229 580.927 5.44707 580.656L3.17195 582.387L4.58836 582.28C5.1807 582.264 5.74444 582.022 6.16344 581.603C6.58244 581.184 6.82479 580.621 6.84059 580.029L6.76014 579.43C6.65643 579.054 6.45684 578.712 6.18093 578.437L5.7251 578.085C5.38036 577.883 4.9879 577.777 4.58836 577.777Z" fill="white" fill-opacity="0.2"/>
<path d="M754.437 404.252C754.085 404.22 753.731 404.222 753.38 404.257C753.125 404.288 752.864 404.312 752.612 404.365C752.564 404.375 752.517 404.388 752.471 404.404C752.017 404.541 751.601 404.781 751.254 405.104L751.732 404.735C751.718 404.743 751.704 404.75 751.689 404.758C751.61 404.804 751.248 405.098 751.434 404.955C751.345 405.016 751.259 405.083 751.177 405.155L751.164 405.169C751.122 405.21 750.807 405.619 750.778 405.669L750.768 405.685L750.763 405.694C750.751 405.714 750.524 406.253 750.516 406.279C750.512 406.293 750.507 406.306 750.503 406.321C750.477 406.415 750.416 406.97 750.457 406.663C750.433 406.777 750.418 406.894 750.411 407.011C750.411 407.014 750.411 407.018 750.411 407.022C750.411 407.034 750.496 407.668 750.499 407.681C750.549 407.897 750.636 408.103 750.756 408.29C750.761 408.297 750.766 408.304 750.771 408.311C750.879 408.465 751.046 408.686 751.17 408.827C751.199 408.859 751.23 408.889 751.264 408.916C751.437 409.061 751.623 409.203 751.806 409.335C751.827 409.35 751.849 409.365 751.871 409.379C751.976 409.444 752.087 409.501 752.201 409.549C752.664 409.764 753.145 409.937 753.639 410.066C753.81 410.107 753.983 410.141 754.157 410.17C754.427 410.215 754.7 410.248 754.972 410.284C755.057 410.295 755.143 410.308 755.229 410.313C755.423 410.297 755.616 410.27 755.807 410.233C755.818 410.229 755.828 410.224 755.84 410.22C756.018 410.154 756.195 410.071 756.37 409.996C756.404 409.982 756.438 409.967 756.472 409.951C756.538 409.922 756.602 409.89 756.666 409.857C756.794 409.791 756.917 409.716 757.035 409.633C757.26 409.502 757.446 409.315 757.575 409.089C757.705 408.864 757.773 408.608 757.773 408.348C757.773 408.088 757.705 407.833 757.575 407.607C757.446 407.382 757.26 407.194 757.035 407.063C757.003 407.04 756.971 407.016 756.94 406.992L757.257 407.237C757.138 407.142 757.025 407.04 756.919 406.93C756.859 406.868 756.802 406.804 756.744 406.741C756.452 406.464 756.099 406.26 755.713 406.146C755.662 406.125 755.612 406.105 755.561 406.083L756.072 406.299C755.566 406.091 755.087 405.819 754.649 405.491L755.128 405.86C754.987 405.755 754.859 405.634 754.747 405.498L755.128 405.991C755.088 405.941 755.055 405.886 755.029 405.828L755.278 406.416L755.269 406.393L755.264 406.377C755.191 406.064 755.039 405.774 754.822 405.537C754.735 405.425 754.677 405.349 754.6 405.255L754.983 405.751C754.97 405.735 754.96 405.718 754.952 405.699L755.196 406.279C755.191 406.265 755.187 406.25 755.184 406.236L755.27 406.875C755.268 406.858 755.268 406.84 755.27 406.823L755.185 407.456C755.188 407.44 755.192 407.423 755.198 407.407L754.959 407.971L754.963 407.964L754.594 408.442C754.612 408.421 754.632 408.402 754.654 408.385L754.178 408.753C754.23 408.716 754.286 408.685 754.345 408.661L753.785 408.897C754.02 408.808 754.265 408.75 754.514 408.725L753.905 408.806C754.082 408.783 754.259 408.767 754.437 408.754C755.029 408.738 755.593 408.496 756.012 408.077C756.431 407.658 756.673 407.095 756.689 406.503L756.609 405.904C756.505 405.529 756.305 405.186 756.029 404.911L755.573 404.559C755.229 404.357 754.836 404.251 754.437 404.252Z" fill="white" fill-opacity="0.2"/>
<path d="M969.609 236.665L969.681 238.172C969.68 238.649 969.807 239.117 970.048 239.528C970.146 239.743 970.293 239.931 970.476 240.079C970.995 240.556 971.665 240.833 972.369 240.862L973.081 240.767C973.528 240.644 973.935 240.407 974.262 240.079C974.446 239.931 974.593 239.743 974.691 239.528C974.932 239.117 975.059 238.649 975.058 238.172L975.13 236.665C975.111 235.939 974.814 235.249 974.3 234.735C973.786 234.222 973.095 233.925 972.369 233.906L971.635 234.004C971.175 234.131 970.755 234.376 970.417 234.714L969.985 235.272C969.738 235.695 969.608 236.176 969.609 236.665Z" fill="white" fill-opacity="0.2"/>
<path d="M420.44 140.187L420.117 139.749L420.369 141.675L420.506 141.277C420.613 140.887 420.616 140.476 420.512 140.084C420.409 139.693 420.204 139.337 419.918 139.051C419.632 138.765 419.275 138.56 418.884 138.456C418.492 138.353 418.081 138.355 417.691 138.463L417.293 138.6L419.22 138.852C418.939 138.593 418.602 138.404 418.234 138.3C417.391 137.959 416.468 137.868 415.574 138.037C414.681 138.206 413.855 138.628 413.194 139.253L412.473 140.187C412.141 140.699 411.952 141.291 411.925 141.901C411.817 142.797 411.966 143.706 412.356 144.52C412.746 145.333 413.361 146.019 414.128 146.496L415.23 146.961C415.825 147.152 416.46 147.18 417.07 147.043C417.68 147.016 418.272 146.827 418.785 146.496L419.719 145.775C420.284 145.211 420.693 144.509 420.905 143.74L421.07 142.514C421.071 141.696 420.854 140.892 420.44 140.187Z" fill="white" fill-opacity="0.2"/>
<path d="M311.83 363.703C314.552 363.703 317.16 361.311 317.034 358.502C317.011 357.13 316.455 355.82 315.484 354.849C314.513 353.879 313.203 353.323 311.83 353.3C309.108 353.3 306.5 355.693 306.626 358.502C306.649 359.874 307.205 361.184 308.176 362.154C309.147 363.125 310.457 363.68 311.83 363.703Z" fill="white" fill-opacity="0.2"/>
<path d="M664.117 466.411L663.327 466.957L666.012 466.605L665.601 466.542C664.696 466.341 663.751 466.414 662.888 466.752C662.067 467.105 661.372 467.699 660.896 468.456L660.825 468.558C659.584 470.342 660.439 473.235 662.311 474.224C663.266 474.751 664.387 474.891 665.442 474.614C666.498 474.338 667.406 473.666 667.979 472.738L668.313 472.259C668.682 471.644 668.877 470.94 668.877 470.222C668.877 469.505 668.682 468.801 668.313 468.186C667.962 467.588 667.463 467.09 666.865 466.739C666.25 466.37 665.545 466.175 664.828 466.175C664.11 466.175 663.406 466.37 662.79 466.739L662.311 467.073C661.398 467.64 660.721 468.519 660.407 469.548C660.121 470.625 660.271 471.771 660.825 472.738C661.961 474.5 664.592 475.549 666.493 474.224L666.596 474.152C668.279 472.979 668.819 471.424 668.51 469.45L668.446 469.038L668.095 471.721L668.64 470.932C669.006 470.3 669.153 469.566 669.06 468.842C668.967 468.118 668.637 467.445 668.123 466.927C667.096 465.985 665.348 465.559 664.117 466.411Z" fill="white" fill-opacity="0.2"/>
<path d="M652.855 295.099C655.421 295.099 657.878 292.845 657.759 290.198C657.737 288.904 657.214 287.67 656.299 286.756C655.384 285.841 654.149 285.318 652.855 285.296C650.29 285.296 647.833 287.55 647.951 290.198C647.973 291.491 648.497 292.725 649.412 293.639C650.327 294.554 651.562 295.077 652.855 295.099Z" fill="white" fill-opacity="0.2"/>
<path d="M713.806 361.334C714.366 361.334 714.914 361.168 715.38 360.857C715.846 360.545 716.209 360.103 716.423 359.586C716.638 359.068 716.694 358.499 716.585 357.949C716.475 357.4 716.205 356.895 715.809 356.499C715.413 356.103 714.908 355.833 714.358 355.724C713.809 355.615 713.239 355.671 712.721 355.885C712.204 356.1 711.761 356.463 711.45 356.928C711.138 357.394 710.972 357.942 710.972 358.502C710.98 359.25 711.282 359.966 711.811 360.495C712.341 361.025 713.057 361.326 713.806 361.334Z" fill="white" fill-opacity="0.2"/>
<path d="M717.129 210.819C717.146 211.116 717.158 211.414 717.192 211.709C717.218 212.001 717.26 212.291 717.317 212.578C717.386 212.833 717.483 213.079 717.605 213.313C717.619 213.345 717.636 213.376 717.655 213.406C717.713 213.492 717.791 213.583 717.847 213.656C717.901 213.725 717.973 213.831 718.044 213.906C718.211 214.085 718.407 214.234 718.624 214.347C718.849 214.472 719.089 214.565 719.339 214.626C719.611 214.68 719.888 214.714 720.165 214.729C720.228 214.731 720.29 214.732 720.352 214.732C720.388 214.732 720.424 214.731 720.46 214.73C720.479 214.73 720.498 214.73 720.516 214.729L721.067 214.655C721.237 214.584 721.407 214.513 721.577 214.44C721.781 214.333 721.958 214.18 722.093 213.993C722.218 213.833 722.342 213.672 722.465 213.511C722.616 213.254 722.695 212.962 722.695 212.664C722.695 212.366 722.616 212.074 722.465 211.817C722.415 211.751 722.366 211.685 722.317 211.618L721.995 211.201C721.877 211.064 721.732 210.953 721.569 210.875C721.406 210.796 721.238 210.725 721.067 210.663L720.516 210.589C720.479 210.585 720.442 210.582 720.405 210.579C720.343 210.573 720.281 210.566 720.219 210.558L720.774 210.632C720.631 210.617 720.491 210.583 720.356 210.532L720.86 210.744C720.808 210.722 720.759 210.694 720.714 210.66L721.143 210.991C721.111 210.966 721.083 210.938 721.058 210.907L721.391 211.337C721.362 211.299 721.338 211.258 721.319 211.214L721.534 211.724C721.502 211.644 721.48 211.56 721.47 211.474L721.547 212.045C721.514 211.637 721.518 211.226 721.561 210.819C721.546 210.236 721.307 209.682 720.895 209.27C720.483 208.858 719.928 208.619 719.345 208.604L718.756 208.683C718.386 208.785 718.049 208.981 717.778 209.253L717.432 209.701C717.233 210.04 717.129 210.426 717.129 210.819Z" fill="white" fill-opacity="0.2"/>
<path d="M830.287 404.779L829.034 406.149C828.911 406.283 828.786 406.417 828.664 406.553C828.244 406.997 828.009 407.585 828.009 408.196C828.009 408.807 828.244 409.395 828.664 409.839L829.135 410.203C829.491 410.411 829.896 410.52 830.308 410.52L830.926 410.437C831.314 410.33 831.668 410.124 831.952 409.839C832.492 409.355 833.025 408.862 833.561 408.373L833.729 408.219C834.17 407.755 834.415 407.139 834.415 406.499C834.415 405.859 834.17 405.244 833.729 404.779L833.237 404.399C832.864 404.181 832.44 404.066 832.008 404.066L831.361 404.153C830.955 404.265 830.585 404.481 830.287 404.779Z" fill="white" fill-opacity="0.2"/>
<path d="M814.581 328.966C814.605 329.514 814.627 330.061 814.653 330.608C814.671 331.286 814.949 331.932 815.429 332.411C815.909 332.891 816.554 333.168 817.233 333.186L817.918 333.094C818.349 332.976 818.741 332.747 819.056 332.431L819.46 331.91C819.691 331.515 819.812 331.066 819.812 330.608C819.838 330.061 819.86 329.514 819.884 328.966C819.866 328.269 819.58 327.606 819.087 327.113C818.594 326.62 817.93 326.334 817.233 326.316L816.528 326.411C816.085 326.533 815.682 326.767 815.357 327.092L814.943 327.629C814.705 328.034 814.58 328.496 814.581 328.966Z" fill="white" fill-opacity="0.2"/>
<path d="M854.166 647.655C854.763 647.655 855.345 647.478 855.841 647.147C856.337 646.816 856.724 646.345 856.952 645.794C857.18 645.244 857.24 644.638 857.123 644.053C857.007 643.468 856.72 642.932 856.298 642.51C855.877 642.089 855.339 641.802 854.754 641.685C854.17 641.569 853.563 641.629 853.012 641.857C852.462 642.085 851.991 642.471 851.659 642.967C851.328 643.462 851.151 644.045 851.151 644.641C851.16 645.438 851.48 646.199 852.044 646.762C852.608 647.325 853.369 647.646 854.166 647.655Z" fill="white" fill-opacity="0.2"/>
<path d="M876.331 551.296C876.856 551.296 877.368 551.14 877.804 550.849C878.24 550.558 878.58 550.144 878.781 549.659C878.982 549.175 879.034 548.642 878.932 548.128C878.83 547.614 878.577 547.142 878.206 546.771C877.835 546.4 877.363 546.148 876.848 546.045C876.334 545.943 875.801 545.996 875.316 546.196C874.832 546.397 874.418 546.737 874.126 547.173C873.835 547.608 873.679 548.121 873.679 548.645C873.687 549.346 873.969 550.015 874.465 550.511C874.96 551.006 875.63 551.288 876.331 551.296Z" fill="white" fill-opacity="0.2"/>
<path d="M755.751 631.638L754.687 631.987C754.297 632.068 753.938 632.257 753.651 632.531C753.536 632.653 753.431 632.784 753.338 632.922L754.436 632.293C754.1 632.297 753.778 632.431 753.537 632.665C753.298 632.904 753.164 633.227 753.164 633.564C753.164 633.901 753.298 634.224 753.537 634.462C753.778 634.696 754.1 634.829 754.436 634.835L753.338 634.205C753.425 634.334 753.522 634.456 753.628 634.57C753.641 634.586 753.655 634.602 753.669 634.618L753.679 634.63C753.779 634.717 753.884 634.799 753.993 634.875C754.119 634.949 754.254 635.006 754.395 635.045C754.471 635.07 754.546 635.095 754.622 635.119L755.751 635.49C756.092 635.586 756.452 635.59 756.794 635.499C757.136 635.409 757.447 635.228 757.695 634.976L758.008 634.572C758.187 634.266 758.281 633.918 758.28 633.564C758.258 633.039 758.051 632.538 757.695 632.152C757.446 631.902 757.134 631.723 756.793 631.633C756.451 631.542 756.092 631.544 755.751 631.638Z" fill="white" fill-opacity="0.2"/>
<path d="M1381.07 419.167C1383.14 419.167 1385.13 417.346 1385.03 415.209C1385.01 414.165 1384.59 413.168 1383.85 412.43C1383.11 411.691 1382.12 411.269 1381.07 411.251C1379 411.251 1377.02 413.071 1377.11 415.209C1377.13 416.253 1377.55 417.249 1378.29 417.988C1379.03 418.726 1380.03 419.149 1381.07 419.167Z" fill="white" fill-opacity="0.2"/>
<path d="M1213.11 484.115L1211.4 484.265C1211.28 484.275 1211.16 484.285 1211.04 484.297C1210.57 484.302 1210.11 484.44 1209.71 484.694L1209.59 484.783C1209.25 484.986 1208.96 485.275 1208.76 485.623C1208.56 485.971 1208.46 486.365 1208.46 486.766C1208.46 487.167 1208.56 487.561 1208.76 487.909C1208.96 488.256 1209.25 488.546 1209.59 488.748L1209.71 488.837C1210.11 489.092 1210.57 489.23 1211.04 489.235C1211.16 489.246 1211.28 489.256 1211.4 489.266L1213.11 489.416C1213.81 489.398 1214.47 489.112 1214.96 488.619C1215.46 488.126 1215.74 487.463 1215.76 486.766L1215.67 486.061C1215.54 485.619 1215.31 485.216 1214.98 484.891L1214.45 484.477C1214.04 484.239 1213.58 484.114 1213.11 484.115Z" fill="white" fill-opacity="0.2"/>
<path d="M1107.5 461.997L1107.43 459.302C1107.42 458.851 1107.24 458.419 1106.93 458.095C1106.61 457.775 1106.18 457.595 1105.72 457.595C1105.27 457.595 1104.84 457.775 1104.52 458.095C1104.21 458.421 1104.03 458.851 1104.02 459.302L1103.94 461.997C1103.94 462.23 1103.99 462.462 1104.08 462.677C1104.17 462.893 1104.3 463.089 1104.46 463.255C1104.63 463.42 1104.83 463.551 1105.04 463.64C1105.26 463.73 1105.49 463.776 1105.72 463.776C1105.96 463.776 1106.19 463.73 1106.4 463.64C1106.62 463.551 1106.82 463.42 1106.98 463.255C1107.15 463.089 1107.28 462.893 1107.37 462.677C1107.46 462.462 1107.5 462.23 1107.5 461.997Z" fill="white" fill-opacity="0.2"/>
<path d="M1048.93 367.428C1048.52 367.343 1048.1 367.263 1047.69 367.153L1050.17 373.247C1050.74 372.379 1051.03 371.359 1051 370.324C1051.01 370.225 1051.02 370.127 1051.03 370.029L1050.87 371.278C1050.96 370.625 1051.1 369.981 1051.19 369.328C1051.35 368.747 1051.36 368.133 1051.2 367.549C1051.05 366.966 1050.74 366.434 1050.31 366.007C1049.89 365.58 1049.35 365.274 1048.77 365.12C1048.19 364.966 1047.57 364.969 1046.99 365.13C1046.47 365.205 1045.95 365.304 1045.43 365.419C1045.26 365.456 1045.1 365.494 1044.93 365.541C1044.87 365.559 1044.8 365.578 1044.74 365.6C1044.72 365.609 1044.69 365.618 1044.67 365.627C1044.26 365.783 1043.8 365.974 1043.4 366.161C1042.53 366.651 1041.84 367.396 1041.4 368.296C1040.97 369.195 1040.83 370.206 1040.99 371.19C1041.02 371.857 1041.23 372.505 1041.59 373.066L1042.38 374.088C1043 374.706 1043.77 375.153 1044.61 375.386L1045.95 375.566C1046.85 375.567 1047.73 375.33 1048.5 374.877L1048.69 374.735L1047.69 375.154C1048.11 375.095 1048.52 375.005 1048.93 374.921L1049.86 374.529C1050.3 374.294 1050.68 373.949 1050.95 373.528C1051.19 373.291 1051.36 372.995 1051.45 372.671C1051.69 372.211 1051.81 371.694 1051.79 371.174L1051.65 370.141L1051.26 369.213C1050.71 368.368 1049.89 367.737 1048.93 367.428Z" fill="white" fill-opacity="0.2"/>
<path d="M1449.91 515.363L1447.44 515.433C1446.64 515.43 1445.84 515.638 1445.15 516.036C1444.49 516.42 1443.95 516.969 1443.57 517.628C1443.19 518.287 1442.99 519.033 1442.99 519.793C1442.99 520.552 1443.19 521.299 1443.57 521.958C1443.95 522.617 1444.49 523.165 1445.15 523.549C1445.84 523.947 1446.64 524.155 1447.44 524.152L1449.91 524.222C1451.07 524.191 1452.18 523.715 1453 522.891C1453.83 522.066 1454.31 520.958 1454.34 519.793L1454.18 518.615C1453.97 517.876 1453.58 517.202 1453.04 516.66L1452.14 515.968C1451.46 515.57 1450.69 515.362 1449.91 515.363Z" fill="white" fill-opacity="0.2"/>
<path d="M1182.82 433.146C1185 433.146 1187.1 431.225 1187 428.97C1186.98 427.869 1186.53 426.817 1185.75 426.038C1184.97 425.259 1183.92 424.813 1182.82 424.795C1180.63 424.795 1178.54 426.715 1178.64 428.97C1178.66 430.072 1179.11 431.123 1179.88 431.902C1180.66 432.681 1181.72 433.127 1182.82 433.146Z" fill="white" fill-opacity="0.2"/>
<path d="M1147.03 136.098L1148.29 134.123C1148.61 133.712 1148.84 133.243 1148.97 132.744C1149.06 132.414 1149.11 132.076 1149.13 131.735L1148.51 133.225L1148.51 133.224C1148.9 132.825 1149.12 132.292 1149.13 131.735C1149.11 131.181 1148.89 130.653 1148.51 130.246C1148.12 129.852 1147.58 129.63 1147.02 129.629C1146.47 129.638 1145.94 129.859 1145.53 130.246L1145.53 130.246L1147.02 129.63C1146.71 129.644 1146.4 129.692 1146.1 129.77L1145.94 129.8C1145.81 129.833 1145.68 129.881 1145.56 129.944C1145.42 129.994 1145.29 130.055 1145.17 130.129L1142.66 131.726C1142.17 132.008 1141.77 132.411 1141.5 132.895C1141.22 133.379 1141.07 133.927 1141.07 134.485L1141.19 135.335C1141.33 135.868 1141.62 136.354 1142.01 136.745C1142.63 137.314 1143.43 137.645 1144.27 137.68C1144.83 137.681 1145.38 137.535 1145.86 137.257C1146.35 136.979 1146.75 136.58 1147.03 136.098Z" fill="white" fill-opacity="0.2"/>
<path d="M1184.93 603.149C1184.74 603.072 1184.55 602.995 1184.37 602.919C1184.27 602.879 1183.71 602.591 1184.15 602.805L1183.63 602.589C1183.89 602.697 1183.92 602.695 1183.71 602.582C1183.58 602.486 1183.41 602.413 1183.27 602.327C1182.36 601.868 1181.37 601.569 1180.35 601.445C1179.2 601.151 1178.03 600.93 1176.85 600.782C1175.9 600.7 1174.94 600.604 1173.98 600.536C1169.72 600.235 1165.48 600.004 1161.25 599.436L1162.36 599.586C1159.08 599.154 1155.83 598.524 1152.63 597.699C1150.42 597.121 1147.79 598.43 1147.26 600.743C1146.99 601.857 1147.15 603.035 1147.71 604.033C1148.28 605.031 1149.21 605.773 1150.31 606.104C1152.83 606.973 1155.3 607.974 1157.76 609.01L1156.7 608.564C1163.7 611.526 1170.58 614.882 1177.78 617.362C1181.05 618.491 1184.52 614.92 1183.46 611.682C1181.91 607.136 1179.59 602.893 1176.58 599.145C1174.08 596.05 1171.39 593.115 1168.52 590.358C1167.94 589.78 1167.22 589.365 1166.42 589.156C1165.63 588.946 1164.79 588.948 1164 589.163C1163.23 589.387 1162.53 589.802 1161.96 590.369C1161.39 590.937 1160.98 591.638 1160.75 592.409C1158.09 600.638 1156.32 609.127 1155.46 617.733C1155.22 619.787 1155.1 621.853 1155.08 623.92C1155.09 624.935 1155.43 625.919 1156.04 626.727C1156.66 627.534 1157.52 628.122 1158.49 628.402C1160.42 628.84 1162.8 628.146 1163.75 626.266C1165.04 623.849 1166.48 621.511 1168.06 619.262C1170.2 616.023 1172.4 612.827 1174.66 609.672C1175.77 608.126 1176.9 606.589 1178.06 605.081L1177.33 606.022C1178.14 604.83 1179.08 603.737 1180.14 602.764L1179.2 603.491C1179.56 603.214 1179.92 602.942 1180.28 602.663L1179.34 603.389C1179.37 603.368 1179.4 603.35 1179.43 603.335L1178.32 603.802C1178.34 603.796 1178.35 603.791 1178.37 603.788L1177.14 603.953C1177.14 603.951 1177.15 603.951 1177.16 603.952L1175.93 603.786C1175.94 603.787 1175.95 603.789 1175.95 603.792L1174.85 603.326C1174.86 603.329 1174.86 603.332 1174.87 603.337L1173.94 602.615C1173.94 602.621 1173.95 602.627 1173.95 602.633L1173.23 601.7C1173.23 601.707 1173.24 601.716 1173.24 601.724L1172.78 600.623C1172.79 600.645 1172.79 600.669 1172.79 600.692L1172.63 599.469C1172.64 599.555 1172.63 599.641 1172.62 599.726L1172.78 598.511C1172.63 599.132 1172.53 599.765 1172.48 600.403L1172.64 599.216L1172.62 599.278L1173.07 598.211L1173.04 598.274C1172.59 599.152 1172.41 600.141 1172.51 601.122C1172.63 602.088 1173.06 602.989 1173.74 603.686C1174.58 604.517 1175.71 604.987 1176.9 604.995C1178.31 605.005 1180.17 604.17 1180.75 602.783C1180.92 602.386 1181.09 601.988 1181.26 601.59L1180.11 603.561C1180.8 602.858 1181.3 601.996 1181.57 601.052C1181.84 600.108 1181.88 599.111 1181.67 598.151C1181.33 596.952 1180.53 595.935 1179.45 595.32C1178.36 594.706 1177.08 594.543 1175.88 594.868C1174.99 595.132 1174.18 595.6 1173.51 596.235C1171.99 597.556 1170.77 599.416 1169.56 601.001C1165.98 605.711 1162.61 610.604 1159.38 615.559C1158.05 617.494 1156.82 619.502 1155.72 621.574L1164.38 623.92C1164.42 621.005 1164.65 618.096 1165.06 615.21L1164.89 616.446C1165.83 609.123 1167.45 601.904 1169.72 594.88L1161.95 596.931C1164.82 599.686 1167.51 602.621 1170.01 605.718L1169.28 604.777C1171.26 607.332 1172.91 610.124 1174.19 613.086L1173.72 611.979C1174.02 612.69 1174.3 613.409 1174.55 614.137L1180.23 608.457C1170.83 605.401 1162.03 600.758 1152.63 597.699L1150.31 606.104C1155.15 607.175 1160.07 607.863 1165.03 608.159C1167.33 608.323 1169.64 608.424 1171.95 608.484C1174.35 608.602 1176.76 608.462 1179.13 608.066C1180.19 607.915 1181.25 607.71 1182.29 607.452C1182.69 607.311 1183.07 607.123 1183.42 606.893C1183.51 606.843 1183.96 606.545 1183.74 606.681C1183.32 606.936 1184.46 606.342 1184.05 606.532C1183.82 606.638 1184.16 606.477 1184.21 606.458C1184.44 606.354 1184.69 606.26 1184.93 606.16C1185.25 606.06 1185.53 605.859 1185.73 605.588C1185.92 605.318 1186.03 604.991 1186.03 604.655C1186.03 604.319 1185.92 603.992 1185.73 603.721C1185.53 603.45 1185.25 603.25 1184.93 603.149Z" fill="white" fill-opacity="0.2"/>
<path d="M1398.72 33.097C1397.61 32.8971 1396.48 32.8283 1395.36 32.8922C1394.27 32.9516 1393.17 32.8546 1392.1 32.966C1389.6 33.2252 1387.15 33.675 1384.67 34.1241C1383.42 34.3529 1382.16 34.5776 1380.89 34.7853C1379.75 34.9737 1378.48 35.1677 1377.52 35.2882C1376.29 35.4429 1375.06 35.5694 1373.82 35.655C1373.21 35.6975 1372.59 35.7291 1371.98 35.7497C1371.63 35.761 1371.27 35.7852 1370.93 35.7675C1370.75 35.7495 1370.58 35.7305 1370.41 35.7104C1370.1 35.6793 1370.06 35.6716 1370.29 35.6873C1369.01 35.4436 1367.53 36.0442 1367.21 37.433C1367.05 38.0719 1367.14 38.7505 1367.46 39.3246C1367.79 39.8987 1368.32 40.3231 1368.96 40.5075C1371.33 41.0274 1373.67 41.6665 1375.97 42.4222C1377.13 42.8013 1378.28 43.2086 1379.43 43.6442C1380 43.863 1380.57 44.0887 1381.14 44.3213C1381.3 44.3879 1381.46 44.4551 1381.62 44.5229C1381.45 44.4472 1381.44 44.445 1381.61 44.5163C1381.89 44.6375 1382.17 44.7603 1382.45 44.8847C1384.74 45.8934 1386.97 47.0081 1389.15 48.2289C1390.26 48.8497 1391.36 49.4952 1392.44 50.1653C1392.95 50.4794 1393.46 50.7875 1393.95 51.1315C1394.03 51.1877 1394.75 51.7261 1394.38 51.4464C1394.8 51.7652 1395.21 52.0599 1395.65 52.3518C1396.24 52.6952 1396.94 52.8104 1397.62 52.676C1398.29 52.5417 1398.89 52.1668 1399.31 51.6216C1399.72 51.0767 1399.93 50.402 1399.89 49.7194C1399.84 49.0367 1399.56 48.3911 1399.09 47.8991C1392.66 40.5403 1386.24 33.1806 1379.82 25.8199C1379.42 25.4258 1378.91 25.1588 1378.35 25.0521C1377.8 24.9454 1377.22 25.0037 1376.7 25.2197C1376.18 25.4357 1375.73 25.8 1375.42 26.2673C1375.1 26.7347 1374.93 27.2846 1374.92 27.8491C1374.8 37.969 1376.55 48.0079 1376.4 58.1278C1376.41 58.7731 1376.62 59.3992 1377.02 59.9126C1377.41 60.426 1377.95 60.7992 1378.57 60.9765C1379.79 61.254 1381.32 60.8159 1381.91 59.6189C1385.52 52.3575 1390.69 46.0186 1395.06 39.2343C1395.68 38.2667 1396.26 37.4465 1396.26 36.2175C1396.34 35.5663 1396.22 34.9077 1395.93 34.3197V36.4006L1395.96 36.3566C1396.62 35.4545 1396.12 34.0593 1395.22 33.5362C1394.75 33.2723 1394.19 33.2018 1393.66 33.3396C1393.14 33.4774 1392.69 33.8128 1392.4 34.2758L1392.37 34.3197L1394.7 33.3724C1394.1 33.2427 1393.48 33.3059 1392.92 33.5528C1392.02 33.8281 1391.23 34.3918 1390.68 35.1572C1389.51 36.6656 1388.39 38.1983 1387.31 39.7747C1384.78 43.4584 1382.3 47.1764 1379.97 50.9905C1378.85 52.8311 1377.75 54.6951 1376.81 56.6367L1382.31 58.1278C1382.36 48.005 1380.59 37.972 1380.66 27.8491L1375.76 29.8782C1382.21 37.2133 1388.65 44.5568 1395.07 51.9086L1398.51 47.4558C1397.4 46.7184 1396.21 46.0836 1395.06 45.4026C1393.93 44.73 1392.78 44.0837 1391.62 43.4637C1389.29 42.2242 1386.91 41.1113 1384.48 40.0909C1379.9 38.1725 1375.15 36.6979 1370.29 35.6873V40.5076C1370.06 40.5303 1370.1 40.5235 1370.41 40.4871C1370.7 40.4474 1371 40.4077 1371.29 40.3678C1371.48 40.3812 1371.66 40.3828 1371.84 40.3725C1372.5 40.3385 1373.16 40.2913 1373.82 40.231C1375.17 40.1086 1376.52 39.9349 1377.86 39.7415C1380.36 39.3812 1382.84 38.9014 1385.31 38.399C1387.68 37.9187 1390.03 37.427 1392.38 36.8794C1393.46 36.6292 1394.46 36.2137 1395.55 36.0125C1396.63 35.8137 1397.66 35.607 1398.72 35.3331C1399.77 35.0613 1399.88 33.2992 1398.72 33.097Z" fill="white" fill-opacity="0.2"/>
<path d="M1369.19 255.677C1371.49 255.677 1371.49 252.119 1369.19 252.119C1366.9 252.119 1366.9 255.677 1369.19 255.677Z" fill="white" fill-opacity="0.2"/>
<path d="M1190.69 264.475C1190.34 264.405 1190 264.308 1189.66 264.184L1190.3 264.456C1190.25 264.434 1190.2 264.406 1190.15 264.372L1190.71 264.8C1190.69 264.787 1190.68 264.771 1190.66 264.755L1191.09 265.312C1191.09 265.302 1191.08 265.292 1191.07 265.28L1191.35 265.941C1191.35 265.93 1191.35 265.919 1191.34 265.907L1191.44 266.644C1191.44 266.633 1191.44 266.621 1191.44 266.609L1191.34 267.348C1191.35 267.331 1191.35 267.314 1191.36 267.298L1191.08 267.966L1191.08 267.959L1188.66 269.344L1188.69 269.346C1189.19 269.346 1189.69 269.213 1190.13 268.96C1190.56 268.707 1190.93 268.343 1191.18 267.905C1191.43 267.467 1191.56 266.971 1191.56 266.466C1191.56 265.961 1191.42 265.466 1191.17 265.03C1191.1 264.924 1191.02 264.825 1190.94 264.736C1190.74 264.426 1190.46 264.172 1190.14 263.999L1190.13 263.998L1190.71 264.44L1190.69 264.426L1191.5 266.375C1191.49 266.17 1191.51 265.965 1191.54 265.764L1191.46 266.369C1191.51 266.054 1191.55 265.735 1191.56 265.416C1191.56 265.268 1191.57 265.12 1191.57 264.973C1191.55 264.572 1191.39 264.19 1191.12 263.894C1190.83 263.612 1190.45 263.451 1190.04 263.448C1189.89 263.451 1189.73 263.454 1189.57 263.458C1189.24 263.473 1188.91 263.514 1188.58 263.579C1188.39 263.607 1188.2 263.654 1188.01 263.718H1189.48C1189.47 263.716 1189.46 263.714 1189.45 263.712L1189.45 263.71C1189.08 263.592 1188.69 263.574 1188.31 263.659C1188.18 263.669 1188.05 263.686 1187.92 263.712L1187.24 264.001L1186.66 264.449L1186.21 265.03C1186 265.349 1185.89 265.717 1185.87 266.096C1185.8 266.346 1185.8 266.609 1185.87 266.859C1185.93 267.353 1186.13 267.821 1186.43 268.216C1186.63 268.527 1186.91 268.781 1187.24 268.954L1187.25 268.962L1185.87 266.549C1185.87 266.815 1185.91 267.08 1185.97 267.337C1186.01 267.455 1186.09 267.622 1186.12 267.686C1186.16 267.769 1186.21 267.924 1186.27 268.033C1186.52 268.466 1186.88 268.825 1187.32 269.077C1187.81 269.363 1188.37 269.502 1188.94 269.479C1189.53 269.426 1190.12 269.321 1190.69 269.167L1191.27 268.922C1191.55 268.775 1191.78 268.559 1191.96 268.295C1192.1 268.147 1192.21 267.962 1192.27 267.759C1192.42 267.47 1192.49 267.147 1192.48 266.821L1192.39 266.175L1192.15 265.594C1191.8 265.064 1191.29 264.669 1190.69 264.475Z" fill="white" fill-opacity="0.2"/>
<path d="M1347.03 148.576C1347.74 148.576 1348.44 148.366 1349.03 147.971C1349.62 147.576 1350.08 147.014 1350.35 146.357C1350.63 145.701 1350.7 144.978 1350.56 144.281C1350.42 143.583 1350.08 142.943 1349.58 142.44C1349.07 141.937 1348.43 141.595 1347.73 141.456C1347.04 141.318 1346.31 141.389 1345.66 141.661C1345 141.933 1344.44 142.394 1344.04 142.985C1343.65 143.576 1343.44 144.271 1343.44 144.982C1343.45 145.932 1343.83 146.84 1344.5 147.512C1345.17 148.184 1346.08 148.566 1347.03 148.576Z" fill="white" fill-opacity="0.2"/>
<path d="M866.744 271.642C866.647 271.921 866.552 272.201 866.438 272.474L866.831 271.543C866.819 271.57 866.808 271.597 866.796 271.623L870.189 269.678C870.135 269.673 870.079 269.667 870.024 269.663L868.826 269.824C868.255 269.956 867.727 270.234 867.294 270.63C867.121 270.764 866.971 270.879 866.81 271.006L867.723 270.301C867.689 270.327 867.652 270.348 867.612 270.365L868.696 269.908C868.639 269.93 868.58 269.945 868.52 269.952L869.735 269.789C869.559 269.804 869.382 269.797 869.209 269.767L870.45 269.934C870.34 269.919 870.23 269.9 870.12 269.881L873.427 273.186C873.37 272.687 873.182 272.211 872.882 271.807L872.064 270.749C871.424 270.108 870.629 269.645 869.756 269.404L868.365 269.218C867.437 269.216 866.526 269.463 865.725 269.931L864.667 270.749C864.026 271.389 863.562 272.184 863.321 273.056C863.104 273.73 863.072 274.45 863.228 275.141C863.258 275.833 863.472 276.504 863.849 277.085C864.356 277.985 865.129 278.708 866.061 279.154C866.993 279.601 868.041 279.75 869.061 279.581C869.753 279.551 870.424 279.337 871.006 278.961C872.144 278.229 872.994 277.124 873.41 275.836C873.646 274.028 873.658 273.983 873.444 275.701L870.14 279.004C870.784 278.858 871.407 278.631 871.992 278.328C872.033 278.308 872.072 278.286 872.11 278.261C872.12 278.254 872.129 278.247 872.138 278.24L873.059 277.529L873.074 277.517C873.088 277.505 873.103 277.493 873.116 277.479C873.41 277.175 873.671 276.84 873.891 276.479C874.091 276.161 874.509 274.852 874.368 275.363C874.583 274.578 874.583 273.749 874.366 272.964C874.208 272.38 873.932 271.835 873.554 271.362C873.177 270.889 872.707 270.498 872.173 270.214L873.979 272.562C873.899 272.249 873.786 271.946 873.68 271.642L873.317 270.783C873.1 270.374 872.781 270.026 872.391 269.775C872.171 269.555 871.898 269.395 871.598 269.312C871.172 269.088 870.693 268.981 870.212 269.003L869.256 269.131L868.397 269.494C867.614 269.997 867.03 270.756 866.744 271.642Z" fill="white" fill-opacity="0.2"/>
<path d="M1057.07 231.138C1057.67 231.078 1058.28 231.022 1058.88 230.956L1059.65 230.852C1060.02 230.767 1060.36 230.588 1060.64 230.332C1060.86 230.206 1061.04 230.027 1061.16 229.812C1061.42 229.533 1061.6 229.192 1061.68 228.824L1061.7 228.788L1059.76 230.721L1060.6 230.377C1060.67 230.35 1060.73 230.323 1060.8 230.296C1061 230.213 1061.2 230.129 1061.4 230.042C1061.57 229.916 1061.74 229.787 1061.9 229.655C1062.31 229.216 1062.54 228.648 1062.57 228.052C1062.57 227.753 1062.51 227.457 1062.4 227.182C1062.28 226.906 1062.12 226.657 1061.9 226.448C1061.74 226.317 1061.57 226.188 1061.4 226.061C1061.2 225.975 1061 225.89 1060.8 225.807C1060.73 225.78 1060.67 225.753 1060.6 225.726L1059.76 225.382L1061.7 227.316L1061.68 227.28L1061.39 226.586C1061.21 226.255 1060.96 225.974 1060.64 225.771C1060.46 225.593 1060.24 225.464 1060 225.397C1059.66 225.216 1059.27 225.13 1058.88 225.147C1058.28 225.081 1057.67 225.026 1057.07 224.965C1056.26 224.987 1055.49 225.319 1054.91 225.893C1054.34 226.467 1054 227.24 1053.98 228.052C1053.99 228.87 1054.31 229.653 1054.89 230.234L1055.51 230.717C1055.98 230.993 1056.52 231.139 1057.07 231.138Z" fill="white" fill-opacity="0.2"/>
<path d="M1418.49 606.717C1418.83 607.586 1419.31 608.39 1419.92 609.092L1418.94 606.732C1418.94 606.738 1418.94 606.753 1418.94 606.762C1418.94 606.768 1419.06 607.678 1419.07 607.685C1419.11 607.853 1418.05 605.29 1419.24 608.107C1419.38 608.547 1419.63 608.942 1419.98 609.245C1420.42 609.686 1420.96 610.005 1421.56 610.17L1422.52 610.298C1423 610.32 1423.48 610.213 1423.9 609.989C1424.2 609.906 1424.48 609.747 1424.7 609.527C1425.09 609.275 1425.41 608.928 1425.62 608.518L1425.63 608.499C1425.66 608.441 1425.98 607.689 1426 607.631C1426 607.617 1426.01 607.604 1426.01 607.59C1426.05 607.427 1426.07 607.141 1426.08 607.07C1426.1 606.925 1426.14 606.72 1426.15 606.546C1426.16 606.453 1426.15 606.36 1426.14 606.267C1426.08 605.669 1425.99 605.074 1425.89 604.482L1425.55 603.675C1425.35 603.29 1425.05 602.964 1424.68 602.728C1424.47 602.521 1424.22 602.371 1423.94 602.294C1423.54 602.083 1423.09 601.982 1422.63 602.003L1421.74 602.123L1420.93 602.464C1420.19 602.937 1419.64 603.65 1419.38 604.482C1419.34 604.711 1419.3 604.941 1419.26 605.169C1419.23 605.319 1419.19 605.466 1419.14 605.608L1419.5 604.755C1419.48 604.793 1419.46 604.829 1419.44 604.862L1420 604.136C1419.99 604.145 1419.98 604.154 1419.98 604.162L1419.41 604.89C1419.16 605.289 1419.01 605.751 1418.99 606.226C1418.9 606.539 1418.9 606.869 1418.99 607.182C1419.01 607.657 1419.16 608.119 1419.41 608.518C1419.41 608.52 1419.97 609.244 1419.98 609.247L1419.42 608.522L1419.42 608.529L1419.06 607.683L1419.07 607.688L1418.94 606.756L1418.94 606.763L1419.07 605.842L1419.06 605.851L1419.41 605.034L1419.4 605.049L1422.29 603.394C1422.28 603.394 1422.27 603.393 1422.25 603.391L1423.14 603.51C1422.95 603.474 1422.77 603.414 1422.59 603.331L1423.33 603.645C1422.93 603.472 1422.52 603.279 1422.12 603.091L1421.49 602.824C1421.15 602.714 1420.78 602.697 1420.43 602.776C1420.2 602.776 1419.97 602.838 1419.76 602.957C1419.44 603.063 1419.14 603.252 1418.91 603.505L1418.49 604.042L1418.23 604.675C1418.12 605.017 1418.1 605.382 1418.18 605.732C1418.2 606.082 1418.3 606.423 1418.49 606.717Z" fill="white" fill-opacity="0.2"/>
<path d="M1269.49 619.417L1269.35 620.491L1272.14 616.818L1272.07 616.841C1271.34 617.056 1270.69 617.464 1270.18 618.023C1269.68 618.581 1269.33 619.267 1269.19 620.007C1269.05 620.747 1269.11 621.513 1269.37 622.22C1269.63 622.927 1270.08 623.55 1270.67 624.019C1271.24 624.463 1271.92 624.746 1272.63 624.839C1273.35 624.932 1274.07 624.831 1274.74 624.547C1276.12 623.965 1277.42 622.399 1277.26 620.797L1277.15 619.693C1277.12 618.64 1276.7 617.636 1275.98 616.869C1275.23 616.126 1274.21 615.706 1273.16 615.699C1270.82 615.804 1269.38 617.459 1269.16 619.693L1269.05 620.797C1268.92 622.162 1269.95 623.68 1271.08 624.34C1271.59 624.629 1272.15 624.807 1272.73 624.864C1273.3 624.921 1273.89 624.854 1274.44 624.668C1274.99 624.483 1275.49 624.182 1275.92 623.787C1276.34 623.392 1276.68 622.911 1276.9 622.377C1277.13 621.842 1277.24 621.265 1277.23 620.685C1277.21 620.105 1277.07 619.534 1276.82 619.011C1276.57 618.488 1276.21 618.024 1275.77 617.65C1275.32 617.276 1274.81 617 1274.25 616.841L1274.17 616.818L1276.97 620.491L1276.83 619.417C1276.79 618.452 1276.41 617.532 1275.75 616.824C1275.41 616.483 1275.01 616.213 1274.56 616.029C1274.12 615.845 1273.64 615.75 1273.16 615.75C1272.67 615.75 1272.2 615.845 1271.75 616.029C1271.31 616.213 1270.9 616.483 1270.56 616.824C1269.93 617.545 1269.55 618.457 1269.49 619.417Z" fill="white" fill-opacity="0.2"/>
<path d="M1014.59 657.778L1013.17 657.67L1015.45 659.402C1015.39 659.131 1015.29 658.871 1015.14 658.636L1014.71 658.078C1014.33 657.684 1013.84 657.418 1013.3 657.315C1012.76 657.213 1012.2 657.28 1011.7 657.507C1011.2 657.723 1010.78 658.075 1010.48 658.521C1010.18 658.968 1010.01 659.491 1010 660.029L1010.1 660.762C1010.23 661.223 1010.47 661.642 1010.81 661.98L1011.37 662.411C1011.79 662.659 1012.27 662.789 1012.76 662.788L1013.49 662.69C1014.17 662.47 1014.76 662.022 1015.14 661.422C1015.29 661.186 1015.39 660.927 1015.45 660.656L1013.17 662.387L1014.59 662.28C1015.18 662.264 1015.74 662.022 1016.16 661.603C1016.58 661.184 1016.82 660.621 1016.84 660.029L1016.76 659.43C1016.66 659.055 1016.46 658.712 1016.18 658.437L1015.73 658.085C1015.38 657.883 1014.99 657.777 1014.59 657.778Z" fill="white" fill-opacity="0.2"/>
<path d="M959.182 415.708C959.991 415.708 960.768 415.387 961.34 414.815C961.912 414.243 962.234 413.467 962.234 412.658C962.234 411.849 961.912 411.074 961.34 410.502C960.768 409.93 959.991 409.608 959.182 409.608C958.373 409.608 957.597 409.93 957.024 410.502C956.452 411.074 956.131 411.849 956.131 412.658C956.131 413.467 956.452 414.243 957.024 414.815C957.597 415.387 958.373 415.708 959.182 415.708Z" fill="white" fill-opacity="0.2"/>
<path d="M1430.44 220.187L1430.12 219.749L1430.37 221.675L1430.51 221.277C1430.61 220.887 1430.62 220.476 1430.51 220.085C1430.41 219.694 1430.2 219.337 1429.92 219.051C1429.63 218.765 1429.27 218.56 1428.88 218.457C1428.49 218.353 1428.08 218.356 1427.69 218.463L1427.29 218.6L1429.22 218.852C1428.94 218.593 1428.6 218.404 1428.23 218.3C1427.39 217.959 1426.47 217.868 1425.57 218.037C1424.68 218.206 1423.85 218.628 1423.19 219.253L1422.47 220.187C1422.14 220.699 1421.95 221.291 1421.93 221.901C1421.82 222.797 1421.97 223.706 1422.36 224.52C1422.75 225.334 1423.36 226.019 1424.13 226.496L1425.23 226.961C1425.82 227.152 1426.46 227.18 1427.07 227.043C1427.68 227.016 1428.27 226.827 1428.79 226.496L1429.72 225.775C1430.28 225.211 1430.69 224.51 1430.91 223.74L1431.07 222.514C1431.07 221.696 1430.85 220.893 1430.44 220.187Z" fill="white" fill-opacity="0.2"/>
</svg>
