<svg width="369" height="523" viewBox="0 0 369 523" fill="none" xmlns="http://www.w3.org/2000/svg">
<path d="M118.682 229.699C118.527 229.687 118.372 229.671 118.218 229.651L118.673 229.712C118.558 229.695 118.445 229.676 118.331 229.653L119.546 230.864L119.523 230.722C119.428 230.381 119.246 230.07 118.995 229.82C118.744 229.569 118.433 229.388 118.091 229.294C117.995 229.273 117.901 229.245 117.809 229.209L118.296 229.415C118.224 229.385 118.155 229.347 118.092 229.302L118.503 229.619C118.462 229.587 118.424 229.55 118.392 229.509L118.709 229.918C118.684 229.885 118.663 229.848 118.647 229.809L118.851 230.292C118.836 230.253 118.825 230.212 118.819 230.171L118.891 230.707C118.885 230.65 118.886 230.593 118.893 230.536L118.821 231.07C118.838 230.968 118.867 230.869 118.909 230.774L118.707 231.252C118.763 231.13 118.827 231.011 118.899 230.898C119.038 230.622 119.158 230.337 119.256 230.044L119.066 230.491C119.227 230.111 119.448 229.745 119.57 229.351C119.653 229.085 119.735 228.819 119.82 228.554C119.873 228.354 119.872 228.143 119.818 227.943C119.764 227.743 119.658 227.561 119.511 227.415C119.364 227.268 119.182 227.163 118.981 227.108C118.781 227.054 118.569 227.054 118.369 227.106C117.6 227.28 116.879 227.621 116.256 228.103C116.092 228.213 115.936 228.335 115.791 228.469C115.663 228.614 115.545 228.768 115.437 228.93C115.397 228.986 115.358 229.043 115.322 229.102C115.179 229.349 115.061 229.611 114.972 229.882C114.865 230.218 114.828 230.573 114.864 230.923C114.901 231.274 115.01 231.614 115.185 231.92C115.197 231.942 115.21 231.962 115.224 231.982C115.329 232.143 115.447 232.295 115.578 232.436C115.74 232.595 115.918 232.736 116.11 232.856C116.166 232.892 116.225 232.924 116.285 232.951C116.516 233.064 116.756 233.16 117.001 233.237L117.546 233.31C117.82 233.322 118.093 233.262 118.336 233.134C118.507 233.087 118.662 232.996 118.788 232.871C119.01 232.728 119.192 232.53 119.316 232.297L119.371 232.201L117.869 233.06C118.14 233.072 118.412 233.067 118.682 233.045C119.125 233.034 119.547 232.859 119.868 232.555C120.024 232.399 120.148 232.215 120.232 232.012C120.316 231.809 120.36 231.592 120.36 231.372C120.36 231.152 120.316 230.935 120.232 230.732C120.148 230.529 120.024 230.344 119.868 230.189L119.529 229.927C119.272 229.777 118.98 229.699 118.682 229.699Z" fill="white" fill-opacity="0.2"/>
<path d="M137.518 192.921C138.699 192.921 139.83 191.886 139.775 190.67C139.765 190.076 139.524 189.509 139.103 189.089C138.682 188.669 138.113 188.429 137.518 188.419C136.337 188.419 135.206 189.454 135.261 190.67C135.271 191.264 135.512 191.83 135.933 192.25C136.354 192.67 136.923 192.911 137.518 192.921Z" fill="white" fill-opacity="0.2"/>
<path d="M41.7761 229.864L40.8042 229.95C40.7359 229.956 40.6675 229.961 40.5991 229.968C40.3303 229.971 40.0678 230.049 39.8414 230.194L39.773 230.244C39.5756 230.359 39.4118 230.524 39.298 230.722C39.1842 230.92 39.1243 231.144 39.1243 231.372C39.1243 231.6 39.1842 231.824 39.298 232.022C39.4118 232.22 39.5756 232.385 39.773 232.5L39.8414 232.55C40.0677 232.695 40.3303 232.773 40.5991 232.776C40.6675 232.783 40.7359 232.788 40.8042 232.794L41.7761 232.88C42.1737 232.869 42.552 232.707 42.8332 232.426C43.1145 232.146 43.2771 231.769 43.2877 231.372L43.2338 230.971C43.1642 230.72 43.0302 230.49 42.845 230.306L42.5391 230.07C42.3077 229.935 42.0443 229.864 41.7761 229.864Z" fill="white" fill-opacity="0.2"/>
<path d="M224.883 58.5945L224.645 59.7423L224.889 59.1654L224.884 59.176L225.263 58.6861L225.136 58.847L224.728 59.3733C224.54 59.6624 224.434 59.9962 224.419 60.3402C224.356 60.5665 224.356 60.8053 224.419 61.0316C224.434 61.3756 224.54 61.7094 224.728 61.9985L224.73 62.003C224.96 62.3948 225.288 62.7198 225.683 62.9456C226.077 63.1715 226.524 63.2903 226.979 63.2903C227.434 63.2903 227.881 63.1715 228.276 62.9456C228.671 62.7198 228.999 62.3948 229.229 62.003L229.231 61.9985L229.494 61.3773C229.602 61.042 229.618 60.6838 229.54 60.3402C229.54 60.1096 229.479 59.883 229.362 59.6839C229.258 59.3631 229.072 59.0748 228.823 58.847L228.695 58.6861L229.075 59.176L229.07 59.1654L229.314 59.7423L229.076 58.5945L228.857 58.0765C228.725 57.8293 228.532 57.6199 228.297 57.4681C228.164 57.3352 227.998 57.2391 227.817 57.1892C227.559 57.0538 227.27 56.9893 226.979 57.0024L226.401 57.0799L225.882 57.2985C225.409 57.6022 225.055 58.0602 224.883 58.5945Z" fill="white" fill-opacity="0.2"/>
<path d="M308.594 100.682C309.84 100.682 311.033 99.5899 310.975 98.3073C310.965 97.6807 310.71 97.0827 310.266 96.6396C309.822 96.1964 309.222 95.9428 308.594 95.9322C307.348 95.9322 306.155 97.0246 306.213 98.3073C306.223 98.9338 306.478 99.5318 306.922 99.975C307.366 100.418 307.966 100.672 308.594 100.682Z" fill="white" fill-opacity="0.2"/>
<path d="M272.496 84.2835C272.819 84.2835 273.136 84.1878 273.405 84.0085C273.674 83.8292 273.883 83.5744 274.007 83.2763C274.131 82.9782 274.163 82.6501 274.1 82.3336C274.037 82.0171 273.881 81.7264 273.652 81.4982C273.424 81.27 273.132 81.1146 272.815 81.0516C272.498 80.9887 272.169 81.021 271.87 81.1445C271.571 81.268 271.315 81.4771 271.136 81.7454C270.956 82.0137 270.86 82.3292 270.86 82.6519C270.865 83.0831 271.039 83.4954 271.344 83.8003C271.65 84.1053 272.063 84.2787 272.496 84.2835Z" fill="white" fill-opacity="0.2"/>
<path d="M211.316 276.802C211.125 276.965 210.931 277.126 210.745 277.294C210.706 277.33 210.668 277.365 210.633 277.404C210.49 277.548 210.366 277.709 210.263 277.884C210.239 277.931 210.048 278.378 210.034 278.427C210.033 278.43 209.954 279.023 209.954 279.025C209.945 279.228 209.973 279.431 210.035 279.625C210.036 279.628 210.261 280.16 210.263 280.162C210.264 280.165 210.616 280.618 210.616 280.618C210.618 280.62 211.072 280.969 211.072 280.969C211.075 280.971 211.61 281.196 211.612 281.196C211.807 281.258 212.012 281.286 212.217 281.277C212.299 281.274 212.748 281.216 212.829 281.196C212.864 281.187 212.899 281.175 212.933 281.162C213.069 281.11 213.203 281.053 213.34 281.001C213.627 280.893 213.915 280.793 214.192 280.657C214.25 280.628 214.309 280.601 214.368 280.574C214.576 280.488 214.761 280.354 214.907 280.183C215.071 280.061 215.199 279.896 215.278 279.708L215.509 279.162C215.546 278.954 215.574 278.744 215.593 278.534L215.288 279.659C215.348 279.557 215.413 279.459 215.485 279.365L215.186 279.751C215.216 279.713 215.246 279.675 215.278 279.638C215.289 279.625 215.301 279.612 215.313 279.598C215.533 279.38 215.693 279.11 215.78 278.813C215.863 278.513 215.863 278.197 215.78 277.897L215.606 277.486C215.456 277.23 215.243 277.018 214.987 276.868C214.951 276.844 214.914 276.821 214.877 276.799C214.581 276.637 214.271 276.499 213.953 276.385L214.939 276.958C214.866 276.88 214.782 276.813 214.688 276.76C214.468 276.559 214.2 276.418 213.909 276.351L213.3 276.269C213.19 276.259 213.08 276.273 212.975 276.309C212.839 276.32 212.705 276.343 212.573 276.379C212.505 276.4 212.438 276.422 212.371 276.446C212.071 276.554 211.782 276.689 211.508 276.851C211.378 276.936 211.244 277.014 211.106 277.085L211.644 276.858C211.636 276.862 211.627 276.865 211.619 276.866L212.217 276.786C212.215 276.787 212.213 276.787 212.21 276.787L212.809 276.867L212.805 276.866L213.343 277.092L213.342 277.091L213.797 277.442L213.796 277.441L214.148 277.895L214.147 277.894L214.374 278.43L214.374 278.428L214.454 279.025L214.454 279.021L214.374 279.618C214.374 279.614 214.375 279.61 214.377 279.607L214.15 280.142C214.169 280.105 214.193 280.069 214.221 280.037L213.871 280.489C214.037 280.276 214.216 280.074 214.391 279.869C214.784 279.455 215.003 278.906 215.003 278.336C215.003 277.765 214.784 277.217 214.391 276.802L213.951 276.463C213.618 276.269 213.239 276.167 212.854 276.167L212.276 276.245C211.913 276.345 211.582 276.537 211.316 276.802Z" fill="white" fill-opacity="0.2"/>
<path d="M176.755 247.638L175.35 247.678C174.891 247.676 174.44 247.795 174.042 248.021C173.668 248.24 173.358 248.552 173.142 248.926C172.927 249.301 172.813 249.726 172.813 250.158C172.813 250.59 172.927 251.015 173.142 251.39C173.358 251.764 173.668 252.076 174.042 252.295C174.44 252.521 174.891 252.639 175.35 252.638L176.755 252.678C177.419 252.66 178.052 252.389 178.522 251.92C178.992 251.451 179.264 250.821 179.281 250.158L179.191 249.488C179.075 249.068 178.851 248.685 178.541 248.376L178.03 247.982C177.643 247.756 177.203 247.638 176.755 247.638Z" fill="white" fill-opacity="0.2"/>
<path d="M24.51 200.872C25.7556 200.872 26.9489 199.78 26.8913 198.497C26.8806 197.871 26.6263 197.273 26.182 196.83C25.7377 196.387 25.1382 196.133 24.51 196.122C23.2644 196.122 22.0711 197.215 22.1287 198.497C22.1394 199.124 22.3937 199.722 22.838 200.165C23.2823 200.608 23.8818 200.862 24.51 200.872Z" fill="white" fill-opacity="0.2"/>
<path d="M4.11044 31.9089L4.82957 30.7854C5.00932 30.5518 5.14137 30.2853 5.21827 30.001C5.26825 29.8135 5.29826 29.6213 5.3078 29.4276L4.95604 30.2746C5.17786 30.0477 5.30379 29.7444 5.3078 29.4276C5.29467 29.1126 5.17046 28.8121 4.95646 28.5801C4.73077 28.3561 4.42559 28.2301 4.10723 28.2292C3.7898 28.2346 3.48626 28.36 3.258 28.5801L4.10723 28.2292C3.92995 28.2377 3.75361 28.2649 3.58186 28.3096L3.48751 28.3268C3.41209 28.3452 3.33922 28.3727 3.27051 28.4087C3.19319 28.4367 3.11864 28.4718 3.04784 28.5136L1.61733 29.4223C1.34255 29.5824 1.11464 29.8116 0.956299 30.0869C0.797953 30.3622 0.714705 30.6742 0.714844 30.9916L0.779938 31.4748C0.86384 31.7781 1.02532 32.0544 1.24856 32.2767C1.60142 32.6006 2.05795 32.7892 2.53704 32.8091C2.85529 32.8092 3.16802 32.7262 3.44408 32.5682C3.72014 32.4103 3.94988 32.183 4.11044 31.9089Z" fill="white" fill-opacity="0.2"/>
<path d="M202.487 311.827C202.192 312.134 201.891 312.438 201.615 312.762C201.464 312.931 201.326 313.112 201.203 313.302C201.129 313.431 201.068 313.568 201.022 313.709C200.979 313.848 200.957 313.993 200.956 314.138C200.955 314.369 201.017 314.596 201.134 314.795C201.316 315.078 201.592 315.29 201.913 315.393C202.14 315.455 202.38 315.455 202.607 315.393L202.613 315.391L201.681 315.27C201.781 315.324 201.887 315.368 201.996 315.401C202.112 315.427 202.229 315.443 202.347 315.45C202.432 315.45 202.517 315.442 202.6 315.426C202.746 315.408 202.891 315.378 203.032 315.336C203.096 315.315 203.16 315.293 203.225 315.271C203.26 315.259 203.295 315.246 203.33 315.234C203.419 315.206 203.506 315.17 203.59 315.127C203.729 315.042 203.844 314.924 203.926 314.784C203.964 314.721 203.997 314.656 204.025 314.589C204.065 314.493 204.081 314.388 204.072 314.284C204.064 314.18 204.031 314.08 203.977 313.991C203.965 313.969 203.953 313.948 203.941 313.927C203.935 313.915 203.928 313.903 203.922 313.892C203.819 313.721 203.665 313.588 203.481 313.512C203.406 313.48 203.332 313.451 203.256 313.422C203.179 313.392 203.102 313.362 203.025 313.329L203.274 313.434C203.173 313.396 203.076 313.344 202.987 313.282L203.223 313.464C203.203 313.448 203.184 313.43 203.168 313.41L203.355 313.651C203.347 313.641 203.341 313.631 203.336 313.619L202.902 315.27C203.009 315.219 203.104 315.147 203.183 315.058C203.415 314.806 203.55 314.48 203.565 314.138L203.566 314.127L203.519 314.473C203.523 314.451 203.53 314.429 203.538 314.409L203.407 314.72C203.436 314.659 203.472 314.601 203.516 314.548L203.311 314.813C203.436 314.66 203.57 314.514 203.713 314.378C203.935 314.157 204.163 313.942 204.39 313.726C204.634 313.469 204.77 313.13 204.77 312.776C204.77 312.423 204.634 312.084 204.39 311.827C204.138 311.576 203.796 311.435 203.439 311.434C203.083 311.438 202.741 311.578 202.487 311.827Z" fill="white" fill-opacity="0.2"/>
<path d="M245.813 311.298C245.836 311.298 245.858 311.288 245.874 311.272C245.89 311.255 245.899 311.233 245.899 311.21C245.899 311.187 245.89 311.166 245.874 311.149C245.858 311.133 245.836 311.123 245.813 311.122C245.791 311.123 245.769 311.133 245.753 311.149C245.737 311.166 245.728 311.187 245.728 311.21C245.728 311.233 245.737 311.255 245.753 311.272C245.769 311.288 245.791 311.298 245.813 311.298Z" fill="white" fill-opacity="0.2"/>
<path d="M368.236 298.749C368.252 298.748 368.267 298.742 368.279 298.73C368.29 298.719 368.296 298.703 368.296 298.687C368.296 298.671 368.29 298.656 368.279 298.644C368.267 298.633 368.252 298.626 368.236 298.626C368.22 298.626 368.205 298.633 368.194 298.644C368.182 298.656 368.176 298.671 368.176 298.687C368.176 298.703 368.182 298.719 368.194 298.73C368.205 298.742 368.22 298.748 368.236 298.749Z" fill="white" fill-opacity="0.2"/>
<path d="M255.232 347.306C255.255 347.305 255.276 347.295 255.292 347.279C255.308 347.262 255.317 347.24 255.317 347.217C255.317 347.195 255.308 347.173 255.292 347.156C255.276 347.14 255.255 347.13 255.232 347.129C255.209 347.13 255.187 347.14 255.171 347.156C255.155 347.173 255.146 347.195 255.146 347.217C255.146 347.24 255.155 347.262 255.171 347.279C255.187 347.295 255.209 347.305 255.232 347.306Z" fill="white" fill-opacity="0.2"/>
<path d="M253.918 327.347L254.1 327.084C254.2 326.943 254.306 326.811 254.417 326.686C254.447 326.656 254.475 326.623 254.502 326.588L253.603 327.102C253.937 327.089 254.256 326.901 254.493 326.574C254.729 326.247 254.866 325.808 254.875 325.346L254.83 324.88C254.771 324.587 254.658 324.32 254.503 324.105L254.245 323.83C254.05 323.673 253.829 323.59 253.603 323.591L254.503 324.105C254.435 324.017 254.363 323.934 254.288 323.857C254.182 323.727 254.082 323.59 253.987 323.445L253.918 323.345L253.503 322.903L253.013 322.618C252.749 322.5 252.466 322.483 252.195 322.567C251.845 322.632 251.513 322.822 251.232 323.118C250.951 323.414 250.731 323.806 250.594 324.256C250.466 324.591 250.405 324.968 250.418 325.346L250.491 326.098L250.697 326.774L251.018 327.347L251.433 327.789L251.923 328.075C252.187 328.192 252.47 328.209 252.741 328.125C252.922 328.126 253.101 328.059 253.258 327.932C253.511 327.819 253.738 327.617 253.918 327.347Z" fill="white" fill-opacity="0.2"/>
<path d="M33.1222 283.921C33.0163 283.877 32.9104 283.833 32.8045 283.789C32.7495 283.767 32.4301 283.603 32.6772 283.724L32.3854 283.602C32.5343 283.663 32.5483 283.662 32.4273 283.598C32.3523 283.543 32.26 283.502 32.1807 283.453C31.6582 283.191 31.0944 283.022 30.5141 282.951C29.8583 282.784 29.1926 282.658 28.5209 282.574C27.9752 282.528 27.4283 282.473 26.8823 282.434C24.4555 282.263 22.0385 282.132 19.6245 281.808L20.261 281.894C18.3911 281.648 16.5379 281.29 14.7114 280.821C13.4557 280.491 11.9549 281.236 11.6544 282.552C11.4952 283.185 11.5867 283.855 11.9099 284.423C12.2331 284.991 12.7633 285.413 13.3902 285.601C14.8267 286.095 16.2356 286.665 17.6353 287.254L17.0321 287C21.0248 288.685 24.9437 290.594 29.0467 292.005C30.9141 292.647 32.8921 290.616 32.286 288.774C31.4048 286.188 30.0787 283.775 28.3673 281.643C26.9423 279.882 25.4079 278.213 23.7729 276.645C23.4405 276.316 23.0273 276.08 22.5747 275.961C22.1221 275.842 21.646 275.843 21.1942 275.965C20.7547 276.092 20.3547 276.328 20.0311 276.651C19.7075 276.974 19.4708 277.373 19.343 277.811C17.8269 282.492 16.8149 287.321 16.3241 292.216C16.1914 293.384 16.1198 294.559 16.1096 295.735C16.1156 296.312 16.3082 296.872 16.6588 297.332C17.0093 297.791 17.4992 298.125 18.0554 298.284C19.1526 298.534 20.5101 298.139 21.0486 297.069C21.7893 295.695 22.6101 294.365 23.5068 293.086C24.7258 291.243 25.9808 289.425 27.2719 287.631C27.9049 286.751 28.5463 285.877 29.2092 285.02L28.7948 285.555C29.254 284.877 29.7911 284.255 30.3954 283.701L29.859 284.115C30.0639 283.957 30.2703 283.803 30.4748 283.644L29.9388 284.057C29.9545 284.045 29.9712 284.035 29.9888 284.026L29.3579 284.292C29.366 284.288 29.3744 284.286 29.3829 284.284L28.6817 284.378C28.6865 284.377 28.6914 284.377 28.6963 284.377L27.9955 284.283C27.9999 284.283 28.0042 284.284 28.0083 284.286L27.379 284.021C27.383 284.023 27.3867 284.025 27.39 284.028L26.8572 283.617C26.8607 283.62 26.8638 283.623 26.8664 283.627L26.4549 283.096C26.4579 283.1 26.4604 283.105 26.4624 283.11L26.1973 282.484C26.2018 282.496 26.205 282.51 26.2067 282.523L26.113 281.827C26.1165 281.876 26.1144 281.925 26.1068 281.973L26.1999 281.282C26.1114 281.635 26.054 281.995 26.0284 282.358L26.1194 281.683L26.1046 281.718L26.3614 281.111L26.3459 281.148C26.0899 281.647 25.9849 282.21 26.0437 282.767C26.1111 283.317 26.3571 283.829 26.7442 284.226C27.2244 284.699 27.8706 284.966 28.5451 284.97C29.352 284.976 30.4081 284.501 30.7443 283.712C30.8405 283.486 30.9361 283.26 31.0312 283.034L30.3762 284.155C30.7676 283.755 31.0536 283.264 31.2087 282.728C31.3639 282.191 31.3833 281.624 31.2654 281.077C31.0719 280.395 30.6168 279.817 29.9986 279.467C29.3805 279.118 28.6492 279.025 27.9631 279.21C27.4591 279.36 26.9977 279.626 26.6162 279.988C25.7458 280.739 25.0526 281.797 24.3653 282.698C22.3226 285.378 20.4038 288.161 18.5598 290.979C17.8001 292.08 17.1029 293.222 16.4714 294.401L21.4105 295.735C21.4326 294.077 21.5622 292.422 21.7985 290.781L21.7038 291.484C22.2377 287.319 23.1586 283.212 24.4545 279.217L20.0246 280.383C21.6606 281.951 23.1951 283.62 24.619 285.382L24.2045 284.846C25.3302 286.3 26.27 287.888 27.0021 289.573L26.7355 288.943C26.9058 289.347 27.0632 289.756 27.2075 290.171L30.4468 286.94C25.0879 285.201 20.0699 282.56 14.7114 280.821L13.3902 285.601C16.151 286.211 18.9558 286.601 21.7784 286.77C23.0932 286.863 24.4104 286.921 25.728 286.955C27.0962 287.022 28.4677 286.942 29.8188 286.717C30.4252 286.631 31.0268 286.515 31.6213 286.368C31.8472 286.288 32.0628 286.181 32.2635 286.05C32.3123 286.021 32.574 285.852 32.4468 285.929C32.2087 286.075 32.858 285.737 32.6244 285.845C32.4937 285.905 32.6881 285.813 32.7119 285.803C32.8474 285.743 32.9855 285.69 33.1222 285.633C33.3048 285.576 33.4644 285.462 33.5777 285.308C33.691 285.154 33.752 284.968 33.752 284.777C33.752 284.586 33.691 284.4 33.5777 284.246C33.4644 284.092 33.3049 283.978 33.1222 283.921Z" fill="white" fill-opacity="0.2"/>
<path d="M354.599 9.54229C353.999 9.28923 353.368 9.11446 352.722 9.0223C352.336 8.96435 351.949 8.91267 351.562 8.86287C351.41 8.8433 351.256 8.82819 351.105 8.80635C350.799 8.76238 351.031 8.77981 351.068 8.79026C350.964 8.76052 350.856 8.73806 350.751 8.71253C349.225 8.40074 347.669 8.2599 346.112 8.29263C342.971 8.25126 339.825 8.25496 336.69 8.01113C336.238 7.97598 335.787 7.93543 335.336 7.88948C335.111 7.86638 334.887 7.84171 334.662 7.81546C334.563 7.80381 333.862 7.718 334.333 7.77775C333.915 7.72466 333.497 7.65756 333.081 7.58721C332.862 7.55382 332.645 7.5078 332.43 7.44936C332.306 7.41325 331.574 7.15453 332.072 7.36802C331.598 7.11443 331.048 7.04259 330.525 7.16607C330.021 7.30877 329.592 7.6382 329.324 8.08674C328.868 8.94757 329.013 10.3873 330.045 10.8277C332.856 12.0376 335.567 13.4679 338.151 15.1052C339.455 15.9266 340.727 16.7957 341.967 17.7127C342.258 17.9271 342.572 18.1314 342.842 18.3703C342.418 17.9958 342.87 18.3929 342.988 18.4851C343.161 18.6206 343.333 18.7571 343.505 18.8944C344.119 19.3858 344.725 19.8881 345.321 20.4012C346 20.9851 346.668 21.5822 347.324 22.1924C348.01 22.8305 348.623 23.5301 349.288 24.1878C349.681 24.5727 350.2 24.8026 350.75 24.8353C351.3 24.8679 351.843 24.701 352.279 24.3654C352.715 24.0297 353.015 23.5481 353.123 23.0093C353.231 22.4705 353.139 21.9109 352.866 21.434C349.807 16.1733 346.747 10.9127 343.688 5.65228C342.809 4.1422 341.932 2.63139 341.056 1.11986C340.823 0.732195 340.481 0.421384 340.073 0.226128C339.664 0.0308715 339.207 -0.0402005 338.758 0.021753C338.311 0.0766968 337.891 0.262519 337.55 0.55575C337.208 0.848982 336.962 1.23647 336.841 1.66931C336.17 4.89903 335.74 8.17432 335.355 11.4485C335.168 13.0398 334.995 14.6327 334.812 16.2245C334.724 16.9928 334.633 17.7608 334.539 18.5284C334.49 18.9245 334.439 19.3203 334.388 19.716C334.377 19.7951 334.367 19.8741 334.356 19.9531C334.301 20.3763 334.381 19.8519 334.377 19.8031C334.369 20.0155 334.339 20.2265 334.289 20.4331C334.039 22.2037 333.743 23.9671 333.375 25.7173C333.232 26.27 333.292 26.8552 333.544 27.3675C333.797 27.8797 334.224 28.2852 334.749 28.5108C335.235 28.7296 335.782 28.7718 336.295 28.6302C336.875 28.4321 337.373 28.0498 337.714 27.542C337.936 27.252 337.569 27.7355 337.519 27.793C337.568 27.7371 337.611 27.6756 337.657 27.6175C337.77 27.4755 337.884 27.3345 337.999 27.1945C338.229 26.9143 338.462 26.6371 338.699 26.3629C339.216 25.7634 339.745 25.1749 340.28 24.5926C341.489 23.2796 342.731 21.9977 343.987 20.7305C346.232 18.4662 348.599 16.3176 350.806 14.019C351.405 13.3958 352.153 12.7741 352.309 11.8859C352.4 11.3644 352.573 10.7511 352.42 10.2464L351.994 11.8539L352.022 11.8274C352.329 11.5157 352.501 11.0961 352.501 10.6591C352.501 10.222 352.329 9.80237 352.022 9.49073C351.707 9.18912 351.287 9.02069 350.851 9.02069C350.414 9.02069 349.994 9.18912 349.679 9.49073L349.651 9.51727L351.263 9.09236C350.931 9.0055 350.583 9.00033 350.249 9.0773C350.184 9.08504 350.119 9.09258 350.054 9.10065C349.719 9.12584 349.389 9.20063 349.075 9.32256C348.805 9.45705 348.55 9.62027 348.315 9.80938L348.717 9.50561L348.239 9.87457C348.049 10.031 347.867 10.1968 347.682 10.358C346.651 11.2552 345.674 12.1969 344.7 13.1553C342.152 15.6627 339.632 18.2032 337.224 20.8455C335.962 22.2315 334.739 23.6514 333.614 25.1517L337.953 26.9763C338.602 23.739 339.02 20.458 339.389 17.1788C339.569 15.5875 339.734 13.9947 339.909 12.4028C339.993 11.6345 340.08 10.8666 340.17 10.099C340.217 9.70292 340.265 9.30706 340.315 8.91136C340.338 8.72701 340.362 8.5427 340.386 8.35843C340.399 8.25323 340.413 8.14805 340.427 8.04288C340.468 7.7312 340.427 8.05805 340.408 8.18523C340.684 6.41616 340.933 4.64846 341.289 2.89222L337.074 3.44167C340.153 8.691 343.224 13.9447 346.288 19.2029C347.169 20.7112 348.05 22.2195 348.931 23.7279L352.51 20.9741C351.915 20.388 351.258 19.8717 350.639 19.3104C350.047 18.7738 349.447 18.2475 348.837 17.7314C347.517 16.6147 346.158 15.5457 344.759 14.5246C342.247 12.6809 339.598 11.0305 336.834 9.58746C336.078 9.19349 335.313 8.81581 334.54 8.45442C334.133 8.2641 333.724 8.07845 333.312 7.89746C333.117 7.81176 332.922 7.7271 332.726 7.64348C332.639 7.60632 332.552 7.56937 332.465 7.53264C332.361 7.48892 331.506 7.12961 332.072 7.36802L331.059 11.1013C331.252 11.1002 331.444 11.1181 331.638 11.13C331.674 11.1322 331.928 11.1429 331.929 11.1465C331.926 11.1298 331.463 11.0734 331.873 11.129C332.381 11.198 332.889 11.2748 333.398 11.3386C334.192 11.438 334.989 11.5135 335.787 11.5712C337.37 11.6857 338.958 11.729 340.546 11.7405C342.11 11.7518 343.675 11.7311 345.24 11.7146C346.745 11.6988 348.265 11.7146 349.767 11.6018C350.057 11.58 350.337 11.5031 350.624 11.4591C350.709 11.446 350.793 11.4332 350.878 11.4206C350.944 11.4108 351.19 11.4241 350.973 11.4194C351.362 11.4279 351.752 11.418 352.141 11.4255C352.497 11.4323 352.853 11.4604 353.207 11.4644C353.322 11.459 353.435 11.4471 353.548 11.429C353.433 11.4427 353.729 11.4115 353.756 11.4093C353.954 11.3933 354.153 11.3795 354.352 11.3679C354.573 11.3606 354.784 11.2754 354.949 11.1275C355.113 10.9795 355.219 10.7783 355.249 10.5595C355.279 10.3407 355.23 10.1185 355.111 9.93233C354.992 9.74612 354.811 9.60794 354.599 9.54229Z" fill="white" fill-opacity="0.2"/>
<path d="M130.748 99.9267C132.054 99.9267 132.056 97.9027 130.748 97.9027C129.443 97.9027 129.441 99.9267 130.748 99.9267Z" fill="white" fill-opacity="0.2"/>
<path d="M28.9979 104.931C28.798 104.891 28.6015 104.836 28.4103 104.766L28.7775 104.92C28.7469 104.908 28.7179 104.892 28.6912 104.872L29.0073 105.116C28.9977 105.108 28.989 105.1 28.9814 105.09L29.227 105.407C29.2228 105.402 29.2192 105.395 29.2163 105.389L29.3751 105.765C29.3726 105.759 29.3708 105.752 29.3697 105.746L29.4262 106.165C29.4254 106.158 29.4253 106.152 29.426 106.145L29.3694 106.565C29.3709 106.556 29.3736 106.546 29.3775 106.537L29.2169 106.917L29.2186 106.913L27.8424 107.7L27.8556 107.702C28.1435 107.702 28.4264 107.626 28.6756 107.482C28.9248 107.338 29.1314 107.131 29.2748 106.882C29.4181 106.633 29.4929 106.351 29.4918 106.063C29.4906 105.776 29.4134 105.495 29.2681 105.247C29.2315 105.186 29.1882 105.13 29.1389 105.079C29.0247 104.903 28.8672 104.759 28.6812 104.66L28.6801 104.66L29.0068 104.911L28.9986 104.903L29.4589 106.012C29.4556 105.895 29.4638 105.779 29.4835 105.664L29.437 106.008C29.4672 105.829 29.4863 105.648 29.4944 105.466C29.4956 105.382 29.4972 105.298 29.4987 105.214C29.4892 104.986 29.399 104.769 29.244 104.601C29.0797 104.44 28.8593 104.349 28.6291 104.347C28.5392 104.348 28.4492 104.35 28.3593 104.353C28.1705 104.361 27.9826 104.384 27.7973 104.422C27.6858 104.437 27.5761 104.464 27.4695 104.5H28.3051C28.3009 104.499 28.2973 104.498 28.2933 104.497L28.2915 104.496C28.0812 104.429 27.8565 104.419 27.641 104.467C27.567 104.473 27.4935 104.482 27.4208 104.497L27.03 104.661L26.6989 104.916L26.4431 105.247C26.3255 105.428 26.2585 105.637 26.249 105.853C26.2101 105.995 26.2101 106.145 26.249 106.287C26.2861 106.568 26.3972 106.834 26.571 107.059C26.6855 107.236 26.8435 107.38 27.03 107.479L27.0379 107.483L26.2485 106.111C26.2498 106.262 26.2702 106.412 26.3093 106.559C26.3308 106.626 26.3774 106.721 26.3927 106.757C26.4126 106.804 26.4437 106.893 26.477 106.955C26.6217 107.201 26.8276 107.406 27.0747 107.549C27.3545 107.711 27.6749 107.791 27.9983 107.778C28.336 107.747 28.6704 107.688 28.9979 107.6L29.3293 107.46C29.4874 107.377 29.6214 107.254 29.7185 107.104C29.8035 107.019 29.865 106.914 29.8969 106.799C29.9836 106.635 30.0248 106.451 30.0164 106.266L29.9669 105.898L29.827 105.567C29.6327 105.266 29.3397 105.041 28.9979 104.931Z" fill="white" fill-opacity="0.2"/>
<path d="M118.115 39.0069C118.521 39.0069 118.917 38.8869 119.254 38.6623C119.591 38.4376 119.854 38.1183 120.009 37.7447C120.165 37.371 120.205 36.9599 120.126 36.5633C120.047 36.1667 119.852 35.8023 119.565 35.5164C119.278 35.2304 118.913 35.0357 118.515 34.9568C118.118 34.8779 117.706 34.9184 117.331 35.0732C116.956 35.2279 116.636 35.49 116.411 35.8262C116.186 36.1625 116.065 36.5578 116.065 36.9622C116.071 37.5026 116.289 38.0192 116.673 38.4014C117.056 38.7835 117.574 39.0009 118.115 39.0069Z" fill="white" fill-opacity="0.2"/>
<path d="M104.232 106.631C104.177 106.789 104.123 106.949 104.058 107.104L104.282 106.575C104.275 106.59 104.268 106.605 104.262 106.62L106.196 105.514C106.165 105.511 106.133 105.507 106.102 105.505L105.419 105.597C105.093 105.672 104.792 105.83 104.546 106.055C104.447 106.132 104.361 106.197 104.27 106.269L104.79 105.868C104.771 105.883 104.749 105.895 104.727 105.904L105.345 105.644C105.312 105.657 105.279 105.666 105.244 105.67L105.937 105.577C105.837 105.586 105.736 105.581 105.637 105.564L106.344 105.659C106.282 105.651 106.219 105.64 106.157 105.629L108.041 107.509C108.009 107.225 107.902 106.955 107.731 106.725L107.265 106.123C106.9 105.759 106.446 105.495 105.949 105.358L105.156 105.252C104.627 105.251 104.108 105.391 103.651 105.658L103.048 106.123C102.682 106.487 102.418 106.939 102.281 107.435C102.157 107.819 102.139 108.228 102.228 108.621C102.245 109.015 102.367 109.396 102.582 109.727C102.871 110.239 103.311 110.65 103.843 110.904C104.374 111.158 104.971 111.243 105.553 111.147C105.947 111.13 106.33 111.008 106.661 110.794C107.31 110.377 107.795 109.749 108.031 109.017C108.167 107.988 108.173 107.962 108.051 108.94L106.168 110.818C106.535 110.736 106.89 110.606 107.224 110.434C107.247 110.423 107.269 110.41 107.291 110.396C107.296 110.392 107.301 110.388 107.307 110.384L107.832 109.98L107.84 109.973C107.848 109.966 107.857 109.959 107.864 109.951C108.032 109.778 108.18 109.587 108.306 109.382C108.42 109.201 108.658 108.456 108.578 108.748C108.701 108.301 108.7 107.829 108.577 107.383C108.487 107.051 108.329 106.741 108.114 106.472C107.899 106.203 107.631 105.98 107.327 105.819L108.356 107.154C108.311 106.976 108.246 106.804 108.186 106.631L107.979 106.142C107.855 105.909 107.673 105.712 107.451 105.569C107.326 105.443 107.17 105.353 106.999 105.306C106.756 105.178 106.483 105.117 106.209 105.13L105.664 105.203L105.174 105.409C104.728 105.695 104.395 106.127 104.232 106.631Z" fill="white" fill-opacity="0.2"/>
<path d="M79.9632 257.184C80.1531 257.678 80.4281 258.135 80.7758 258.535L80.2183 257.192C80.2184 257.195 80.2179 257.204 80.2183 257.209C80.2186 257.213 80.2878 257.73 80.2889 257.734C80.3151 257.83 79.7121 256.372 80.3899 257.974C80.4658 258.225 80.6103 258.449 80.8073 258.622C81.058 258.872 81.3699 259.054 81.7122 259.148L82.2571 259.221C82.5314 259.233 82.8041 259.172 83.0469 259.045C83.218 258.998 83.3739 258.907 83.4992 258.782C83.7214 258.639 83.9032 258.441 84.0272 258.208L84.0323 258.197C84.0495 258.164 84.2311 257.737 84.2409 257.704C84.2433 257.696 84.2459 257.688 84.2478 257.68C84.2694 257.587 84.2832 257.425 84.2887 257.384C84.2998 257.302 84.3212 257.185 84.3278 257.086C84.3302 257.033 84.3283 256.98 84.3222 256.927C84.2897 256.588 84.235 256.249 84.1797 255.912L83.9855 255.453C83.869 255.234 83.6983 255.049 83.4895 254.914C83.3718 254.797 83.2254 254.712 83.0647 254.667C82.8365 254.548 82.5804 254.49 82.3227 254.502L81.8108 254.571L81.3508 254.764C80.9315 255.033 80.6188 255.439 80.4658 255.912C80.4444 256.043 80.4237 256.173 80.3978 256.303C80.3835 256.388 80.3607 256.472 80.33 256.553L80.5351 256.068C80.5263 256.089 80.5148 256.11 80.501 256.129L80.821 255.716C80.8168 255.721 80.8124 255.726 80.8076 255.73L80.4871 256.144C80.3397 256.371 80.2557 256.634 80.2438 256.904C80.195 257.082 80.195 257.27 80.2438 257.448C80.2557 257.718 80.3397 257.981 80.4871 258.208C80.4871 258.208 80.8064 258.621 80.808 258.623L80.4886 258.21L80.4914 258.214L80.288 257.733L80.2892 257.736L80.2177 257.206L80.2182 257.21L80.2888 256.686L80.288 256.691L80.4845 256.226L80.4809 256.235L82.1267 255.293C82.12 255.293 82.1132 255.293 82.1066 255.292L82.6111 255.359C82.5027 255.339 82.3975 255.305 82.2979 255.258L82.7222 255.436C82.489 255.338 82.2605 255.228 82.0313 255.121L81.6702 254.969C81.4753 254.906 81.2672 254.897 81.0675 254.942C80.9334 254.942 80.8017 254.977 80.686 255.045C80.4995 255.105 80.3319 255.213 80.1995 255.357L79.9632 255.662L79.8108 256.022C79.7481 256.216 79.7388 256.424 79.7838 256.623C79.7925 256.823 79.8545 257.016 79.9632 257.184Z" fill="white" fill-opacity="0.2"/>
<path d="M73.9134 306.825L73.8329 307.436L75.4274 305.347L75.3827 305.36C74.9706 305.482 74.5999 305.715 74.311 306.032C74.022 306.35 73.8259 306.74 73.7439 307.161C73.6618 307.582 73.697 308.017 73.8457 308.42C73.9943 308.822 74.2508 309.176 74.587 309.443C74.9113 309.695 75.2976 309.857 75.7055 309.909C76.1134 309.962 76.5281 309.905 76.9063 309.743C77.6926 309.412 78.4347 308.522 78.3446 307.61L78.2825 306.982C78.2643 306.383 78.027 305.812 77.6154 305.376C77.186 304.953 76.608 304.714 76.0048 304.71C74.6704 304.77 73.8527 305.711 73.727 306.982L73.6649 307.611C73.5881 308.387 74.1799 309.25 74.8238 309.626C75.1109 309.79 75.4297 309.891 75.7591 309.924C76.0885 309.956 76.421 309.918 76.7346 309.812C77.0481 309.707 77.3357 309.536 77.5781 309.311C77.8206 309.086 78.0125 308.813 78.141 308.509C78.2696 308.204 78.332 307.877 78.324 307.547C78.316 307.216 78.2378 306.892 78.0947 306.594C77.9515 306.297 77.7467 306.033 77.4936 305.82C77.2406 305.607 76.9451 305.45 76.6268 305.36L76.5821 305.347L78.1767 307.436L78.0961 306.825C78.0755 306.276 77.8582 305.753 77.4836 305.35C77.2894 305.157 77.0588 305.003 76.8051 304.898C76.5514 304.793 76.2794 304.739 76.0048 304.739C75.7301 304.739 75.4582 304.793 75.2044 304.898C74.9507 305.003 74.7201 305.157 74.5259 305.35C74.1629 305.76 73.9474 306.279 73.9134 306.825Z" fill="white" fill-opacity="0.2"/>
<path d="M356.044 229.942C355.843 229.924 355.642 229.925 355.441 229.945C355.296 229.963 355.148 229.976 355.004 230.007C354.977 230.012 354.95 230.02 354.923 230.028C354.665 230.107 354.428 230.243 354.23 230.427L354.502 230.217C354.494 230.221 354.486 230.226 354.478 230.23C354.432 230.256 354.226 230.424 354.332 230.342C354.281 230.377 354.232 230.415 354.186 230.456L354.178 230.464C354.155 230.487 353.975 230.72 353.958 230.748L353.953 230.758L353.95 230.762C353.943 230.774 353.814 231.081 353.809 231.095C353.807 231.103 353.804 231.111 353.802 231.119C353.787 231.172 353.752 231.488 353.775 231.313C353.762 231.379 353.753 231.445 353.749 231.511C353.749 231.514 353.749 231.516 353.749 231.518C353.749 231.524 353.798 231.885 353.799 231.893C353.828 232.016 353.878 232.133 353.946 232.239C353.949 232.243 353.952 232.247 353.954 232.251C354.016 232.339 354.111 232.464 354.182 232.544C354.198 232.563 354.216 232.58 354.235 232.595C354.334 232.678 354.44 232.758 354.545 232.834C354.557 232.842 354.569 232.85 354.581 232.858C354.641 232.895 354.704 232.928 354.77 232.955C355.034 233.077 355.308 233.176 355.589 233.249C355.687 233.272 355.785 233.292 355.884 233.309C356.039 233.334 356.194 233.353 356.349 233.373C356.398 233.379 356.447 233.387 356.496 233.39C356.606 233.38 356.716 233.365 356.825 233.344C356.831 233.342 356.837 233.339 356.844 233.337C356.945 233.299 357.046 233.252 357.146 233.21C357.165 233.201 357.185 233.193 357.204 233.184C357.241 233.167 357.278 233.149 357.315 233.13C357.388 233.093 357.458 233.05 357.525 233.003C357.653 232.929 357.759 232.822 357.833 232.694C357.907 232.565 357.946 232.42 357.946 232.272C357.946 232.124 357.907 231.979 357.833 231.851C357.759 231.722 357.653 231.616 357.525 231.541C357.507 231.528 357.489 231.514 357.471 231.501L357.652 231.64C357.583 231.586 357.519 231.528 357.459 231.465C357.425 231.431 357.392 231.394 357.359 231.358C357.193 231.201 356.992 231.085 356.772 231.019C356.743 231.008 356.714 230.996 356.685 230.984L356.976 231.107C356.687 230.988 356.415 230.834 356.165 230.647L356.438 230.857C356.357 230.797 356.285 230.728 356.221 230.651L356.438 230.931C356.415 230.903 356.397 230.872 356.382 230.839L356.523 231.173L356.518 231.16L356.515 231.151C356.474 230.973 356.387 230.808 356.263 230.673C356.214 230.61 356.181 230.566 356.137 230.513L356.355 230.795C356.348 230.786 356.342 230.776 356.338 230.766L356.477 231.095C356.474 231.087 356.471 231.079 356.47 231.071L356.519 231.434C356.518 231.424 356.518 231.414 356.519 231.404L356.47 231.765C356.472 231.755 356.474 231.746 356.478 231.737L356.342 232.058L356.344 232.054L356.133 232.325C356.144 232.314 356.155 232.303 356.168 232.293L355.896 232.503C355.926 232.481 355.958 232.464 355.992 232.45L355.673 232.584C355.806 232.534 355.946 232.501 356.088 232.486L355.741 232.533C355.842 232.52 355.943 232.51 356.044 232.503C356.382 232.494 356.703 232.356 356.942 232.118C357.181 231.88 357.319 231.559 357.328 231.223L357.282 230.882C357.223 230.668 357.109 230.474 356.952 230.317L356.692 230.117C356.495 230.002 356.272 229.942 356.044 229.942Z" fill="white" fill-opacity="0.2"/>
<path d="M165.66 79.7394L165.476 79.4904L165.619 80.5862L165.697 80.3595C165.758 80.1378 165.76 79.9037 165.701 79.6813C165.642 79.4589 165.525 79.256 165.362 79.0933C165.199 78.9307 164.995 78.814 164.772 78.7553C164.549 78.6966 164.315 78.6978 164.092 78.759L163.865 78.8369L164.964 78.9803C164.804 78.833 164.611 78.7253 164.402 78.6662C163.921 78.4725 163.395 78.4206 162.886 78.5168C162.376 78.6129 161.906 78.8531 161.529 79.2085L161.118 79.7394C160.929 80.031 160.821 80.3676 160.806 80.7146C160.744 81.2242 160.829 81.741 161.051 82.204C161.274 82.667 161.624 83.057 162.061 83.3281L162.69 83.5925C163.029 83.7013 163.391 83.7175 163.738 83.6393C164.086 83.6242 164.424 83.5167 164.716 83.3281L165.248 82.9179C165.57 82.5971 165.803 82.1983 165.925 81.7605L166.019 81.0632C166.019 80.5979 165.895 80.1409 165.66 79.7394Z" fill="white" fill-opacity="0.2"/>
<path d="M103.75 206.878C105.301 206.878 106.788 205.517 106.716 203.919C106.703 203.139 106.386 202.394 105.833 201.842C105.279 201.29 104.532 200.974 103.75 200.96C102.198 200.96 100.712 202.321 100.783 203.919C100.797 204.7 101.113 205.445 101.667 205.997C102.22 206.549 102.967 206.865 103.75 206.878Z" fill="white" fill-opacity="0.2"/>
<path d="M304.56 265.299L304.11 265.609L305.64 265.409L305.406 265.373C304.89 265.259 304.352 265.301 303.86 265.493C303.391 265.694 302.996 266.032 302.724 266.462L302.683 266.52C301.976 267.535 302.463 269.181 303.531 269.743C304.075 270.043 304.714 270.122 305.315 269.965C305.917 269.808 306.435 269.426 306.762 268.898L306.952 268.625C307.162 268.275 307.273 267.875 307.273 267.467C307.273 267.059 307.162 266.658 306.952 266.308C306.751 265.968 306.467 265.685 306.126 265.485C305.776 265.275 305.374 265.164 304.965 265.164C304.556 265.164 304.155 265.275 303.804 265.485L303.531 265.675C303.01 265.998 302.624 266.498 302.445 267.083C302.282 267.696 302.367 268.348 302.683 268.898C303.331 269.9 304.831 270.497 305.914 269.743L305.973 269.702C306.933 269.035 307.24 268.151 307.064 267.028L307.027 266.793L306.827 268.319L307.138 267.87C307.347 267.511 307.431 267.093 307.378 266.682C307.324 266.27 307.137 265.887 306.843 265.593C306.258 265.057 305.262 264.814 304.56 265.299Z" fill="white" fill-opacity="0.2"/>
<path d="M298.141 167.855C299.603 167.855 301.004 166.573 300.936 165.067C300.923 164.331 300.625 163.63 300.103 163.109C299.582 162.589 298.878 162.291 298.141 162.279C296.678 162.279 295.278 163.561 295.345 165.067C295.358 165.803 295.656 166.505 296.178 167.025C296.699 167.545 297.403 167.843 298.141 167.855Z" fill="white" fill-opacity="0.2"/>
<path d="M332.883 205.53C333.203 205.53 333.515 205.436 333.781 205.259C334.046 205.082 334.253 204.83 334.376 204.536C334.498 204.241 334.53 203.917 334.467 203.605C334.405 203.292 334.251 203.005 334.025 202.78C333.8 202.555 333.512 202.401 333.199 202.339C332.885 202.277 332.56 202.309 332.265 202.431C331.97 202.553 331.718 202.759 331.54 203.024C331.363 203.289 331.268 203.6 331.268 203.919C331.273 204.345 331.445 204.752 331.747 205.053C332.048 205.354 332.457 205.525 332.883 205.53Z" fill="white" fill-opacity="0.2"/>
<path d="M334.778 119.916C334.787 120.084 334.794 120.254 334.814 120.422C334.829 120.588 334.852 120.753 334.885 120.916C334.924 121.061 334.979 121.201 335.049 121.335C335.057 121.353 335.067 121.37 335.078 121.387C335.111 121.436 335.155 121.488 335.187 121.529C335.218 121.569 335.259 121.629 335.299 121.672C335.394 121.774 335.506 121.858 335.63 121.923C335.758 121.993 335.895 122.047 336.037 122.081C336.193 122.112 336.35 122.131 336.509 122.14C336.544 122.141 336.58 122.142 336.615 122.141C336.635 122.141 336.656 122.141 336.676 122.141C336.687 122.14 336.698 122.14 336.709 122.14L337.023 122.098C337.12 122.058 337.217 122.017 337.313 121.975C337.43 121.915 337.53 121.827 337.607 121.721C337.678 121.63 337.749 121.539 337.82 121.447C337.905 121.301 337.95 121.134 337.95 120.965C337.95 120.796 337.905 120.63 337.82 120.483C337.791 120.446 337.763 120.408 337.735 120.371L337.551 120.133C337.484 120.055 337.402 119.992 337.309 119.948C337.216 119.903 337.12 119.863 337.023 119.827L336.709 119.785C336.688 119.783 336.666 119.781 336.645 119.779C336.61 119.776 336.575 119.772 336.539 119.767L336.856 119.81C336.774 119.801 336.694 119.782 336.617 119.752L336.905 119.873C336.875 119.861 336.847 119.845 336.821 119.825L337.066 120.014C337.048 119.999 337.032 119.983 337.017 119.966L337.207 120.21C337.191 120.189 337.177 120.165 337.166 120.141L337.289 120.43C337.27 120.385 337.258 120.337 337.252 120.288L337.296 120.613C337.277 120.381 337.28 120.147 337.304 119.916C337.295 119.584 337.159 119.269 336.924 119.035C336.689 118.8 336.373 118.665 336.041 118.656L335.705 118.701C335.495 118.759 335.302 118.87 335.148 119.025L334.951 119.28C334.837 119.473 334.778 119.692 334.778 119.916Z" fill="white" fill-opacity="0.2"/>
<path d="M356.793 359.282L356.186 359.48C355.964 359.526 355.76 359.633 355.596 359.789C355.531 359.859 355.471 359.933 355.418 360.012L356.044 359.654C355.852 359.656 355.668 359.732 355.531 359.866C355.395 360.001 355.319 360.185 355.319 360.377C355.319 360.569 355.395 360.753 355.531 360.888C355.669 361.021 355.852 361.097 356.043 361.1L355.418 360.742C355.467 360.815 355.522 360.884 355.583 360.949C355.591 360.958 355.598 360.968 355.606 360.977L355.612 360.983C355.669 361.033 355.729 361.079 355.791 361.123C355.863 361.165 355.94 361.197 356.02 361.22C356.063 361.234 356.106 361.248 356.149 361.262L356.793 361.472C356.987 361.527 357.193 361.529 357.388 361.478C357.582 361.426 357.76 361.324 357.901 361.18L358.079 360.95C358.182 360.776 358.235 360.578 358.235 360.377C358.222 360.078 358.104 359.794 357.901 359.574C357.759 359.432 357.582 359.33 357.387 359.278C357.192 359.227 356.987 359.228 356.793 359.282Z" fill="white" fill-opacity="0.2"/>
<path d="M94.518 522.921C95.6986 522.921 96.8296 521.885 96.775 520.67C96.7649 520.076 96.5239 519.509 96.1028 519.089C95.6817 518.669 95.1135 518.429 94.518 518.419C93.3374 518.419 92.2064 519.454 92.261 520.67C92.2711 521.264 92.5121 521.83 92.9332 522.25C93.3543 522.67 93.9226 522.911 94.518 522.921Z" fill="white" fill-opacity="0.2"/>
<path d="M181.883 388.595L181.645 389.742L181.889 389.165L181.884 389.176L182.263 388.686L182.136 388.847L181.728 389.373C181.54 389.662 181.434 389.996 181.419 390.34C181.356 390.567 181.356 390.805 181.419 391.032C181.434 391.376 181.54 391.709 181.728 391.999L181.73 392.003C181.96 392.395 182.288 392.72 182.683 392.946C183.077 393.171 183.524 393.29 183.979 393.29C184.434 393.29 184.881 393.171 185.276 392.946C185.671 392.72 185.999 392.395 186.229 392.003L186.231 391.999L186.494 391.377C186.602 391.042 186.618 390.684 186.54 390.34C186.54 390.11 186.479 389.883 186.362 389.684C186.258 389.363 186.072 389.075 185.823 388.847L185.695 388.686L186.075 389.176L186.07 389.165L186.314 389.742L186.076 388.595L185.857 388.077C185.725 387.829 185.532 387.62 185.297 387.468C185.164 387.335 184.998 387.239 184.817 387.189C184.559 387.054 184.27 386.989 183.979 387.002L183.401 387.08L182.882 387.299C182.409 387.602 182.055 388.06 181.883 388.595Z" fill="white" fill-opacity="0.2"/>
<path d="M265.594 430.682C266.84 430.682 268.033 429.59 267.975 428.307C267.965 427.681 267.71 427.083 267.266 426.64C266.822 426.196 266.222 425.943 265.594 425.932C264.348 425.932 263.155 427.025 263.213 428.307C263.223 428.934 263.478 429.532 263.922 429.975C264.366 430.418 264.966 430.672 265.594 430.682Z" fill="white" fill-opacity="0.2"/>
<path d="M229.496 414.284C229.819 414.284 230.136 414.188 230.405 414.009C230.674 413.829 230.883 413.574 231.007 413.276C231.131 412.978 231.163 412.65 231.1 412.334C231.037 412.017 230.881 411.726 230.652 411.498C230.424 411.27 230.132 411.115 229.815 411.052C229.498 410.989 229.169 411.021 228.87 411.145C228.571 411.268 228.315 411.477 228.136 411.745C227.956 412.014 227.86 412.329 227.86 412.652C227.865 413.083 228.039 413.495 228.344 413.8C228.65 414.105 229.063 414.279 229.496 414.284Z" fill="white" fill-opacity="0.2"/>
<path d="M311.599 339.542C310.999 339.289 310.368 339.114 309.722 339.022C309.336 338.964 308.949 338.913 308.562 338.863C308.41 338.843 308.256 338.828 308.105 338.806C307.799 338.762 308.031 338.78 308.068 338.79C307.964 338.76 307.856 338.738 307.751 338.713C306.225 338.401 304.669 338.26 303.112 338.293C299.971 338.251 296.825 338.255 293.69 338.011C293.238 337.976 292.787 337.935 292.336 337.889C292.111 337.866 291.887 337.842 291.662 337.815C291.563 337.804 290.862 337.718 291.333 337.778C290.915 337.725 290.497 337.658 290.081 337.587C289.862 337.554 289.645 337.508 289.43 337.449C289.306 337.413 288.574 337.155 289.072 337.368C288.598 337.114 288.048 337.043 287.525 337.166C287.021 337.309 286.592 337.638 286.324 338.087C285.868 338.948 286.013 340.387 287.045 340.828C289.856 342.038 292.567 343.468 295.151 345.105C296.455 345.927 297.727 346.796 298.967 347.713C299.258 347.927 299.572 348.131 299.842 348.37C299.418 347.996 299.87 348.393 299.988 348.485C300.161 348.621 300.333 348.757 300.505 348.894C301.119 349.386 301.725 349.888 302.321 350.401C303 350.985 303.668 351.582 304.324 352.192C305.01 352.831 305.623 353.53 306.288 354.188C306.681 354.573 307.2 354.803 307.75 354.835C308.3 354.868 308.843 354.701 309.279 354.365C309.715 354.03 310.015 353.548 310.123 353.009C310.231 352.47 310.139 351.911 309.866 351.434C306.807 346.173 303.747 340.913 300.688 335.652C299.809 334.142 298.932 332.631 298.056 331.12C297.823 330.732 297.481 330.421 297.073 330.226C296.664 330.031 296.207 329.96 295.758 330.022C295.311 330.077 294.891 330.263 294.55 330.556C294.208 330.849 293.962 331.236 293.841 331.669C293.17 334.899 292.74 338.174 292.355 341.449C292.168 343.04 291.995 344.633 291.812 346.225C291.724 346.993 291.633 347.761 291.539 348.528C291.49 348.924 291.439 349.32 291.388 349.716C291.377 349.795 291.367 349.874 291.356 349.953C291.301 350.376 291.381 349.852 291.377 349.803C291.369 350.015 291.339 350.227 291.289 350.433C291.039 352.204 290.743 353.967 290.375 355.717C290.232 356.27 290.292 356.855 290.544 357.367C290.797 357.88 291.224 358.285 291.749 358.511C292.235 358.73 292.782 358.772 293.295 358.63C293.875 358.432 294.373 358.05 294.714 357.542C294.936 357.252 294.569 357.735 294.519 357.793C294.568 357.737 294.611 357.676 294.657 357.618C294.77 357.476 294.884 357.335 294.999 357.194C295.229 356.914 295.462 356.637 295.699 356.363C296.216 355.763 296.745 355.175 297.28 354.593C298.489 353.28 299.731 351.998 300.987 350.73C303.232 348.466 305.599 346.318 307.806 344.019C308.405 343.396 309.153 342.774 309.309 341.886C309.4 341.364 309.573 340.751 309.42 340.246L308.994 341.854L309.022 341.827C309.329 341.516 309.501 341.096 309.501 340.659C309.501 340.222 309.329 339.802 309.022 339.491C308.707 339.189 308.287 339.021 307.851 339.021C307.414 339.021 306.994 339.189 306.679 339.491L306.651 339.517L308.263 339.092C307.931 339.005 307.583 339 307.249 339.077C307.184 339.085 307.119 339.093 307.054 339.101C306.719 339.126 306.389 339.201 306.075 339.323C305.805 339.457 305.55 339.62 305.315 339.809L305.717 339.506L305.239 339.875C305.049 340.031 304.867 340.197 304.682 340.358C303.651 341.255 302.674 342.197 301.7 343.155C299.152 345.663 296.632 348.203 294.224 350.846C292.962 352.232 291.739 353.651 290.614 355.152L294.953 356.976C295.602 353.739 296.02 350.458 296.389 347.179C296.569 345.587 296.734 343.995 296.909 342.403C296.993 341.635 297.08 340.867 297.17 340.099C297.217 339.703 297.265 339.307 297.315 338.911C297.338 338.727 297.362 338.543 297.386 338.358C297.399 338.253 297.413 338.148 297.427 338.043C297.468 337.731 297.427 338.058 297.408 338.185C297.684 336.416 297.933 334.648 298.289 332.892L294.074 333.442C297.153 338.691 300.224 343.945 303.288 349.203C304.169 350.711 305.05 352.22 305.931 353.728L309.51 350.974C308.915 350.388 308.258 349.872 307.639 349.31C307.047 348.774 306.447 348.247 305.837 347.731C304.517 346.615 303.158 345.546 301.759 344.525C299.247 342.681 296.598 341.03 293.834 339.587C293.078 339.193 292.313 338.816 291.54 338.454C291.133 338.264 290.724 338.078 290.312 337.897C290.117 337.812 289.922 337.727 289.726 337.643C289.639 337.606 289.552 337.569 289.465 337.533C289.361 337.489 288.506 337.13 289.072 337.368L288.059 341.101C288.252 341.1 288.444 341.118 288.638 341.13C288.674 341.132 288.928 341.143 288.929 341.146C288.926 341.13 288.463 341.073 288.873 341.129C289.381 341.198 289.889 341.275 290.398 341.339C291.192 341.438 291.989 341.513 292.787 341.571C294.37 341.686 295.958 341.729 297.546 341.74C299.11 341.752 300.675 341.731 302.24 341.715C303.745 341.699 305.265 341.715 306.767 341.602C307.057 341.58 307.337 341.503 307.624 341.459C307.709 341.446 307.793 341.433 307.878 341.421C307.944 341.411 308.19 341.424 307.973 341.419C308.362 341.428 308.752 341.418 309.141 341.425C309.497 341.432 309.853 341.46 310.207 341.464C310.322 341.459 310.435 341.447 310.548 341.429C310.433 341.443 310.729 341.411 310.756 341.409C310.954 341.393 311.153 341.379 311.352 341.368C311.573 341.361 311.784 341.275 311.949 341.127C312.113 340.979 312.219 340.778 312.249 340.56C312.279 340.341 312.23 340.118 312.111 339.932C311.992 339.746 311.811 339.608 311.599 339.542Z" fill="white" fill-opacity="0.2"/>
<path d="M87.7484 429.927C89.0541 429.927 89.0563 427.903 87.7484 427.903C86.4427 427.903 86.4405 429.927 87.7484 429.927Z" fill="white" fill-opacity="0.2"/>
<path d="M75.1155 369.007C75.5209 369.007 75.9173 368.887 76.2544 368.662C76.5915 368.438 76.8542 368.118 77.0094 367.745C77.1645 367.371 77.2051 366.96 77.126 366.563C77.0469 366.167 76.8517 365.802 76.565 365.516C76.2783 365.23 75.9131 365.036 75.5154 364.957C75.1178 364.878 74.7056 364.918 74.331 365.073C73.9564 365.228 73.6363 365.49 73.411 365.826C73.1858 366.162 73.0655 366.558 73.0655 366.962C73.0715 367.503 73.2894 368.019 73.6726 368.401C74.0557 368.784 74.5736 369.001 75.1155 369.007Z" fill="white" fill-opacity="0.2"/>
<path d="M61.2321 436.631C61.1766 436.789 61.1226 436.949 61.0575 437.104L61.2815 436.575C61.275 436.59 61.2684 436.605 61.2616 436.62L63.1959 435.514C63.1647 435.511 63.1329 435.507 63.1017 435.505L62.419 435.597C62.0931 435.672 61.7922 435.83 61.5457 436.055C61.4467 436.132 61.3615 436.197 61.2696 436.269L61.7901 435.868C61.7706 435.883 61.7493 435.895 61.7269 435.904L62.3445 435.644C62.3124 435.657 62.2788 435.666 62.2445 435.67L62.937 435.577C62.8368 435.586 62.736 435.581 62.6368 435.564L63.3445 435.659C63.2816 435.651 63.219 435.64 63.1565 435.629L65.0415 437.509C65.0089 437.225 64.9018 436.955 64.7309 436.725L64.2646 436.123C63.8999 435.759 63.4465 435.495 62.9489 435.358L62.1562 435.252C61.6272 435.251 61.1077 435.391 60.6513 435.658L60.0478 436.123C59.6825 436.487 59.4182 436.939 59.281 437.435C59.1572 437.819 59.1388 438.228 59.2277 438.621C59.2449 439.015 59.3671 439.396 59.5815 439.727C59.8709 440.239 60.3112 440.65 60.8427 440.904C61.3741 441.158 61.9711 441.243 62.5525 441.147C62.947 441.13 63.3297 441.008 63.6612 440.794C64.3103 440.377 64.7946 439.749 65.0315 439.017C65.1665 437.988 65.1731 437.962 65.0513 438.94L63.1679 440.818C63.5349 440.736 63.8897 440.606 64.2237 440.434C64.2468 440.423 64.2692 440.41 64.2905 440.396C64.2962 440.392 64.3014 440.388 64.3069 440.384L64.8317 439.98L64.8403 439.973C64.8484 439.966 64.8565 439.959 64.8641 439.951C65.032 439.778 65.1802 439.587 65.3062 439.382C65.4199 439.201 65.6582 438.457 65.5778 438.748C65.7005 438.301 65.7002 437.829 65.5768 437.383C65.4866 437.051 65.3291 436.741 65.114 436.472C64.899 436.203 64.631 435.98 64.3265 435.819L65.356 437.154C65.3107 436.976 65.2461 436.804 65.1856 436.631L64.9789 436.142C64.8549 435.909 64.6732 435.712 64.451 435.569C64.3256 435.443 64.1697 435.353 63.9987 435.306C63.7558 435.178 63.4832 435.117 63.2089 435.13L62.6639 435.203L62.1742 435.409C61.7279 435.695 61.395 436.127 61.2321 436.631Z" fill="white" fill-opacity="0.2"/>
<path d="M122.659 409.739L122.475 409.49L122.619 410.586L122.697 410.36C122.758 410.138 122.76 409.904 122.701 409.681C122.642 409.459 122.525 409.256 122.362 409.093C122.199 408.931 121.995 408.814 121.772 408.755C121.549 408.697 121.315 408.698 121.092 408.759L120.865 408.837L121.964 408.98C121.804 408.833 121.611 408.725 121.402 408.666C120.921 408.472 120.395 408.421 119.886 408.517C119.376 408.613 118.906 408.853 118.529 409.209L118.118 409.739C117.929 410.031 117.821 410.368 117.806 410.715C117.744 411.224 117.829 411.741 118.051 412.204C118.274 412.667 118.624 413.057 119.061 413.328L119.69 413.592C120.029 413.701 120.391 413.718 120.738 413.639C121.086 413.624 121.424 413.517 121.716 413.328L122.248 412.918C122.57 412.597 122.803 412.198 122.925 411.761L123.018 411.063C123.019 410.598 122.895 410.141 122.659 409.739Z" fill="white" fill-opacity="0.2"/>
<path d="M255.141 497.855C256.603 497.855 258.004 496.573 257.936 495.067C257.923 494.331 257.625 493.63 257.103 493.109C256.582 492.589 255.878 492.291 255.141 492.279C253.678 492.279 252.278 493.561 252.345 495.067C252.358 495.803 252.656 496.505 253.178 497.025C253.699 497.545 254.403 497.843 255.141 497.855Z" fill="white" fill-opacity="0.2"/>
<path d="M291.778 449.916C291.787 450.084 291.794 450.254 291.814 450.422C291.829 450.588 291.852 450.753 291.885 450.916C291.924 451.061 291.979 451.201 292.049 451.335C292.057 451.353 292.067 451.37 292.078 451.387C292.111 451.436 292.155 451.488 292.187 451.529C292.218 451.569 292.259 451.629 292.299 451.672C292.394 451.774 292.506 451.858 292.63 451.923C292.758 451.993 292.895 452.047 293.037 452.081C293.193 452.112 293.35 452.131 293.509 452.14C293.544 452.141 293.58 452.142 293.615 452.141C293.635 452.141 293.656 452.141 293.676 452.141C293.687 452.14 293.698 452.14 293.709 452.14L294.023 452.098C294.12 452.058 294.217 452.017 294.313 451.975C294.43 451.915 294.53 451.827 294.607 451.721C294.678 451.63 294.749 451.539 294.82 451.447C294.905 451.301 294.95 451.134 294.95 450.965C294.95 450.796 294.905 450.63 294.82 450.483C294.791 450.446 294.763 450.408 294.735 450.371L294.551 450.133C294.484 450.055 294.402 449.992 294.309 449.948C294.216 449.903 294.12 449.863 294.023 449.827L293.709 449.785C293.688 449.783 293.666 449.781 293.645 449.779C293.61 449.776 293.575 449.772 293.539 449.767L293.856 449.81C293.774 449.801 293.694 449.782 293.617 449.752L293.905 449.873C293.875 449.861 293.847 449.845 293.821 449.825L294.066 450.014C294.048 449.999 294.032 449.983 294.017 449.966L294.207 450.21C294.191 450.189 294.177 450.165 294.166 450.141L294.289 450.43C294.27 450.385 294.258 450.337 294.252 450.288L294.296 450.613C294.277 450.381 294.28 450.147 294.304 449.916C294.295 449.584 294.159 449.269 293.924 449.035C293.689 448.8 293.373 448.665 293.041 448.656L292.705 448.701C292.495 448.759 292.302 448.87 292.148 449.025L291.951 449.28C291.837 449.473 291.778 449.692 291.778 449.916Z" fill="white" fill-opacity="0.2"/>
<path d="M347.327 517.119C347.341 517.43 347.354 517.742 347.369 518.053C347.379 518.439 347.537 518.806 347.811 519.079C348.084 519.351 348.452 519.509 348.839 519.519L349.23 519.467C349.475 519.4 349.698 519.27 349.878 519.09L350.108 518.793C350.24 518.569 350.309 518.313 350.309 518.053C350.324 517.742 350.337 517.43 350.35 517.119C350.34 516.723 350.177 516.345 349.896 516.065C349.615 515.784 349.236 515.622 348.839 515.611L348.437 515.665C348.185 515.735 347.955 515.868 347.77 516.053L347.534 516.358C347.398 516.589 347.327 516.852 347.327 517.119Z" fill="white" fill-opacity="0.2"/>
</svg>
