<svg width="102" height="56" viewBox="0 0 102 56" fill="none" xmlns="http://www.w3.org/2000/svg">
<path d="M0.41 22V19.06L10.07 4.21H0.5V0.999999H14.51V3.94L4.79 18.79H14.57V22H0.41ZM26.1322 22.36C24.5922 22.36 23.2022 22.06 21.9622 21.46C20.7222 20.84 19.7322 19.91 18.9922 18.67C18.2722 17.43 17.9122 15.86 17.9122 13.96V0.999999H21.7522V13.99C21.7522 15.63 22.1422 16.85 22.9222 17.65C23.7222 18.45 24.8222 18.85 26.2222 18.85C27.6022 18.85 28.6922 18.45 29.4922 17.65C30.2922 16.85 30.6922 15.63 30.6922 13.99V0.999999H34.5322V13.96C34.5322 15.86 34.1522 17.43 33.3922 18.67C32.6322 19.91 31.6122 20.84 30.3322 21.46C29.0722 22.06 27.6722 22.36 26.1322 22.36ZM38.4521 22V0.999999H45.6221C48.0821 0.999999 50.1021 1.44 51.6821 2.32C53.2821 3.18 54.4621 4.4 55.2221 5.98C56.0021 7.54 56.3921 9.38 56.3921 11.5C56.3921 13.62 56.0021 15.47 55.2221 17.05C54.4621 18.61 53.2821 19.83 51.6821 20.71C50.1021 21.57 48.0821 22 45.6221 22H38.4521ZM42.2921 18.7H45.4421C47.2021 18.7 48.5921 18.42 49.6121 17.86C50.6321 17.28 51.3621 16.46 51.8021 15.4C52.2421 14.32 52.4621 13.02 52.4621 11.5C52.4621 10 52.2421 8.71 51.8021 7.63C51.3621 6.55 50.6321 5.72 49.6121 5.14C48.5921 4.56 47.2021 4.27 45.4421 4.27H42.2921V18.7ZM59.7802 22V0.999999H63.6202V22H59.7802ZM77.5304 22.36C75.4304 22.36 73.5904 21.9 72.0104 20.98C70.4504 20.06 69.2204 18.79 68.3204 17.17C67.4404 15.53 67.0004 13.64 67.0004 11.5C67.0004 9.36 67.4404 7.48 68.3204 5.86C69.2204 4.22 70.4504 2.94 72.0104 2.02C73.5904 1.1 75.4304 0.64 77.5304 0.64C79.6104 0.64 81.4404 1.1 83.0204 2.02C84.6004 2.94 85.8304 4.22 86.7104 5.86C87.5904 7.48 88.0304 9.36 88.0304 11.5C88.0304 13.64 87.5904 15.53 86.7104 17.17C85.8304 18.79 84.6004 20.06 83.0204 20.98C81.4404 21.9 79.6104 22.36 77.5304 22.36ZM77.5304 18.91C79.5304 18.91 81.1204 18.25 82.3004 16.93C83.5004 15.61 84.1004 13.8 84.1004 11.5C84.1004 9.2 83.5004 7.39 82.3004 6.07C81.1204 4.75 79.5304 4.09 77.5304 4.09C75.5304 4.09 73.9304 4.75 72.7304 6.07C71.5304 7.39 70.9304 9.2 70.9304 11.5C70.9304 13.8 71.5304 15.61 72.7304 16.93C73.9304 18.25 75.5304 18.91 77.5304 18.91Z" fill="#FFB417"/>
<path d="M1.244 56V32.9H6.26L13.619 47.552L20.879 32.9H25.895V56H21.671V40.061L15.236 52.7H11.903L5.468 40.061V56H1.244ZM30.3768 56V32.9H45.4578V36.299H34.6008V42.635H44.4678V45.935H34.6008V52.601H45.4578V56H30.3768ZM49.4549 56V32.9H57.3419C60.0479 32.9 62.2699 33.384 64.0079 34.352C65.7679 35.298 67.0659 36.64 67.9019 38.378C68.7599 40.094 69.1889 42.118 69.1889 44.45C69.1889 46.782 68.7599 48.817 67.9019 50.555C67.0659 52.271 65.7679 53.613 64.0079 54.581C62.2699 55.527 60.0479 56 57.3419 56H49.4549ZM53.6789 52.37H57.1439C59.0799 52.37 60.6089 52.062 61.7309 51.446C62.8529 50.808 63.6559 49.906 64.1399 48.74C64.6239 47.552 64.8659 46.122 64.8659 44.45C64.8659 42.8 64.6239 41.381 64.1399 40.193C63.6559 39.005 62.8529 38.092 61.7309 37.454C60.6089 36.816 59.0799 36.497 57.1439 36.497H53.6789V52.37ZM72.9159 56V32.9H77.1399V56H72.9159ZM80.132 56L88.58 32.9H93.332L101.78 56H97.292L95.444 50.654H86.435L84.554 56H80.132ZM87.59 47.354H94.289L90.923 37.751L87.59 47.354Z" fill="white"/>
</svg>
